<svg width="600" height="304" viewBox="0 0 600 304" fill="none" xmlns="http://www.w3.org/2000/svg">
<path d="M293.371 120.52L295.001 143.333C295.001 143.333 295.834 146.667 300.001 146.667C304.167 146.667 305.001 143.333 305.001 143.333L306.63 120.52C306.57 120.545 306.509 120.57 306.447 120.595C304.969 121.186 302.877 121.667 300.001 121.667C297.125 121.667 295.033 121.186 293.555 120.595C293.492 120.57 293.431 120.545 293.371 120.52Z" fill="url(#paint0_linear_1356_82148)"/>
<path d="M290.071 79.1411L293.334 116.667C293.334 116.667 295.001 118.333 300.001 118.333C305.001 118.333 306.668 116.667 306.668 116.667L309.931 79.1409C307.884 80.3319 304.562 81.6667 300.001 81.6667C295.438 81.6667 292.117 80.3315 290.071 79.1411Z" fill="url(#paint1_linear_1356_82148)"/>
<path d="M288.725 42.2741C288.189 42.6515 287.764 43.187 287.523 43.8296L284.163 52.7901C283.626 54.2199 283.597 55.7904 284.08 57.2391L289.503 73.507C289.83 74.4888 290.378 75.3913 291.247 75.9534C292.77 76.9385 295.688 78.3333 300.001 78.3333C304.313 78.3333 307.231 76.9385 308.754 75.9534C309.623 75.3913 310.171 74.4888 310.498 73.507L315.921 57.2391C316.404 55.7904 316.375 54.2199 315.838 52.7901L312.478 43.8296C312.237 43.187 311.812 42.6515 311.276 42.2741C308.308 45.0015 304.349 46.6667 300.001 46.6667C295.652 46.6667 291.693 45.0015 288.725 42.2741Z" fill="url(#paint2_linear_1356_82148)"/>
<path d="M286.667 30C286.667 28.0055 285.484 26.0403 283.724 25.1001C279.525 22.8554 276.667 18.428 276.667 13.3333C276.667 5.96954 282.637 0 290.001 0C291.287 0 292.531 0.182103 293.707 0.521932C297.56 1.63468 302.441 1.63467 306.294 0.52193C307.471 0.182102 308.715 0 310.001 0C317.365 0 323.334 5.96954 323.334 13.3333C323.334 18.428 320.477 22.8554 316.277 25.1001C314.518 26.0403 313.334 28.0055 313.334 30C313.334 37.3638 307.365 43.3333 300.001 43.3333C292.637 43.3333 286.667 37.3638 286.667 30Z" fill="url(#paint3_linear_1356_82148)"/>
<path d="M215.001 50H281.334C278.334 55 280.509 58.193 281.667 61.6667L219.391 79.5014C215.414 80.6216 211.158 79.1811 208.679 75.876L204.76 70.6504C202.488 67.6202 202.122 63.5661 203.816 60.1782L206.141 55.5275C207.822 52.1671 211.244 50.032 215.001 50Z" fill="url(#paint4_linear_1356_82148)"/>
<path d="M282.501 46.6667L206.667 44.8876C202.434 44.7111 198.73 42.2702 197.484 38.2209L193.777 26.2459C193.481 25.285 193.337 24.3042 193.334 23.3333C193.326 20.2745 194.724 17.3136 197.234 15.3814L204.884 9.49196C207.751 7.28419 211.588 6.79807 214.916 8.22088C223.481 11.7497 274.875 33.9566 283.709 37.7748C284.467 38.1024 284.844 38.9237 284.641 39.7242C284.498 40.2938 284.328 40.9799 284.167 41.6667C283.698 43.6708 282.501 46.6667 282.501 46.6667Z" fill="url(#paint5_linear_1356_82148)"/>
<path d="M385.001 50H318.667C321.667 55 319.492 58.193 318.334 61.6667L380.61 79.5014C384.587 80.6216 388.843 79.1811 391.322 75.876L395.241 70.6504C397.514 67.6202 397.879 63.5661 396.185 60.1783L393.86 55.5275C392.18 52.1671 388.758 50.032 385.001 50Z" fill="url(#paint6_linear_1356_82148)"/>
<path d="M317.501 46.6667L393.334 44.8876C397.567 44.7112 401.271 42.2702 402.517 38.2209L406.225 26.2459C406.52 25.285 406.665 24.3043 406.667 23.3333C406.676 20.2745 405.277 17.3136 402.767 15.3814L395.118 9.49198C392.25 7.28421 388.413 6.79809 385.086 8.22091C376.52 11.7497 325.126 33.9566 316.293 37.7748C315.535 38.1024 315.158 38.9237 315.36 39.7242C315.504 40.2938 315.673 40.9799 315.834 41.6667C316.303 43.6708 317.501 46.6667 317.501 46.6667Z" fill="url(#paint7_linear_1356_82148)"/>
<path d="M465.582 176.493C464.604 179.329 464.115 182.36 464.115 185.587V196.733H452.822V209.347H464.115V273.88H479.369V209.347H493.742V196.733H479.369V186.173C479.369 183.924 479.907 182.213 480.982 181.04C482.155 179.867 483.915 179.28 486.262 179.28H493.742L497.076 168.573C496.098 168.182 494.973 167.84 493.702 167.547C492.431 167.253 491.062 167.058 489.595 166.96C488.227 166.764 486.858 166.667 485.489 166.667C480.698 166.667 473.649 167.596 471.009 169.453C468.467 171.311 466.658 173.658 465.582 176.493Z" fill="url(#paint8_linear_1356_82148)"/>
<path fill-rule="evenodd" clip-rule="evenodd" d="M65.4133 268.6C58.08 272.12 49.2311 273.88 38.8667 273.88H0V173.267H38.8667C49.2311 173.267 58.08 175.076 65.4133 178.693C72.7467 182.213 78.3689 187.689 82.28 195.12C86.2889 202.453 88.2933 211.938 88.2933 223.573C88.2933 235.111 86.2889 244.596 82.28 252.027C78.3689 259.458 72.7467 264.982 65.4133 268.6ZM52.5067 189.4C48.4978 188.031 43.9022 187.347 38.72 187.347H16.4267V259.8H38.72C43.9022 259.8 48.4978 259.116 52.5067 257.747C56.6133 256.378 60.0356 254.276 62.7733 251.44C65.6089 248.604 67.7111 245.036 69.08 240.733C70.5467 236.333 71.28 231.151 71.28 225.187V222.107C71.28 216.044 70.5467 210.862 69.08 206.56C67.7111 202.16 65.6089 198.542 62.7733 195.707C60.0356 192.871 56.6133 190.769 52.5067 189.4Z" fill="url(#paint9_linear_1356_82148)"/>
<path d="M112.947 223.28C112.262 226.018 111.92 229.098 111.92 232.52V273.88H96.6665V196.733H109.28L110.6 209.2H111.48C112.36 206.756 113.484 204.458 114.853 202.307C116.32 200.156 118.178 198.396 120.427 197.027C122.773 195.658 125.609 194.973 128.933 194.973C130.498 194.973 131.867 195.12 133.04 195.413C134.311 195.707 135.289 195.951 135.973 196.147V210.52H130.84C127.711 210.52 124.924 211.009 122.48 211.987C120.133 212.964 118.129 214.431 116.467 216.387C114.902 218.244 113.729 220.542 112.947 223.28Z" fill="url(#paint10_linear_1356_82148)"/>
<path fill-rule="evenodd" clip-rule="evenodd" d="M157.256 274.76C160.092 275.347 162.732 275.64 165.176 275.64C169.185 275.64 172.803 275.151 176.03 274.173C179.256 273.293 182.092 272.022 184.536 270.36C187.078 268.6 189.23 266.596 190.99 264.347H191.87V275.64L205.8 275.627L205.803 218.733C205.803 213.747 204.678 209.493 202.43 205.973C200.181 202.453 196.807 199.764 192.31 197.907C187.91 195.951 182.385 194.973 175.736 194.973C169.576 194.973 164.15 195.804 159.456 197.467C154.763 199.129 151.096 201.573 148.456 204.8C145.914 207.929 144.643 211.791 144.643 216.387V218.147C144.643 218.636 144.692 219.124 144.79 219.613H159.456V217.413C159.456 215.653 159.896 214.04 160.776 212.573C161.754 211.009 163.367 209.738 165.616 208.76C167.963 207.684 171.19 207.147 175.296 207.147C179.403 207.147 182.532 207.684 184.683 208.76C186.932 209.836 188.447 211.351 189.23 213.307C190.11 215.262 190.55 217.511 190.55 220.053V227.68C183.314 227.68 176.616 228.071 170.456 228.853C164.394 229.636 159.163 231.004 154.763 232.96C150.363 234.916 146.941 237.604 144.496 241.027C142.052 244.449 140.83 248.8 140.83 254.08C140.83 258.578 141.612 262.244 143.176 265.08C144.741 267.818 146.745 269.969 149.19 271.533C151.732 273.098 154.421 274.173 157.256 274.76ZM177.79 261.707C175.247 262.587 172.461 263.027 169.43 263.027C166.79 263.027 164.492 262.636 162.536 261.853C160.581 261.071 159.114 259.947 158.136 258.48C157.158 256.916 156.67 255.009 156.67 252.76C156.67 249.044 158.087 246.16 160.923 244.107C163.758 241.956 167.718 240.489 172.803 239.707C177.887 238.924 183.803 238.533 190.55 238.533V243.667C190.55 246.502 190.012 249.142 188.936 251.587C187.861 253.933 186.394 255.987 184.536 257.747C182.678 259.409 180.43 260.729 177.79 261.707Z" fill="url(#paint11_linear_1356_82148)"/>
<path fill-rule="evenodd" clip-rule="evenodd" d="M232.548 300.573C229.028 300.573 225.703 299.84 222.574 298.373C219.543 296.907 217.099 294.804 215.241 292.067C213.383 289.329 212.454 286.004 212.454 282.093C212.454 277.791 213.628 274.32 215.974 271.68C218.419 268.942 221.254 266.889 224.481 265.52C222.134 264.444 220.228 262.88 218.761 260.827C217.392 258.773 216.708 256.427 216.708 253.787C216.708 250.169 218.028 247.236 220.668 244.987C223.308 242.738 226.388 241.271 229.908 240.587C226.485 238.338 223.796 235.502 221.841 232.08C219.983 228.658 219.054 224.796 219.054 220.493C219.054 215.311 220.276 210.862 222.721 207.147C225.165 203.333 228.783 200.351 233.574 198.2C238.463 196.049 244.379 194.973 251.321 194.973H293.333L290 204.427H277.915C279.607 206.317 280.911 208.446 281.828 210.813C283.099 213.747 283.734 216.973 283.734 220.493C283.734 225.578 282.561 230.027 280.214 233.84C277.868 237.653 274.299 240.636 269.508 242.787C264.814 244.938 258.996 246.013 252.054 246.013H240.028C237.681 246.013 235.774 246.502 234.308 247.48C232.939 248.458 232.254 249.924 232.254 251.88C232.254 253.542 232.939 254.911 234.308 255.987C235.676 257.062 237.485 257.6 239.734 257.6H272.294C277.965 257.6 282.659 259.507 286.374 263.32C290.09 267.036 291.948 271.827 291.948 277.693C291.948 281.996 290.823 285.858 288.574 289.28C286.423 292.8 283.343 295.538 279.334 297.493C275.423 299.547 270.876 300.573 265.694 300.573H232.548ZM230.494 286.64C232.352 288.4 234.699 289.28 237.534 289.28H265.548C267.601 289.28 269.459 288.889 271.121 288.107C272.783 287.324 274.103 286.2 275.081 284.733C276.059 283.364 276.548 281.8 276.548 280.04C276.548 277.107 275.619 274.809 273.761 273.147C272.001 271.484 269.801 270.653 267.161 270.653H237.534C234.796 270.653 232.499 271.582 230.641 273.44C228.783 275.2 227.854 277.4 227.854 280.04C227.854 282.778 228.734 284.978 230.494 286.64ZM251.468 235.013C257.236 235.013 261.539 233.742 264.374 231.2C267.21 228.56 268.628 224.991 268.628 220.493C268.628 215.898 267.21 212.378 264.374 209.933C261.539 207.391 257.236 206.12 251.468 206.12C245.699 206.12 241.396 207.391 238.561 209.933C235.725 212.378 234.308 215.898 234.308 220.493C234.308 223.427 234.894 226.018 236.068 228.267C237.339 230.418 239.245 232.08 241.788 233.253C244.428 234.427 247.654 235.013 251.468 235.013Z" fill="url(#paint12_linear_1356_82148)"/>
<path fill-rule="evenodd" clip-rule="evenodd" d="M311.573 271.387C317.147 274.222 323.942 275.64 331.96 275.64C340.173 275.64 347.018 274.222 352.493 271.387C357.969 268.453 362.075 264.004 364.813 258.04C367.649 252.076 369.067 244.498 369.067 235.307C369.067 226.018 367.649 218.44 364.813 212.573C362.075 206.609 357.969 202.209 352.493 199.373C347.018 196.44 340.173 194.973 331.96 194.973C323.942 194.973 317.147 196.44 311.573 199.373C306.098 202.209 301.942 206.609 299.107 212.573C296.369 218.44 295 226.018 295 235.307C295 244.498 296.369 252.076 299.107 258.04C301.942 264.004 306.098 268.453 311.573 271.387ZM343.987 260.24C340.858 262.098 336.849 263.027 331.96 263.027C327.169 263.027 323.209 262.098 320.08 260.24C316.951 258.284 314.604 255.351 313.04 251.44C311.573 247.529 310.84 242.591 310.84 236.627V233.987C310.84 228.022 311.573 223.084 313.04 219.173C314.604 215.262 316.951 212.378 320.08 210.52C323.209 208.564 327.169 207.587 331.96 207.587C336.849 207.587 340.858 208.564 343.987 210.52C347.115 212.378 349.413 215.262 350.88 219.173C352.444 223.084 353.227 228.022 353.227 233.987V236.627C353.227 242.591 352.444 247.529 350.88 251.44C349.413 255.351 347.115 258.284 343.987 260.24Z" fill="url(#paint13_linear_1356_82148)"/>
<path d="M397.893 218C396.133 221.031 395.253 224.6 395.253 228.707V273.88H380V196.733H392.613L393.933 207.733H394.96C396.818 204.898 399.018 202.551 401.56 200.693C404.102 198.836 406.889 197.418 409.92 196.44C413.049 195.462 416.471 194.973 420.187 194.973C425.075 194.973 429.378 195.853 433.093 197.613C436.809 199.276 439.693 202.013 441.747 205.827C443.898 209.64 444.973 214.773 444.973 221.227V273.88H429.72V223.573C429.72 220.64 429.329 218.196 428.547 216.24C427.862 214.284 426.836 212.72 425.467 211.547C424.098 210.373 422.484 209.542 420.627 209.053C418.769 208.564 416.715 208.32 414.467 208.32C410.947 208.32 407.72 209.2 404.787 210.96C401.951 212.622 399.653 214.969 397.893 218Z" fill="url(#paint14_linear_1356_82148)"/>
<path d="M600 196.592L564.8 300.952H549.25C549.25 300.952 556.733 276.47 557.907 273.244L526.96 196.592H542.947L557.907 231.685C558.591 233.445 559.324 235.645 560.107 238.285C560.987 240.925 561.818 243.614 562.6 246.352C563.48 249.09 564.213 251.534 564.8 253.685H565.533C566.022 252.219 566.511 250.557 567 248.699C567.587 246.743 568.173 244.739 568.76 242.685C569.347 240.632 569.933 238.677 570.52 236.819C571.107 234.863 571.596 233.201 571.987 231.832L584.453 196.592H600Z" fill="url(#paint15_linear_1356_82148)"/>
<path d="M503.715 167.84V273.88H518.969V167.84H503.715Z" fill="url(#paint16_linear_1356_82148)"/>
<defs>
<linearGradient id="paint0_linear_1356_82148" x1="300.001" y1="0" x2="300.001" y2="146.667" gradientUnits="userSpaceOnUse">
<stop stop-color="#5A3EE0"/>
<stop offset="1" stop-color="#3E74E0"/>
</linearGradient>
<linearGradient id="paint1_linear_1356_82148" x1="300.001" y1="0" x2="300.001" y2="146.667" gradientUnits="userSpaceOnUse">
<stop stop-color="#5A3EE0"/>
<stop offset="1" stop-color="#3E74E0"/>
</linearGradient>
<linearGradient id="paint2_linear_1356_82148" x1="300.001" y1="0" x2="300.001" y2="146.667" gradientUnits="userSpaceOnUse">
<stop stop-color="#5A3EE0"/>
<stop offset="1" stop-color="#3E74E0"/>
</linearGradient>
<linearGradient id="paint3_linear_1356_82148" x1="300.001" y1="0" x2="300.001" y2="146.667" gradientUnits="userSpaceOnUse">
<stop stop-color="#5A3EE0"/>
<stop offset="1" stop-color="#3E74E0"/>
</linearGradient>
<linearGradient id="paint4_linear_1356_82148" x1="300.001" y1="0" x2="300.001" y2="146.667" gradientUnits="userSpaceOnUse">
<stop stop-color="#5A3EE0"/>
<stop offset="1" stop-color="#3E74E0"/>
</linearGradient>
<linearGradient id="paint5_linear_1356_82148" x1="300.001" y1="0" x2="300.001" y2="146.667" gradientUnits="userSpaceOnUse">
<stop stop-color="#5A3EE0"/>
<stop offset="1" stop-color="#3E74E0"/>
</linearGradient>
<linearGradient id="paint6_linear_1356_82148" x1="300.001" y1="0" x2="300.001" y2="146.667" gradientUnits="userSpaceOnUse">
<stop stop-color="#5A3EE0"/>
<stop offset="1" stop-color="#3E74E0"/>
</linearGradient>
<linearGradient id="paint7_linear_1356_82148" x1="300.001" y1="0" x2="300.001" y2="146.667" gradientUnits="userSpaceOnUse">
<stop stop-color="#5A3EE0"/>
<stop offset="1" stop-color="#3E74E0"/>
</linearGradient>
<linearGradient id="paint8_linear_1356_82148" x1="300" y1="166.667" x2="300" y2="300.952" gradientUnits="userSpaceOnUse">
<stop stop-color="#5A3EE0"/>
<stop offset="1" stop-color="#3E74E0"/>
</linearGradient>
<linearGradient id="paint9_linear_1356_82148" x1="300" y1="166.667" x2="300" y2="300.952" gradientUnits="userSpaceOnUse">
<stop stop-color="#5A3EE0"/>
<stop offset="1" stop-color="#3E74E0"/>
</linearGradient>
<linearGradient id="paint10_linear_1356_82148" x1="300" y1="166.667" x2="300" y2="300.952" gradientUnits="userSpaceOnUse">
<stop stop-color="#5A3EE0"/>
<stop offset="1" stop-color="#3E74E0"/>
</linearGradient>
<linearGradient id="paint11_linear_1356_82148" x1="300" y1="166.667" x2="300" y2="300.952" gradientUnits="userSpaceOnUse">
<stop stop-color="#5A3EE0"/>
<stop offset="1" stop-color="#3E74E0"/>
</linearGradient>
<linearGradient id="paint12_linear_1356_82148" x1="300" y1="166.667" x2="300" y2="300.952" gradientUnits="userSpaceOnUse">
<stop stop-color="#5A3EE0"/>
<stop offset="1" stop-color="#3E74E0"/>
</linearGradient>
<linearGradient id="paint13_linear_1356_82148" x1="300" y1="166.667" x2="300" y2="300.952" gradientUnits="userSpaceOnUse">
<stop stop-color="#5A3EE0"/>
<stop offset="1" stop-color="#3E74E0"/>
</linearGradient>
<linearGradient id="paint14_linear_1356_82148" x1="300" y1="166.667" x2="300" y2="300.952" gradientUnits="userSpaceOnUse">
<stop stop-color="#5A3EE0"/>
<stop offset="1" stop-color="#3E74E0"/>
</linearGradient>
<linearGradient id="paint15_linear_1356_82148" x1="300" y1="166.667" x2="300" y2="300.952" gradientUnits="userSpaceOnUse">
<stop stop-color="#5A3EE0"/>
<stop offset="1" stop-color="#3E74E0"/>
</linearGradient>
<linearGradient id="paint16_linear_1356_82148" x1="300" y1="166.667" x2="300" y2="300.952" gradientUnits="userSpaceOnUse">
<stop stop-color="#5A3EE0"/>
<stop offset="1" stop-color="#3E74E0"/>
</linearGradient>
</defs>
</svg>
