<?xml version="1.0" encoding="UTF-8"?>
<svg width="329px" height="165px" viewBox="0 0 329 165" version="1.1" xmlns="http://www.w3.org/2000/svg" xmlns:xlink="http://www.w3.org/1999/xlink">
    <title>Dragonfly Logo Full Copy@1x</title>
    <defs>
        <linearGradient x1="7.17111655%" y1="50%" x2="100%" y2="50%" id="linearGradient-1">
            <stop stop-color="#886AFB" offset="0%"></stop>
            <stop stop-color="#5C69F6" offset="47.0146109%"></stop>
            <stop stop-color="#EB92FF" offset="100%"></stop>
        </linearGradient>
        <linearGradient x1="7.17111655%" y1="50%" x2="100%" y2="50%" id="linearGradient-2">
            <stop stop-color="#886AFB" offset="0%"></stop>
            <stop stop-color="#5C69F6" offset="47.0146109%"></stop>
            <stop stop-color="#EB92FF" offset="100%"></stop>
        </linearGradient>
    </defs>
    <g id="Dragonfly-Logo-Full-Copy" stroke="none" stroke-width="1" fill="none" fill-rule="evenodd">
        <g id="Group" transform="translate(0.000000, -0.000000)">
            <g id="Combined-Shape-2-Copy-3" transform="translate(0.000000, 90.483817)" fill="url(#linearGradient-1)">
                <path d="M261.85636,7.95803891 C267.367291,7.95803891 271.831667,10.5031644 274.489086,14.7592683 L267.32662,20.4991848 L267.319357,20.4854391 C266.226322,18.571169 264.603836,17.2363888 261.85636,17.4035076 C259.030447,17.5764141 256.94678,20.0839198 256.871974,22.7722901 L256.869796,22.9140879 L256.869796,28.9484517 L266.318558,28.9484517 L266.318558,39.4436581 L256.869796,39.4436581 L256.869796,57.2855814 L246.370848,57.2855814 L246.370848,39.4436581 L241.121374,39.4436581 L241.121374,28.9484517 L246.370848,28.9484517 L246.370848,21.6017349 L246.425318,21.6017349 C247.091307,13.6661232 253.745386,7.95803891 261.85636,7.95803891 M0,57.1991624 L0,12.069548 L16.7977663,12.069548 C29.2638085,12.069548 39.3697647,22.1722845 39.3697647,34.6343552 C39.3697647,47.0964259 29.2638085,57.1991624 16.7977663,57.1991624 L0,57.1991624 Z M10.4986039,47.7534291 L16.2728361,47.7534291 C23.1609701,47.7534291 28.7583008,42.2271504 28.869586,35.367449 L28.8711607,35.1591181 C28.8711607,28.2731786 23.3431209,22.6776312 16.4812333,22.5663815 L16.2728361,22.5648072 L10.4986039,22.5648072 L10.4986039,47.7534291 Z M179.032284,22.5648072 C182.555504,22.5648072 185.705677,23.327008 188.482804,24.8514097 C191.25993,26.3758113 193.436037,28.4906502 195.011124,31.1959264 C196.58621,33.9012026 197.373753,36.9714764 197.373753,40.4067477 C197.373753,43.8420191 196.58621,46.9122928 195.011124,49.617569 C193.436037,52.3228452 191.25993,54.4376841 188.482804,55.9620858 C185.705677,57.4864874 182.555504,58.2486883 179.032284,58.2486883 C175.509064,58.2486883 172.348528,57.4864874 169.550677,55.9620858 C166.752825,54.4376841 164.566356,52.3228452 162.99127,49.617569 C161.416183,46.9122928 160.62864,43.8420191 160.62864,40.4067477 C160.62864,36.9714764 161.416183,33.9012026 162.99127,31.1959264 C164.566356,28.4906502 166.752825,26.3758113 169.550677,24.8514097 C172.348528,23.327008 175.509064,22.5648072 179.032284,22.5648072 Z M179.014041,32.5871318 C177.558339,32.5871318 176.252489,32.9211828 175.096491,33.5892847 C173.940492,34.2573867 173.037101,35.1842606 172.386317,36.3699063 C171.735532,37.555552 171.41014,38.9011658 171.41014,40.4067477 C171.41014,41.9123296 171.735532,43.2579434 172.386317,44.4435892 C173.037101,45.6292349 173.940492,46.5561087 175.096491,47.2242107 C176.252489,47.8923127 177.558339,48.2263636 179.014041,48.2263636 C180.469743,48.2263636 181.771311,47.8923127 182.918747,47.2242107 C184.066182,46.5561087 184.965292,45.6292349 185.616077,44.4435892 C186.266861,43.2579434 186.592253,41.9123296 186.592253,40.4067477 C186.592253,38.9011658 186.266861,37.555552 185.616077,36.3699063 C184.965292,35.1842606 184.066182,34.2573867 182.918747,33.5892847 C181.771311,32.9211828 180.469743,32.5871318 179.014041,32.5871318 Z M106.068445,24.8511994 C108.845851,26.3756358 111.021686,28.4904305 112.597002,31.1961083 C113.912477,33.4552128 114.67835,35.9688274 114.895146,38.736952 C114.938191,39.283755 114.959713,39.8405285 114.959713,40.4067477 L114.959713,47.2470329 L114.959713,57.7239253 L105.510969,57.7239253 L105.510969,55.2061126 C102.417203,57.2344964 99.4529219,58.2486883 96.6181268,58.2486883 C92.3659342,58.2486883 89.9341907,57.4867325 87.1363127,55.9622961 C84.3384348,54.4378597 82.1521005,52.323065 80.5773099,49.6173871 C79.0019944,46.9122341 78.2145991,43.841846 78.2145991,40.4067477 C78.2145991,36.9716494 79.0019944,33.9012613 80.5773099,31.1961083 C82.1521005,28.4904305 84.3384348,26.3756358 87.1363127,24.8511994 C89.9341907,23.326763 93.0947954,22.5648072 96.6181268,22.5648072 C100.141458,22.5648072 103.291564,23.326763 106.068445,24.8511994 Z M96.5997543,32.5872549 C95.1441229,32.5872549 93.8380965,32.9210041 92.6822002,33.5890274 C91.5263039,34.2575754 90.6228991,35.1843068 89.9719856,36.3697463 C89.3215971,37.5557106 88.9961404,38.9012028 88.9961404,40.4067477 C88.9961404,41.9122926 89.3215971,43.2577849 89.9719856,44.4437492 C90.6228991,45.6291887 91.5263039,46.5559201 92.6822002,47.2244681 C93.8380965,47.8924913 95.1441229,48.2262405 96.5997543,48.2262405 C98.0553857,48.2262405 99.3572126,47.8924913 100.50471,47.2244681 C101.652207,46.5559201 102.550888,45.6291887 103.201801,44.4437492 C103.852715,43.2577849 104.178172,41.9122926 104.178172,40.4067477 C104.178172,38.9012028 103.852715,37.5557106 103.201801,36.3697463 C102.550888,35.1843068 101.652207,34.2575754 100.50471,33.5890274 C99.3572126,32.9210041 98.0553857,32.5872549 96.5997543,32.5872549 M144.671287,44.4435917 C144.020373,45.6290312 143.121168,46.5562874 141.974195,47.2243106 C140.826698,47.8923339 139.524871,48.2266079 138.06924,48.2266079 C136.613608,48.2266079 135.307582,47.8923339 134.151686,47.2243106 C132.995789,46.5562874 132.092385,45.6290312 131.441471,44.4435917 C130.790558,43.2581522 130.465101,41.9121352 130.465101,40.4065903 C130.465101,38.9010454 130.790558,37.5555531 131.441471,36.3701136 C132.092385,35.1841493 132.995789,34.257418 134.151686,33.5893947 C135.307582,32.9213715 136.613608,32.5870975 138.06924,32.5870975 C139.524871,32.5870975 140.826698,32.9213715 141.974195,33.5893947 C143.121168,34.257418 144.020373,35.1841493 144.671287,36.3701136 C145.3222,37.5555531 145.647657,38.9010454 145.647657,40.4065903 C145.647657,41.9121352 145.3222,43.2581522 144.671287,44.4435917 M156.429198,40.4065903 C156.429198,36.971492 155.641278,33.9011039 154.066487,31.1959509 C152.491172,28.4907978 150.315336,26.3760031 147.537931,24.8515667 C144.76105,23.3271303 141.610944,22.5646497 138.087612,22.5646497 C134.564281,22.5646497 131.403676,23.3271303 128.605798,24.8515667 C125.80792,26.3760031 123.621586,28.4907978 122.04627,31.1959509 C120.47148,33.9011039 119.684085,36.971492 119.684085,40.4065903 C119.684085,43.8422134 120.47148,46.9120767 122.04627,49.6177545 C123.621586,52.3229075 125.80792,54.4377022 128.605798,55.9621386 C131.403676,57.486575 134.564281,58.2485308 138.087612,58.2485308 C140.933784,58.2485308 143.531663,57.7426594 145.891225,56.7477088 L145.891225,57.9861494 L145.88965,58.1514497 C145.801462,62.2776608 142.42826,65.5952122 138.279737,65.5952122 C135.302858,65.5952122 132.72545,63.8871088 131.474542,61.3976334 L120.865178,61.3976334 C123.031039,68.9715371 130.007887,74.5161825 138.279737,74.5161825 C148.281757,74.5161825 156.389828,66.4106939 156.389828,56.4118605 L156.389828,41.7053786 C156.41555,41.2782216 156.429198,40.8458169 156.429198,40.4065903 M307.139807,23.0895701 L307.139807,42.768181 C307.139807,45.4738588 309.442676,47.676289 312.313519,47.7513301 L312.464699,47.7534291 C315.405883,47.7534291 317.789591,45.5216123 317.789591,42.768181 L317.789591,23.0895701 L329,23.0895701 L329,40.2603389 L328.96063,54.837729 C328.96063,64.8365624 320.852558,72.9420511 310.850538,72.9420511 C302.578688,72.9420511 295.601841,67.3974057 293.435979,59.8235019 L304.045343,59.8235019 C305.296252,62.3129774 307.873659,64.0210808 310.850538,64.0210808 C314.782791,64.0210808 318.018985,61.0399024 318.420032,57.2149052 C316.572278,57.8824037 314.56442,58.2486883 312.464699,58.2486883 C303.333013,58.2486883 295.929398,51.3176191 295.929398,42.768181 L295.929398,23.0895701 L307.139807,23.0895701 Z M219.158357,22.0400442 C228.290327,22.0400442 235.693658,28.9711134 235.693658,37.5205515 L235.693658,57.1991624 L224.483284,57.1991624 L224.483284,37.5205515 C224.483284,34.8148736 222.180673,32.6124435 219.309697,32.5374024 L219.158357,32.5353034 C216.217315,32.5353034 213.833429,34.7671202 213.833429,37.5205515 L213.833429,57.1991624 L202.623055,57.1991624 L202.623055,37.5205515 C202.623055,28.9711134 210.026386,22.0400442 219.158357,22.0400442 M277.434834,0 L287.965738,0 L287.965738,57.1991624 L277.434834,57.1991624 L277.434834,0 Z M59.5795772,22.0400442 C68.1317399,22.0400442 75.0650179,28.9711134 75.0650179,37.5205515 L75.0650179,38.3076959 L64.566414,38.3076959 L64.566414,37.5205515 C64.566414,34.8148736 62.4100008,32.6124435 59.7213083,32.5374024 L59.5795772,32.5353034 C56.8730371,32.5353034 54.6699051,34.6910296 54.59484,37.3788655 L54.5927403,37.5205515 L54.5927403,57.1991624 L44.0941364,57.1991624 L44.0941364,37.5205515 C44.0941364,28.9711134 51.0274144,22.0400442 59.5795772,22.0400442" id="Combined-Shape"></path>
            </g>
            <g id="Group-2-Copy-9" transform="translate(122.447486, 0.000000)" fill="url(#linearGradient-2)">
                <path d="M33.7119766,52.8841952 L40.0537942,73.2899324 C38.9059507,73.4006856 37.7997864,73.4585294 36.7353013,73.4634637 L36.7353013,73.4634637 L30.4162775,53.1281942 L33.7119766,52.8841952 Z M26.0750172,53.4489187 L32.1888622,73.1223437 C31.3452868,72.9828112 30.5353976,72.800516 29.7591946,72.5754581 L29.7591946,72.5754581 L23.8659511,53.6130119 L26.0750172,53.4489187 Z M35.237107,16.1078879 L40.811107,19.2558879 L44.991,52.049 L46.685,51.923 L42.653107,20.2958879 L49.148107,23.9628879 L52.657,51.481 L53.504,51.419 L50.068107,24.4828879 L85.6596056,44.5815028 L85.8776968,44.7095526 C89.2474942,46.7654728 90.403574,51.1394048 88.4477541,54.6029963 L88.4477541,54.6029963 L88.4357031,54.6246875 C88.088316,55.9268263 87.1450009,57.0257142 85.8418062,57.5441459 L85.8418062,57.5441459 L62.9856494,66.6357929 L59.646,55.893 L58.727,55.791 L62.195172,66.9498288 L59.5432831,68.0061183 L59.5096616,68.0195531 L59.5096616,68.0195531 L59.47605,68.0330125 C58.5051903,68.4211634 57.5507208,68.7885079 56.6126416,69.1350458 L56.6126416,69.1350458 L52.241,55.07 L50.401,54.865 L55.0158523,69.7103821 C53.6124496,70.203002 52.2472451,70.6471313 50.920239,71.04277 L50.1286191,71.2743344 L44.7579641,53.9951058 C43.7840782,53.7800856 42.817709,53.5308744 41.8606704,53.2478103 L47.6701337,71.9338763 C46.2168062,72.2957532 44.8140491,72.5934337 43.4618627,72.8269178 L43.4618627,72.8269178 L37.1851123,52.627187 L39.866,52.429 L35.237107,16.1078879 Z M18.6577247,53.9982638 L23.5475714,69.7342412 C22.7769495,69.2739367 22.0167044,68.7797954 21.2668362,68.2518173 L21.2668362,68.2518173 L16.8786079,54.1302087 L18.6577247,53.9982638 Z M10.860101,54.7690164 L12.460703,59.9224019 C11.7536391,59.0604656 11.0583533,58.1601234 10.3748456,57.2213754 C9.82111913,56.4589271 9.99062718,55.3920052 10.753234,54.8384971 L10.753234,54.8384971 L10.860101,54.7690164 Z M27.821107,11.9208879 L32.473107,14.5468879 L37.2064223,51.6708506 C35.6350941,51.0887577 34.1178715,50.4765892 32.6547545,49.8343454 L32.6547545,49.8343454 L27.821107,11.9208879 Z M20.638107,7.86388794 L24.136107,9.83988794 L29.0158258,48.1186576 C27.8114427,47.5089917 26.6488456,46.8760984 25.5280345,46.2199777 L25.5280345,46.2199777 L20.638107,7.86388794 Z M13.687107,3.93888794 L16.031107,5.26288794 L20.8660326,43.1830857 C20.0323797,42.5782409 19.2278698,41.9571966 18.452503,41.3199526 L18.452503,41.3199526 L13.687107,3.93888794 Z M6.30268546,-0.000540213357 C6.76663078,0.10986641 7.21593553,0.285384274 7.63664687,0.523520921 L7.63664687,0.523520921 L8.15910702,0.81788794 L12.5858258,35.5395947 C11.842488,34.6530155 11.1422953,33.7424534 10.4852476,32.8079084 L10.4852476,32.8079084 Z M0.636637486,2.50712443 L2.33810718,15.8531978 C1.36397491,12.6457935 0.604716604,9.28024832 0.0603322608,5.75656231 C-0.118598023,4.59401655 0.108797034,3.46277673 0.636637486,2.50712443 L0.636637486,2.50712443 Z" id="Combined-Shape"></path>
            </g>
        </g>
    </g>
</svg>