<svg version="1.1" viewBox="0.0 0.0 1187.0 734.0" fill="none" stroke="none" stroke-linecap="square" stroke-miterlimit="10" width="1187" height="734" xmlns:xlink="http://www.w3.org/1999/xlink" xmlns="http://www.w3.org/2000/svg"><path fill="#ffffff" d="M0 0L1187.0 0L1187.0 734.0L0 734.0L0 0Z" fill-rule="nonzero"/><path stroke="#cccccc" stroke-width="1.0" stroke-linecap="butt" d="M261.5 130.5L261.5 645.5" fill-rule="nonzero"/><path stroke="#cccccc" stroke-width="1.0" stroke-linecap="butt" d="M539.5 130.5L539.5 645.5" fill-rule="nonzero"/><path stroke="#cccccc" stroke-width="1.0" stroke-linecap="butt" d="M816.5 130.5L816.5 645.5" fill-rule="nonzero"/><path stroke="#cccccc" stroke-width="1.0" stroke-linecap="butt" d="M1094.5 130.5L1094.5 645.5" fill-rule="nonzero"/><path stroke="#333333" stroke-width="1.0" stroke-linecap="butt" d="M94.5 645.5L1150.5 645.5" fill-rule="nonzero"/><path stroke="#cccccc" stroke-width="1.0" stroke-linecap="butt" d="M94.5 571.5L1150.5 571.5" fill-rule="nonzero"/><path stroke="#cccccc" stroke-width="1.0" stroke-linecap="butt" d="M94.5 498.5L1150.5 498.5" fill-rule="nonzero"/><path stroke="#cccccc" stroke-width="1.0" stroke-linecap="butt" d="M94.5 424.5L1150.5 424.5" fill-rule="nonzero"/><path stroke="#cccccc" stroke-width="1.0" stroke-linecap="butt" d="M94.5 351.5L1150.5 351.5" fill-rule="nonzero"/><path stroke="#cccccc" stroke-width="1.0" stroke-linecap="butt" d="M94.5 277.5L1150.5 277.5" fill-rule="nonzero"/><path stroke="#cccccc" stroke-width="1.0" stroke-linecap="butt" d="M94.5 204.5L1150.5 204.5" fill-rule="nonzero"/><path stroke="#cccccc" stroke-width="1.0" stroke-linecap="butt" d="M94.5 130.5L1150.5 130.5" fill-rule="nonzero"/><path stroke="#e6e6e6" stroke-width="1.0" stroke-linecap="butt" d="M94.5 608.5L1150.5 608.5" fill-rule="nonzero"/><path stroke="#e6e6e6" stroke-width="1.0" stroke-linecap="butt" d="M94.5 535.5L1150.5 535.5" fill-rule="nonzero"/><path stroke="#e6e6e6" stroke-width="1.0" stroke-linecap="butt" d="M94.5 461.5L1150.5 461.5" fill-rule="nonzero"/><path stroke="#e6e6e6" stroke-width="1.0" stroke-linecap="butt" d="M94.5 387.5L1150.5 387.5" fill-rule="nonzero"/><path stroke="#e6e6e6" stroke-width="1.0" stroke-linecap="butt" d="M94.5 314.5L1150.5 314.5" fill-rule="nonzero"/><path stroke="#e6e6e6" stroke-width="1.0" stroke-linecap="butt" d="M94.5 240.5L1150.5 240.5" fill-rule="nonzero"/><path stroke="#e6e6e6" stroke-width="1.0" stroke-linecap="butt" d="M94.5 167.5L1150.5 167.5" fill-rule="nonzero"/><clipPath id="id_0"><path d="M94.7 130.63333L1150.3 130.63333L1150.3 645.3L94.7 645.3L94.7 130.63333Z" clip-rule="nonzero"/></clipPath><path stroke="#4285f4" stroke-width="2.0" stroke-linecap="butt" clip-path="url(#id_0)" d="M94.7 471.10257C94.7 471.10257 113.2193 471.09943 122.47895 471.09863C131.7386 471.09787 140.99825 471.09875 150.25789 471.0979C159.51755 471.09705 168.77719 471.09427 178.03683 471.09354C187.2965 471.09277 196.55614 471.09332 205.8158 471.09338C215.07544 471.0934 224.33508 471.09207 233.59474 471.09384C242.85439 471.09558 252.11403 471.10385 261.3737 471.1039C270.63333 471.104 279.89297 471.1055 289.15262 471.09427C298.4123 471.08307 307.67194 471.04572 316.93158 471.03662C326.19122 471.0275 335.45087 471.03882 344.71054 471.0396C353.97018 471.04044 363.22983 471.04114 372.48947 471.04144C381.7491 471.04172 391.00876 471.04474 400.26843 471.04144C409.52808 471.03812 418.78772 471.02264 428.04736 471.02155C437.307 471.02048 446.56668 471.03268 455.82632 471.03494C465.08597 471.0372 474.3456 471.03522 483.60526 471.0351C492.8649 471.03497 502.12457 471.0344 511.38422 471.0342C520.64386 471.034 529.9035 471.0341 539.16315 471.0339C548.4228 471.0337 557.68243 471.08148 566.9421 471.033C576.2018 470.9845 585.4614 470.80435 594.72107 470.74298C603.9807 470.6816 613.24036 470.6771 622.5 470.66483C631.75964 470.65256 641.0193 470.66928 650.27893 470.66934C659.5386 470.66943 668.7982 470.66446 678.0579 470.66528C687.31757 470.6661 696.5772 470.6743 705.83685 470.67432C715.0965 470.67438 724.35614 470.66528 733.6158 470.6656C742.8754 470.6659 752.1351 470.675 761.3947 470.67612C770.65436 470.67725 779.91406 470.67447 789.1737 470.67236C798.43335 470.67026 816.95264 470.66348 816.95264 470.66348" fill-rule="nonzero"/><path stroke="#ea4335" stroke-width="2.0" stroke-linecap="butt" clip-path="url(#id_0)" d="M94.7 394.58682C94.7 394.58682 113.2193 394.5868 122.47895 394.58682C131.7386 394.58685 140.99825 394.5911 150.25789 394.58698C159.51755 394.58286 168.77719 394.5666 178.03683 394.56213C187.2965 394.5577 196.55614 394.56143 205.8158 394.56033C215.07544 394.55923 224.33508 394.55637 233.59474 394.5555C242.85439 394.55466 252.11403 394.5547 261.3737 394.5552C270.63333 394.55573 279.89297 394.5581 289.15262 394.5587C298.4123 394.55923 307.67194 394.55856 316.93158 394.55853C326.19122 394.55847 335.45087 394.55838 344.71054 394.55838C353.97018 394.55838 363.22983 398.2902 372.48947 394.55853C381.7491 390.82684 391.00876 379.03934 400.26843 372.16837C409.52808 365.2974 418.78772 359.2833 428.04736 353.3327C437.307 347.3821 446.56668 342.10892 455.82632 336.4648C465.08597 330.82068 474.3456 324.99182 483.60526 319.468C492.8649 313.94415 502.12457 308.43558 511.38422 303.3218C520.64386 298.20804 529.9035 293.51294 539.16315 288.78543C548.4228 284.05792 557.68243 279.02914 566.9421 274.95676C576.2018 270.88437 585.4614 267.87918 594.72107 264.35104C603.9807 260.8229 613.24036 257.24588 622.5 253.78792C631.75964 250.32996 641.0193 246.9462 650.27893 243.60321C659.5386 240.26022 668.7982 236.90187 678.0579 233.73004C687.31757 230.55821 696.5772 227.45323 705.83685 224.57227C715.0965 221.6913 724.35614 219.06833 733.6158 216.44427C742.8754 213.82024 752.1351 211.24924 761.3947 208.82796C770.65436 206.40668 779.91406 204.11787 789.1737 201.91664C798.43335 199.71541 807.693 197.57112 816.95264 195.62057C826.2123 193.67003 835.4719 191.98642 844.73157 190.21336C853.9912 188.44029 863.25085 186.62798 872.5105 184.98218C881.7702 183.33636 891.02985 181.77782 900.2895 180.33853C909.54913 178.89925 918.8088 177.57585 928.0684 176.34644C937.32806 175.11703 946.5877 174.1123 955.84735 172.96208C965.107 171.81184 974.36664 170.52632 983.62634 169.44505C992.886 168.36378 1002.1456 167.46434 1011.4053 166.47449C1020.6649 165.48462 1029.9246 164.464 1039.1842 163.50586C1048.4438 162.54771 1057.7035 129.44278 1066.9631 160.72562C1076.2228 192.00844 1085.4824 313.62637 1094.7421 351.2028C1104.0017 388.77924 1113.2614 380.3541 1122.521 386.1842C1131.7808 392.0143 1150.3 386.18344 1150.3 386.18344" fill-rule="nonzero"/><path fill="#000000" fill-opacity="0.0" clip-path="url(#id_0)" d="M97.7 471.10257C97.7 472.75943 96.35686 474.10257 94.7 474.10257C93.043144 474.10257 91.7 472.75943 91.7 471.10257C91.7 469.4457 93.043144 468.10257 94.7 468.10257C96.35686 468.10257 97.7 469.4457 97.7 471.10257Z" fill-rule="nonzero"/><path fill="#000000" fill-opacity="0.0" clip-path="url(#id_0)" d="M125.47895 471.09863C125.47895 472.7555 124.1358 474.09863 122.47895 474.09863C120.82209 474.09863 119.47895 472.7555 119.47895 471.09863C119.47895 469.4418 120.82209 468.09863 122.47895 468.09863C124.1358 468.09863 125.47895 469.4418 125.47895 471.09863Z" fill-rule="nonzero"/><path fill="#000000" fill-opacity="0.0" clip-path="url(#id_0)" d="M153.25789 471.0979C153.25789 472.75476 151.91475 474.0979 150.25789 474.0979C148.60104 474.0979 147.25789 472.75476 147.25789 471.0979C147.25789 469.44104 148.60104 468.0979 150.25789 468.0979C151.91475 468.0979 153.25789 469.44104 153.25789 471.0979Z" fill-rule="nonzero"/><path fill="#000000" fill-opacity="0.0" clip-path="url(#id_0)" d="M181.03683 471.09354C181.03683 472.7504 179.6937 474.09354 178.03683 474.09354C176.37999 474.09354 175.03683 472.7504 175.03683 471.09354C175.03683 469.43668 176.37999 468.09354 178.03683 468.09354C179.6937 468.09354 181.03683 469.43668 181.03683 471.09354Z" fill-rule="nonzero"/><path fill="#000000" fill-opacity="0.0" clip-path="url(#id_0)" d="M208.8158 471.09338C208.8158 472.75024 207.47264 474.09338 205.8158 474.09338C204.15894 474.09338 202.8158 472.75024 202.8158 471.09338C202.8158 469.43652 204.15894 468.09338 205.8158 468.09338C207.47264 468.09338 208.8158 469.43652 208.8158 471.09338Z" fill-rule="nonzero"/><path fill="#000000" fill-opacity="0.0" clip-path="url(#id_0)" d="M236.59474 471.09384C236.59474 472.75067 235.25159 474.09384 233.59474 474.09384C231.93788 474.09384 230.59474 472.75067 230.59474 471.09384C230.59474 469.43698 231.93788 468.09384 233.59474 468.09384C235.25159 468.09384 236.59474 469.43698 236.59474 471.09384Z" fill-rule="nonzero"/><path fill="#000000" fill-opacity="0.0" clip-path="url(#id_0)" d="M264.3737 471.1039C264.3737 472.76077 263.03055 474.1039 261.3737 474.1039C259.71683 474.1039 258.3737 472.76077 258.3737 471.1039C258.3737 469.44705 259.71683 468.1039 261.3737 468.1039C263.03055 468.1039 264.3737 469.44705 264.3737 471.1039Z" fill-rule="nonzero"/><path fill="#000000" fill-opacity="0.0" clip-path="url(#id_0)" d="M292.15262 471.09427C292.15262 472.75113 290.80948 474.09427 289.15262 474.09427C287.4958 474.09427 286.15262 472.75113 286.15262 471.09427C286.15262 469.43744 287.4958 468.09427 289.15262 468.09427C290.80948 468.09427 292.15262 469.43744 292.15262 471.09427Z" fill-rule="nonzero"/><path fill="#000000" fill-opacity="0.0" clip-path="url(#id_0)" d="M319.93158 471.03662C319.93158 472.69345 318.58844 474.03662 316.93158 474.03662C315.27472 474.03662 313.93158 472.69345 313.93158 471.03662C313.93158 469.37976 315.27472 468.03662 316.93158 468.03662C318.58844 468.03662 319.93158 469.37976 319.93158 471.03662Z" fill-rule="nonzero"/><path fill="#000000" fill-opacity="0.0" clip-path="url(#id_0)" d="M347.71054 471.0396C347.71054 472.69647 346.36737 474.0396 344.71054 474.0396C343.05368 474.0396 341.71054 472.69647 341.71054 471.0396C341.71054 469.38278 343.05368 468.0396 344.71054 468.0396C346.36737 468.0396 347.71054 469.38278 347.71054 471.0396Z" fill-rule="nonzero"/><path fill="#000000" fill-opacity="0.0" clip-path="url(#id_0)" d="M375.48947 471.04144C375.48947 472.69827 374.14633 474.04144 372.48947 474.04144C370.8326 474.04144 369.48947 472.69827 369.48947 471.04144C369.48947 469.38458 370.8326 468.04144 372.48947 468.04144C374.14633 468.04144 375.48947 469.38458 375.48947 471.04144Z" fill-rule="nonzero"/><path fill="#000000" fill-opacity="0.0" clip-path="url(#id_0)" d="M403.26843 471.04144C403.26843 472.69827 401.92526 474.04144 400.26843 474.04144C398.61157 474.04144 397.26843 472.69827 397.26843 471.04144C397.26843 469.38458 398.61157 468.04144 400.26843 468.04144C401.92526 468.04144 403.26843 469.38458 403.26843 471.04144Z" fill-rule="nonzero"/><path fill="#000000" fill-opacity="0.0" clip-path="url(#id_0)" d="M431.04736 471.02155C431.04736 472.6784 429.70422 474.02155 428.04736 474.02155C426.3905 474.02155 425.04736 472.6784 425.04736 471.02155C425.04736 469.3647 426.3905 468.02155 428.04736 468.02155C429.70422 468.02155 431.04736 469.3647 431.04736 471.02155Z" fill-rule="nonzero"/><path fill="#000000" fill-opacity="0.0" clip-path="url(#id_0)" d="M458.82632 471.03494C458.82632 472.6918 457.4832 474.03494 455.82632 474.03494C454.16946 474.03494 452.82632 472.6918 452.82632 471.03494C452.82632 469.3781 454.16946 468.03494 455.82632 468.03494C457.4832 468.03494 458.82632 469.3781 458.82632 471.03494Z" fill-rule="nonzero"/><path fill="#000000" fill-opacity="0.0" clip-path="url(#id_0)" d="M486.60526 471.0351C486.60526 472.69196 485.26212 474.0351 483.60526 474.0351C481.9484 474.0351 480.60526 472.69196 480.60526 471.0351C480.60526 469.37823 481.9484 468.0351 483.60526 468.0351C485.26212 468.0351 486.60526 469.37823 486.60526 471.0351Z" fill-rule="nonzero"/><path fill="#000000" fill-opacity="0.0" clip-path="url(#id_0)" d="M514.3842 471.0342C514.3842 472.69104 513.0411 474.0342 511.38422 474.0342C509.72736 474.0342 508.38422 472.69104 508.38422 471.0342C508.38422 469.37735 509.72736 468.0342 511.38422 468.0342C513.0411 468.0342 514.3842 469.37735 514.3842 471.0342Z" fill-rule="nonzero"/><path fill="#000000" fill-opacity="0.0" clip-path="url(#id_0)" d="M542.16315 471.0339C542.16315 472.69077 540.82 474.0339 539.16315 474.0339C537.5063 474.0339 536.16315 472.69077 536.16315 471.0339C536.16315 469.37704 537.5063 468.0339 539.16315 468.0339C540.82 468.0339 542.16315 469.37704 542.16315 471.0339Z" fill-rule="nonzero"/><path fill="#000000" fill-opacity="0.0" clip-path="url(#id_0)" d="M569.9421 471.033C569.9421 472.68985 568.59894 474.033 566.9421 474.033C565.2853 474.033 563.9421 472.68985 563.9421 471.033C563.9421 469.37613 565.2853 468.033 566.9421 468.033C568.59894 468.033 569.9421 469.37613 569.9421 471.033Z" fill-rule="nonzero"/><path fill="#000000" fill-opacity="0.0" clip-path="url(#id_0)" d="M597.72107 470.74298C597.72107 472.39984 596.3779 473.74298 594.72107 473.74298C593.0642 473.74298 591.72107 472.39984 591.72107 470.74298C591.72107 469.08612 593.0642 467.74298 594.72107 467.74298C596.3779 467.74298 597.72107 469.08612 597.72107 470.74298Z" fill-rule="nonzero"/><path fill="#000000" fill-opacity="0.0" clip-path="url(#id_0)" d="M625.5 470.66483C625.5 472.3217 624.15686 473.66483 622.5 473.66483C620.84314 473.66483 619.5 472.3217 619.5 470.66483C619.5 469.008 620.84314 467.66483 622.5 467.66483C624.15686 467.66483 625.5 469.008 625.5 470.66483Z" fill-rule="nonzero"/><path fill="#000000" fill-opacity="0.0" clip-path="url(#id_0)" d="M653.27893 470.66934C653.27893 472.3262 651.9358 473.66934 650.27893 473.66934C648.6221 473.66934 647.27893 472.3262 647.27893 470.66934C647.27893 469.0125 648.6221 467.66934 650.27893 467.66934C651.9358 467.66934 653.27893 469.0125 653.27893 470.66934Z" fill-rule="nonzero"/><path fill="#000000" fill-opacity="0.0" clip-path="url(#id_0)" d="M681.0579 470.66528C681.0579 472.32214 679.7147 473.66528 678.0579 473.66528C676.40106 473.66528 675.0579 472.32214 675.0579 470.66528C675.0579 469.00842 676.40106 467.66528 678.0579 467.66528C679.7147 467.66528 681.0579 469.00842 681.0579 470.66528Z" fill-rule="nonzero"/><path fill="#000000" fill-opacity="0.0" clip-path="url(#id_0)" d="M708.83685 470.67432C708.83685 472.33118 707.4937 473.67432 705.83685 473.67432C704.18 473.67432 702.83685 472.33118 702.83685 470.67432C702.83685 469.01746 704.18 467.67432 705.83685 467.67432C707.4937 467.67432 708.83685 469.01746 708.83685 470.67432Z" fill-rule="nonzero"/><path fill="#000000" fill-opacity="0.0" clip-path="url(#id_0)" d="M736.6158 470.6656C736.6158 472.32245 735.27264 473.6656 733.6158 473.6656C731.9589 473.6656 730.6158 472.32245 730.6158 470.6656C730.6158 469.00873 731.9589 467.6656 733.6158 467.6656C735.27264 467.6656 736.6158 469.00873 736.6158 470.6656Z" fill-rule="nonzero"/><path fill="#000000" fill-opacity="0.0" clip-path="url(#id_0)" d="M764.3947 470.67612C764.3947 472.33298 763.0516 473.67612 761.3947 473.67612C759.73785 473.67612 758.3947 472.33298 758.3947 470.67612C758.3947 469.0193 759.73785 467.67612 761.3947 467.67612C763.0516 467.67612 764.3947 469.0193 764.3947 470.67612Z" fill-rule="nonzero"/><path fill="#000000" fill-opacity="0.0" clip-path="url(#id_0)" d="M792.1737 470.67236C792.1737 472.32922 790.83057 473.67236 789.1737 473.67236C787.51685 473.67236 786.1737 472.32922 786.1737 470.67236C786.1737 469.0155 787.51685 467.67236 789.1737 467.67236C790.83057 467.67236 792.1737 469.0155 792.1737 470.67236Z" fill-rule="nonzero"/><path fill="#000000" fill-opacity="0.0" clip-path="url(#id_0)" d="M819.95264 470.66348C819.95264 472.32034 818.6095 473.66348 816.95264 473.66348C815.2958 473.66348 813.95264 472.32034 813.95264 470.66348C813.95264 469.00662 815.2958 467.66348 816.95264 467.66348C818.6095 467.66348 819.95264 469.00662 819.95264 470.66348Z" fill-rule="nonzero"/><path fill="#000000" fill-opacity="0.0" clip-path="url(#id_0)" d="M97.7 394.58682C97.7 396.24368 96.35686 397.58682 94.7 397.58682C93.043144 397.58682 91.7 396.24368 91.7 394.58682C91.7 392.92996 93.043144 391.58682 94.7 391.58682C96.35686 391.58682 97.7 392.92996 97.7 394.58682Z" fill-rule="nonzero"/><path fill="#000000" fill-opacity="0.0" clip-path="url(#id_0)" d="M125.47895 394.58682C125.47895 396.24368 124.1358 397.58682 122.47895 397.58682C120.82209 397.58682 119.47895 396.24368 119.47895 394.58682C119.47895 392.92996 120.82209 391.58682 122.47895 391.58682C124.1358 391.58682 125.47895 392.92996 125.47895 394.58682Z" fill-rule="nonzero"/><path fill="#000000" fill-opacity="0.0" clip-path="url(#id_0)" d="M153.25789 394.58698C153.25789 396.24384 151.91475 397.58698 150.25789 397.58698C148.60104 397.58698 147.25789 396.24384 147.25789 394.58698C147.25789 392.9301 148.60104 391.58698 150.25789 391.58698C151.91475 391.58698 153.25789 392.9301 153.25789 394.58698Z" fill-rule="nonzero"/><path fill="#000000" fill-opacity="0.0" clip-path="url(#id_0)" d="M181.03683 394.56213C181.03683 396.219 179.6937 397.56213 178.03683 397.56213C176.37999 397.56213 175.03683 396.219 175.03683 394.56213C175.03683 392.90527 176.37999 391.56213 178.03683 391.56213C179.6937 391.56213 181.03683 392.90527 181.03683 394.56213Z" fill-rule="nonzero"/><path fill="#000000" fill-opacity="0.0" clip-path="url(#id_0)" d="M208.8158 394.56033C208.8158 396.2172 207.47264 397.56033 205.8158 397.56033C204.15894 397.56033 202.8158 396.2172 202.8158 394.56033C202.8158 392.90347 204.15894 391.56033 205.8158 391.56033C207.47264 391.56033 208.8158 392.90347 208.8158 394.56033Z" fill-rule="nonzero"/><path fill="#000000" fill-opacity="0.0" clip-path="url(#id_0)" d="M236.59474 394.5555C236.59474 396.21237 235.25159 397.5555 233.59474 397.5555C231.93788 397.5555 230.59474 396.21237 230.59474 394.5555C230.59474 392.89865 231.93788 391.5555 233.59474 391.5555C235.25159 391.5555 236.59474 392.89865 236.59474 394.5555Z" fill-rule="nonzero"/><path fill="#000000" fill-opacity="0.0" clip-path="url(#id_0)" d="M264.3737 394.5552C264.3737 396.21207 263.03055 397.5552 261.3737 397.5552C259.71683 397.5552 258.3737 396.21207 258.3737 394.5552C258.3737 392.89835 259.71683 391.5552 261.3737 391.5552C263.03055 391.5552 264.3737 392.89835 264.3737 394.5552Z" fill-rule="nonzero"/><path fill="#000000" fill-opacity="0.0" clip-path="url(#id_0)" d="M292.15262 394.5587C292.15262 396.2155 290.80948 397.5587 289.15262 397.5587C287.4958 397.5587 286.15262 396.2155 286.15262 394.5587C286.15262 392.90182 287.4958 391.5587 289.15262 391.5587C290.80948 391.5587 292.15262 392.90182 292.15262 394.5587Z" fill-rule="nonzero"/><path fill="#000000" fill-opacity="0.0" clip-path="url(#id_0)" d="M319.93158 394.55853C319.93158 396.21536 318.58844 397.55853 316.93158 397.55853C315.27472 397.55853 313.93158 396.21536 313.93158 394.55853C313.93158 392.90167 315.27472 391.55853 316.93158 391.55853C318.58844 391.55853 319.93158 392.90167 319.93158 394.55853Z" fill-rule="nonzero"/><path fill="#000000" fill-opacity="0.0" clip-path="url(#id_0)" d="M347.71054 394.55838C347.71054 396.21524 346.36737 397.55838 344.71054 397.55838C343.05368 397.55838 341.71054 396.21524 341.71054 394.55838C341.71054 392.90152 343.05368 391.55838 344.71054 391.55838C346.36737 391.55838 347.71054 392.90152 347.71054 394.55838Z" fill-rule="nonzero"/><path fill="#000000" fill-opacity="0.0" clip-path="url(#id_0)" d="M375.48947 394.55853C375.48947 396.21536 374.14633 397.55853 372.48947 397.55853C370.8326 397.55853 369.48947 396.21536 369.48947 394.55853C369.48947 392.90167 370.8326 391.55853 372.48947 391.55853C374.14633 391.55853 375.48947 392.90167 375.48947 394.55853Z" fill-rule="nonzero"/><path fill="#000000" fill-opacity="0.0" clip-path="url(#id_0)" d="M403.26843 372.16837C403.26843 373.82523 401.92526 375.16837 400.26843 375.16837C398.61157 375.16837 397.26843 373.82523 397.26843 372.16837C397.26843 370.5115 398.61157 369.16837 400.26843 369.16837C401.92526 369.16837 403.26843 370.5115 403.26843 372.16837Z" fill-rule="nonzero"/><path fill="#000000" fill-opacity="0.0" clip-path="url(#id_0)" d="M431.04736 353.3327C431.04736 354.98956 429.70422 356.3327 428.04736 356.3327C426.3905 356.3327 425.04736 354.98956 425.04736 353.3327C425.04736 351.67587 426.3905 350.3327 428.04736 350.3327C429.70422 350.3327 431.04736 351.67587 431.04736 353.3327Z" fill-rule="nonzero"/><path fill="#000000" fill-opacity="0.0" clip-path="url(#id_0)" d="M458.82632 336.4648C458.82632 338.12164 457.4832 339.4648 455.82632 339.4648C454.16946 339.4648 452.82632 338.12164 452.82632 336.4648C452.82632 334.80795 454.16946 333.4648 455.82632 333.4648C457.4832 333.4648 458.82632 334.80795 458.82632 336.4648Z" fill-rule="nonzero"/><path fill="#000000" fill-opacity="0.0" clip-path="url(#id_0)" d="M486.60526 319.468C486.60526 321.12485 485.26212 322.468 483.60526 322.468C481.9484 322.468 480.60526 321.12485 480.60526 319.468C480.60526 317.81116 481.9484 316.468 483.60526 316.468C485.26212 316.468 486.60526 317.81116 486.60526 319.468Z" fill-rule="nonzero"/><path fill="#000000" fill-opacity="0.0" clip-path="url(#id_0)" d="M514.3842 303.3218C514.3842 304.97867 513.0411 306.3218 511.38422 306.3218C509.72736 306.3218 508.38422 304.97867 508.38422 303.3218C508.38422 301.66495 509.72736 300.3218 511.38422 300.3218C513.0411 300.3218 514.3842 301.66495 514.3842 303.3218Z" fill-rule="nonzero"/><path fill="#000000" fill-opacity="0.0" clip-path="url(#id_0)" d="M542.16315 288.78543C542.16315 290.4423 540.82 291.78543 539.16315 291.78543C537.5063 291.78543 536.16315 290.4423 536.16315 288.78543C536.16315 287.12857 537.5063 285.78543 539.16315 285.78543C540.82 285.78543 542.16315 287.12857 542.16315 288.78543Z" fill-rule="nonzero"/><path fill="#000000" fill-opacity="0.0" clip-path="url(#id_0)" d="M569.9421 274.95676C569.9421 276.61362 568.59894 277.95676 566.9421 277.95676C565.2853 277.95676 563.9421 276.61362 563.9421 274.95676C563.9421 273.2999 565.2853 271.95676 566.9421 271.95676C568.59894 271.95676 569.9421 273.2999 569.9421 274.95676Z" fill-rule="nonzero"/><path fill="#000000" fill-opacity="0.0" clip-path="url(#id_0)" d="M597.72107 264.35104C597.72107 266.00787 596.3779 267.35104 594.72107 267.35104C593.0642 267.35104 591.72107 266.00787 591.72107 264.35104C591.72107 262.69418 593.0642 261.35104 594.72107 261.35104C596.3779 261.35104 597.72107 262.69418 597.72107 264.35104Z" fill-rule="nonzero"/><path fill="#000000" fill-opacity="0.0" clip-path="url(#id_0)" d="M625.5 253.78792C625.5 255.44478 624.15686 256.78793 622.5 256.78793C620.84314 256.78793 619.5 255.44478 619.5 253.78792C619.5 252.13107 620.84314 250.78792 622.5 250.78792C624.15686 250.78792 625.5 252.13107 625.5 253.78792Z" fill-rule="nonzero"/><path fill="#000000" fill-opacity="0.0" clip-path="url(#id_0)" d="M653.27893 243.60321C653.27893 245.26007 651.9358 246.60321 650.27893 246.60321C648.6221 246.60321 647.27893 245.26007 647.27893 243.60321C647.27893 241.94635 648.6221 240.60321 650.27893 240.60321C651.9358 240.60321 653.27893 241.94635 653.27893 243.60321Z" fill-rule="nonzero"/><path fill="#000000" fill-opacity="0.0" clip-path="url(#id_0)" d="M681.0579 233.73004C681.0579 235.3869 679.7147 236.73004 678.0579 236.73004C676.40106 236.73004 675.0579 235.3869 675.0579 233.73004C675.0579 232.07318 676.40106 230.73004 678.0579 230.73004C679.7147 230.73004 681.0579 232.07318 681.0579 233.73004Z" fill-rule="nonzero"/><path fill="#000000" fill-opacity="0.0" clip-path="url(#id_0)" d="M708.83685 224.57227C708.83685 226.22913 707.4937 227.57227 705.83685 227.57227C704.18 227.57227 702.83685 226.22913 702.83685 224.57227C702.83685 222.9154 704.18 221.57227 705.83685 221.57227C707.4937 221.57227 708.83685 222.9154 708.83685 224.57227Z" fill-rule="nonzero"/><path fill="#000000" fill-opacity="0.0" clip-path="url(#id_0)" d="M736.6158 216.44427C736.6158 218.10114 735.27264 219.44427 733.6158 219.44427C731.9589 219.44427 730.6158 218.10114 730.6158 216.44427C730.6158 214.78743 731.9589 213.44427 733.6158 213.44427C735.27264 213.44427 736.6158 214.78743 736.6158 216.44427Z" fill-rule="nonzero"/><path fill="#000000" fill-opacity="0.0" clip-path="url(#id_0)" d="M764.3947 208.82796C764.3947 210.48482 763.0516 211.82796 761.3947 211.82796C759.73785 211.82796 758.3947 210.48482 758.3947 208.82796C758.3947 207.17111 759.73785 205.82796 761.3947 205.82796C763.0516 205.82796 764.3947 207.17111 764.3947 208.82796Z" fill-rule="nonzero"/><path fill="#000000" fill-opacity="0.0" clip-path="url(#id_0)" d="M792.1737 201.91664C792.1737 203.57349 790.83057 204.91664 789.1737 204.91664C787.51685 204.91664 786.1737 203.57349 786.1737 201.91664C786.1737 200.25978 787.51685 198.91664 789.1737 198.91664C790.83057 198.91664 792.1737 200.25978 792.1737 201.91664Z" fill-rule="nonzero"/><path fill="#000000" fill-opacity="0.0" clip-path="url(#id_0)" d="M819.95264 195.62057C819.95264 197.27742 818.6095 198.62057 816.95264 198.62057C815.2958 198.62057 813.95264 197.27742 813.95264 195.62057C813.95264 193.96371 815.2958 192.62057 816.95264 192.62057C818.6095 192.62057 819.95264 193.96371 819.95264 195.62057Z" fill-rule="nonzero"/><path fill="#000000" fill-opacity="0.0" clip-path="url(#id_0)" d="M847.73157 190.21336C847.73157 191.87021 846.3884 193.21336 844.73157 193.21336C843.0747 193.21336 841.73157 191.87021 841.73157 190.21336C841.73157 188.5565 843.0747 187.21336 844.73157 187.21336C846.3884 187.21336 847.73157 188.5565 847.73157 190.21336Z" fill-rule="nonzero"/><path fill="#000000" fill-opacity="0.0" clip-path="url(#id_0)" d="M875.5105 184.98218C875.5105 186.63902 874.16736 187.98218 872.5105 187.98218C870.8537 187.98218 869.5105 186.63902 869.5105 184.98218C869.5105 183.32532 870.8537 181.98218 872.5105 181.98218C874.16736 181.98218 875.5105 183.32532 875.5105 184.98218Z" fill-rule="nonzero"/><path fill="#000000" fill-opacity="0.0" clip-path="url(#id_0)" d="M903.2895 180.33853C903.2895 181.99539 901.94635 183.33853 900.2895 183.33853C898.6326 183.33853 897.2895 181.99539 897.2895 180.33853C897.2895 178.68169 898.6326 177.33853 900.2895 177.33853C901.94635 177.33853 903.2895 178.68169 903.2895 180.33853Z" fill-rule="nonzero"/><path fill="#000000" fill-opacity="0.0" clip-path="url(#id_0)" d="M931.0684 176.34644C931.0684 178.0033 929.7253 179.34644 928.0684 179.34644C926.41156 179.34644 925.0684 178.0033 925.0684 176.34644C925.0684 174.68959 926.41156 173.34644 928.0684 173.34644C929.7253 173.34644 931.0684 174.68959 931.0684 176.34644Z" fill-rule="nonzero"/><path fill="#000000" fill-opacity="0.0" clip-path="url(#id_0)" d="M958.84735 172.96208C958.84735 174.61893 957.5042 175.96208 955.84735 175.96208C954.1905 175.96208 952.84735 174.61893 952.84735 172.96208C952.84735 171.30522 954.1905 169.96208 955.84735 169.96208C957.5042 169.96208 958.84735 171.30522 958.84735 172.96208Z" fill-rule="nonzero"/><path fill="#000000" fill-opacity="0.0" clip-path="url(#id_0)" d="M986.62634 169.44505C986.62634 171.10191 985.28314 172.44505 983.62634 172.44505C981.9695 172.44505 980.62634 171.10191 980.62634 169.44505C980.62634 167.78821 981.9695 166.44505 983.62634 166.44505C985.28314 166.44505 986.62634 167.78821 986.62634 169.44505Z" fill-rule="nonzero"/><path fill="#000000" fill-opacity="0.0" clip-path="url(#id_0)" d="M1014.4053 166.47449C1014.4053 168.13133 1013.06213 169.47449 1011.4053 169.47449C1009.7484 169.47449 1008.4053 168.13133 1008.4053 166.47449C1008.4053 164.81763 1009.7484 163.47449 1011.4053 163.47449C1013.06213 163.47449 1014.4053 164.81763 1014.4053 166.47449Z" fill-rule="nonzero"/><path fill="#000000" fill-opacity="0.0" clip-path="url(#id_0)" d="M1042.1842 163.50586C1042.1842 165.16272 1040.8411 166.50586 1039.1842 166.50586C1037.5273 166.50586 1036.1842 165.16272 1036.1842 163.50586C1036.1842 161.849 1037.5273 160.50586 1039.1842 160.50586C1040.8411 160.50586 1042.1842 161.849 1042.1842 163.50586Z" fill-rule="nonzero"/><path fill="#000000" fill-opacity="0.0" clip-path="url(#id_0)" d="M1069.9631 160.72562C1069.9631 162.38246 1068.62 163.72562 1066.9631 163.72562C1065.3063 163.72562 1063.9631 162.38246 1063.9631 160.72562C1063.9631 159.06876 1065.3063 157.72562 1066.9631 157.72562C1068.62 157.72562 1069.9631 159.06876 1069.9631 160.72562Z" fill-rule="nonzero"/><path fill="#000000" fill-opacity="0.0" clip-path="url(#id_0)" d="M1097.7421 351.2028C1097.7421 352.85965 1096.3989 354.2028 1094.7421 354.2028C1093.0852 354.2028 1091.7421 352.85965 1091.7421 351.2028C1091.7421 349.54596 1093.0852 348.2028 1094.7421 348.2028C1096.3989 348.2028 1097.7421 349.54596 1097.7421 351.2028Z" fill-rule="nonzero"/><path fill="#000000" fill-opacity="0.0" clip-path="url(#id_0)" d="M1125.521 386.1842C1125.521 387.84106 1124.1779 389.1842 1122.521 389.1842C1120.8643 389.1842 1119.521 387.84106 1119.521 386.1842C1119.521 384.52734 1120.8643 383.1842 1122.521 383.1842C1124.1779 383.1842 1125.521 384.52734 1125.521 386.1842Z" fill-rule="nonzero"/><path fill="#000000" fill-opacity="0.0" clip-path="url(#id_0)" d="M1153.3 386.18344C1153.3 387.8403 1151.9569 389.18344 1150.3 389.18344C1148.6432 389.18344 1147.3 387.8403 1147.3 386.18344C1147.3 384.52658 1148.6432 383.18344 1150.3 383.18344C1151.9569 383.18344 1153.3 384.52658 1153.3 386.18344Z" fill-rule="nonzero"/><path fill="#000000" d="M597.6094 694.3L597.6094 686.72186L594.78125 686.72186L594.78125 685.70624L601.59375 685.70624L601.59375 686.72186L598.75 686.72186L598.75 694.3L597.6094 694.3ZM602.2969 686.925L602.2969 685.70624L603.3594 685.70624L603.3594 686.925L602.2969 686.925ZM602.2969 694.3L602.2969 688.08124L603.3594 688.08124L603.3594 694.3L602.2969 694.3ZM605.2969 694.3L605.2969 688.08124L606.2344 688.08124L606.2344 688.95624Q606.53125 688.4875 607.0156 688.22186Q607.5 687.9406 608.125 687.9406Q608.8125 687.9406 609.25 688.22186Q609.7031 688.5031 609.875 689.01874Q610.625 687.9406 611.7969 687.9406Q612.7344 687.9406 613.21875 688.45624Q613.71875 688.95624 613.71875 690.03436L613.71875 694.3L612.6719 694.3L612.6719 690.3781Q612.6719 689.7531 612.5625 689.47186Q612.46875 689.1906 612.2031 689.01874Q611.9375 688.84686 611.5625 688.84686Q610.90625 688.84686 610.46875 689.28436Q610.0469 689.72186 610.0469 690.6906L610.0469 694.3L608.9844 694.3L608.9844 690.2531Q608.9844 689.55 608.71875 689.20624Q608.46875 688.84686 607.8906 688.84686Q607.4375 688.84686 607.0625 689.08124Q606.6875 689.3156 606.5156 689.76874Q606.34375 690.22186 606.34375 691.0656L606.34375 694.3L605.2969 694.3ZM620.5469 692.3L621.6406 692.425Q621.3906 693.3781 620.6875 693.90936Q619.9844 694.4406 618.90625 694.4406Q617.5469 694.4406 616.7344 693.59686Q615.9375 692.7531 615.9375 691.2375Q615.9375 689.675 616.75 688.8156Q617.5625 687.9406 618.84375 687.9406Q620.09375 687.9406 620.875 688.78436Q621.6719 689.6281 621.6719 691.175Q621.6719 691.26874 621.6719 691.45624L617.03125 691.45624Q617.09375 692.4875 617.6094 693.03436Q618.125 693.5656 618.90625 693.5656Q619.4844 693.5656 619.8906 693.26874Q620.3125 692.95624 620.5469 692.3ZM617.09375 690.59686L620.5625 690.59686Q620.5 689.8 620.1719 689.40936Q619.65625 688.8 618.8594 688.8Q618.125 688.8 617.625 689.28436Q617.1406 689.76874 617.09375 690.59686ZM625.3125 696.83124Q624.4375 695.72186 623.8281 694.2531Q623.2344 692.76874 623.2344 691.1906Q623.2344 689.8 623.6719 688.51874Q624.2031 687.03436 625.3125 685.5656L626.0625 685.5656Q625.3594 686.78436 625.125 687.3Q624.7656 688.1125 624.5625 688.9875Q624.3125 690.08124 624.3125 691.1906Q624.3125 694.01874 626.0625 696.83124L625.3125 696.83124ZM626.875 692.4406L627.90625 692.28436Q628.0 692.90936 628.3906 693.2375Q628.7969 693.5656 629.53125 693.5656Q630.25 693.5656 630.59375 693.28436Q630.9531 692.9875 630.9531 692.58124Q630.9531 692.22186 630.6406 692.01874Q630.4219 691.8781 629.5625 691.65936Q628.40625 691.3625 627.9531 691.15936Q627.5156 690.9406 627.28125 690.5656Q627.0469 690.1906 627.0469 689.72186Q627.0469 689.3156 627.2344 688.95624Q627.4219 688.59686 627.75 688.3625Q628.0 688.1906 628.4219 688.0656Q628.84375 687.9406 629.34375 687.9406Q630.0625 687.9406 630.6094 688.15936Q631.1719 688.3625 631.4375 688.72186Q631.7031 689.08124 631.7969 689.675L630.7656 689.8156Q630.7031 689.34686 630.3594 689.08124Q630.03125 688.8 629.40625 688.8Q628.6875 688.8 628.375 689.05Q628.0625 689.28436 628.0625 689.6125Q628.0625 689.8156 628.1875 689.97186Q628.3281 690.14374 628.59375 690.2531Q628.75 690.3156 629.53125 690.51874Q630.65625 690.83124 631.09375 691.01874Q631.53125 691.20624 631.78125 691.5656Q632.03125 691.925 632.03125 692.47186Q632.03125 693.0031 631.71875 693.47186Q631.4219 693.925 630.84375 694.1906Q630.2656 694.4406 629.53125 694.4406Q628.3125 694.4406 627.6719 693.9406Q627.0469 693.425 626.875 692.4406ZM638.5469 692.3L639.6406 692.425Q639.3906 693.3781 638.6875 693.90936Q637.9844 694.4406 636.90625 694.4406Q635.5469 694.4406 634.7344 693.59686Q633.9375 692.7531 633.9375 691.2375Q633.9375 689.675 634.75 688.8156Q635.5625 687.9406 636.84375 687.9406Q638.09375 687.9406 638.875 688.78436Q639.6719 689.6281 639.6719 691.175Q639.6719 691.26874 639.6719 691.45624L635.03125 691.45624Q635.09375 692.4875 635.6094 693.03436Q636.125 693.5656 636.90625 693.5656Q637.4844 693.5656 637.8906 693.26874Q638.3125 692.95624 638.5469 692.3ZM635.09375 690.59686L638.5625 690.59686Q638.5 689.8 638.1719 689.40936Q637.65625 688.8 636.8594 688.8Q636.125 688.8 635.625 689.28436Q635.1406 689.76874 635.09375 690.59686ZM645.3594 692.01874L646.3906 692.15936Q646.21875 693.22186 645.5156 693.83124Q644.8125 694.4406 643.7969 694.4406Q642.5156 694.4406 641.7344 693.6125Q640.96875 692.76874 640.96875 691.20624Q640.96875 690.20624 641.2969 689.45624Q641.6406 688.6906 642.3125 688.3156Q643.0 687.9406 643.8125 687.9406Q644.8125 687.9406 645.4531 688.45624Q646.1094 688.95624 646.2969 689.90936L645.2656 690.0656Q645.125 689.4406 644.75 689.1281Q644.375 688.8 643.84375 688.8Q643.0469 688.8 642.5469 689.3781Q642.0469 689.9406 642.0469 691.175Q642.0469 692.4406 642.53125 693.0031Q643.0156 693.5656 643.78125 693.5656Q644.40625 693.5656 644.8125 693.1906Q645.2344 692.8156 645.3594 692.01874ZM647.9844 696.83124L647.2344 696.83124Q648.9844 694.01874 648.9844 691.1906Q648.9844 690.09686 648.7344 689.0031Q648.53125 688.1281 648.1719 687.3156Q647.9375 686.8 647.2344 685.5656L647.9844 685.5656Q649.0781 687.03436 649.6094 688.51874Q650.0625 689.8 650.0625 691.1906Q650.0625 692.76874 649.4531 694.2531Q648.84375 695.72186 647.9844 696.83124Z" fill-rule="nonzero"/><path fill="#000000" d="M65.2 645.0656Q65.2 643.53436 65.5125 642.6125Q65.825 641.675 66.43437 641.175Q67.05937 640.675 67.99687 640.675Q68.68437 640.675 69.2 640.95624Q69.73125 641.2375 70.075 641.76874Q70.41875 642.28436 70.60625 643.03436Q70.79375 643.78436 70.79375 645.0656Q70.79375 646.58124 70.48125 647.5031Q70.18437 648.425 69.55937 648.9406Q68.95 649.4406 67.99687 649.4406Q66.7625 649.4406 66.04375 648.55Q65.2 647.4875 65.2 645.0656ZM66.27812 645.0656Q66.27812 647.175 66.77812 647.8781Q67.27812 648.58124 67.99687 648.58124Q68.73125 648.58124 69.21562 647.8781Q69.71562 647.175 69.71562 645.0656Q69.71562 642.9406 69.21562 642.2531Q68.73125 641.55 67.98125 641.55Q67.2625 641.55 66.825 642.15936Q66.27812 642.9406 66.27812 645.0656ZM72.59062 649.3L72.59062 640.70624L74.30937 640.70624L76.34062 646.78436Q76.62187 647.64374 76.74687 648.0656Q76.8875 647.59686 77.2 646.6906L79.2625 640.70624L80.79375 640.70624L80.79375 649.3L79.7 649.3L79.7 642.1125L77.2 649.3L76.16875 649.3L73.68437 641.9875L73.68437 649.3L72.59062 649.3ZM81.575 649.3L81.575 640.70624L84.80937 640.70624Q85.79375 640.70624 86.3875 640.97186Q86.98125 641.2375 87.30937 641.78436Q87.65312 642.3156 87.65312 642.90936Q87.65312 643.45624 87.35625 643.9406Q87.05937 644.425 86.45 644.72186Q87.23125 644.95624 87.6375 645.51874Q88.05937 646.0656 88.05937 646.8156Q88.05937 647.40936 87.80937 647.9406Q87.55937 648.45624 87.18437 648.7375Q86.80937 649.01874 86.23125 649.15936Q85.66875 649.3 84.85625 649.3L81.575 649.3ZM82.71562 644.3156L84.575 644.3156Q85.325 644.3156 85.65312 644.22186Q86.09062 644.09686 86.30937 643.8Q86.52812 643.4875 86.52812 643.03436Q86.52812 642.6125 86.325 642.28436Q86.12187 641.95624 85.73125 641.84686Q85.35625 641.72186 84.43437 641.72186L82.71562 641.72186L82.71562 644.3156ZM82.71562 648.28436L84.85625 648.28436Q85.40312 648.28436 85.62187 648.2375Q86.02812 648.175 86.27812 648.01874Q86.54375 647.84686 86.71562 647.53436Q86.8875 647.22186 86.8875 646.8156Q86.8875 646.33124 86.6375 645.97186Q86.40312 645.6125 85.96562 645.47186Q85.52812 645.33124 84.7 645.33124L82.71562 645.33124L82.71562 648.28436Z" fill-rule="nonzero"/><path fill="#000000" d="M49.746876 574.76056L49.746876 575.7762L44.059376 575.7762Q44.059376 575.4012 44.184376 575.0418Q44.403126 574.4637 44.871876 573.9012Q45.35625 573.3387 46.2625 572.6043Q47.66875 571.44806 48.153126 570.7762Q48.653126 570.1043 48.653126 569.51056Q48.653126 568.88556 48.2 568.4637Q47.746876 568.0262 47.028126 568.0262Q46.2625 568.0262 45.809376 568.4793Q45.35625 568.93243 45.340626 569.74493L44.2625 569.63556Q44.371876 568.4168 45.090626 567.7918Q45.825 567.1512 47.059376 567.1512Q48.29375 567.1512 49.0125 567.8387Q49.73125 568.5262 49.73125 569.5418Q49.73125 570.05743 49.5125 570.55743Q49.309376 571.0418 48.809376 571.6043Q48.325 572.1512 47.2 573.1043Q46.246876 573.9012 45.965626 574.19806Q45.7 574.4793 45.528126 574.76056L49.746876 574.76056ZM51.2 571.5418Q51.2 570.01056 51.5125 569.0887Q51.825 568.1512 52.434376 567.6512Q53.059376 567.1512 53.996876 567.1512Q54.684376 567.1512 55.2 567.43243Q55.73125 567.7137 56.075 568.24493Q56.41875 568.76056 56.60625 569.51056Q56.79375 570.26056 56.79375 571.5418Q56.79375 573.05743 56.48125 573.9793Q56.184376 574.9012 55.559376 575.4168Q54.95 575.9168 53.996876 575.9168Q52.7625 575.9168 52.04375 575.0262Q51.2 573.9637 51.2 571.5418ZM52.278126 571.5418Q52.278126 573.6512 52.778126 574.3543Q53.278126 575.05743 53.996876 575.05743Q54.73125 575.05743 55.215626 574.3543Q55.715626 573.6512 55.715626 571.5418Q55.715626 569.4168 55.215626 568.7293Q54.73125 568.0262 53.98125 568.0262Q53.2625 568.0262 52.825 568.63556Q52.278126 569.4168 52.278126 571.5418ZM58.2 571.5418Q58.2 570.01056 58.5125 569.0887Q58.825 568.1512 59.434376 567.6512Q60.059376 567.1512 60.996876 567.1512Q61.684376 567.1512 62.2 567.43243Q62.73125 567.7137 63.075 568.24493Q63.41875 568.76056 63.60625 569.51056Q63.79375 570.26056 63.79375 571.5418Q63.79375 573.05743 63.48125 573.9793Q63.184376 574.9012 62.559376 575.4168Q61.95 575.9168 60.996876 575.9168Q59.7625 575.9168 59.04375 575.0262Q58.2 573.9637 58.2 571.5418ZM59.278126 571.5418Q59.278126 573.6512 59.778126 574.3543Q60.278126 575.05743 60.996876 575.05743Q61.73125 575.05743 62.215626 574.3543Q62.715626 573.6512 62.715626 571.5418Q62.715626 569.4168 62.215626 568.7293Q61.73125 568.0262 60.98125 568.0262Q60.2625 568.0262 59.825 568.63556Q59.278126 569.4168 59.278126 571.5418ZM65.2 571.5418Q65.2 570.01056 65.5125 569.0887Q65.825 568.1512 66.43437 567.6512Q67.05937 567.1512 67.99687 567.1512Q68.68437 567.1512 69.2 567.43243Q69.73125 567.7137 70.075 568.24493Q70.41875 568.76056 70.60625 569.51056Q70.79375 570.26056 70.79375 571.5418Q70.79375 573.05743 70.48125 573.9793Q70.18437 574.9012 69.55937 575.4168Q68.95 575.9168 67.99687 575.9168Q66.7625 575.9168 66.04375 575.0262Q65.2 573.9637 65.2 571.5418ZM66.27812 571.5418Q66.27812 573.6512 66.77812 574.3543Q67.27812 575.05743 67.99687 575.05743Q68.73125 575.05743 69.21562 574.3543Q69.71562 573.6512 69.71562 571.5418Q69.71562 569.4168 69.21562 568.7293Q68.73125 568.0262 67.98125 568.0262Q67.2625 568.0262 66.825 568.63556Q66.27812 569.4168 66.27812 571.5418ZM72.59062 575.7762L72.59062 567.18243L74.30937 567.18243L76.34062 573.26056Q76.62187 574.11993 76.74687 574.5418Q76.8875 574.07306 77.2 573.1668L79.2625 567.18243L80.79375 567.18243L80.79375 575.7762L79.7 575.7762L79.7 568.5887L77.2 575.7762L76.16875 575.7762L73.68437 568.4637L73.68437 575.7762L72.59062 575.7762ZM81.575 575.7762L81.575 567.18243L84.80937 567.18243Q85.79375 567.18243 86.3875 567.44806Q86.98125 567.7137 87.30937 568.26056Q87.65312 568.7918 87.65312 569.38556Q87.65312 569.93243 87.35625 570.4168Q87.05937 570.9012 86.45 571.19806Q87.23125 571.43243 87.6375 571.99493Q88.05937 572.5418 88.05937 573.2918Q88.05937 573.88556 87.80937 574.4168Q87.55937 574.93243 87.18437 575.2137Q86.80937 575.49493 86.23125 575.63556Q85.66875 575.7762 84.85625 575.7762L81.575 575.7762ZM82.71562 570.7918L84.575 570.7918Q85.325 570.7918 85.65312 570.69806Q86.09062 570.57306 86.30937 570.2762Q86.52812 569.9637 86.52812 569.51056Q86.52812 569.0887 86.325 568.76056Q86.12187 568.43243 85.73125 568.32306Q85.35625 568.19806 84.43437 568.19806L82.71562 568.19806L82.71562 570.7918ZM82.71562 574.76056L84.85625 574.76056Q85.40312 574.76056 85.62187 574.7137Q86.02812 574.6512 86.27812 574.49493Q86.54375 574.32306 86.71562 574.01056Q86.8875 573.69806 86.8875 573.2918Q86.8875 572.80743 86.6375 572.44806Q86.40312 572.0887 85.96562 571.94806Q85.52812 571.80743 84.7 571.80743L82.71562 571.80743L82.71562 574.76056Z" fill-rule="nonzero"/><path fill="#000000" d="M47.575 502.25238L47.575 500.18988L43.85625 500.18988L43.85625 499.22113L47.778126 493.65863L48.6375 493.65863L48.6375 499.22113L49.79375 499.22113L49.79375 500.18988L48.6375 500.18988L48.6375 502.25238L47.575 502.25238ZM47.575 499.22113L47.575 495.36176L44.8875 499.22113L47.575 499.22113ZM51.2 498.018Q51.2 496.48676 51.5125 495.56488Q51.825 494.62738 52.434376 494.12738Q53.059376 493.62738 53.996876 493.62738Q54.684376 493.62738 55.2 493.90863Q55.73125 494.18988 56.075 494.72113Q56.41875 495.23676 56.60625 495.98676Q56.79375 496.73676 56.79375 498.018Q56.79375 499.53363 56.48125 500.4555Q56.184376 501.37738 55.559376 501.893Q54.95 502.393 53.996876 502.393Q52.7625 502.393 52.04375 501.50238Q51.2 500.43988 51.2 498.018ZM52.278126 498.018Q52.278126 500.12738 52.778126 500.8305Q53.278126 501.53363 53.996876 501.53363Q54.73125 501.53363 55.215626 500.8305Q55.715626 500.12738 55.715626 498.018Q55.715626 495.893 55.215626 495.2055Q54.73125 494.50238 53.98125 494.50238Q53.2625 494.50238 52.825 495.11176Q52.278126 495.893 52.278126 498.018ZM58.2 498.018Q58.2 496.48676 58.5125 495.56488Q58.825 494.62738 59.434376 494.12738Q60.059376 493.62738 60.996876 493.62738Q61.684376 493.62738 62.2 493.90863Q62.73125 494.18988 63.075 494.72113Q63.41875 495.23676 63.60625 495.98676Q63.79375 496.73676 63.79375 498.018Q63.79375 499.53363 63.48125 500.4555Q63.184376 501.37738 62.559376 501.893Q61.95 502.393 60.996876 502.393Q59.7625 502.393 59.04375 501.50238Q58.2 500.43988 58.2 498.018ZM59.278126 498.018Q59.278126 500.12738 59.778126 500.8305Q60.278126 501.53363 60.996876 501.53363Q61.73125 501.53363 62.215626 500.8305Q62.715626 500.12738 62.715626 498.018Q62.715626 495.893 62.215626 495.2055Q61.73125 494.50238 60.98125 494.50238Q60.2625 494.50238 59.825 495.11176Q59.278126 495.893 59.278126 498.018ZM65.2 498.018Q65.2 496.48676 65.5125 495.56488Q65.825 494.62738 66.43437 494.12738Q67.05937 493.62738 67.99687 493.62738Q68.68437 493.62738 69.2 493.90863Q69.73125 494.18988 70.075 494.72113Q70.41875 495.23676 70.60625 495.98676Q70.79375 496.73676 70.79375 498.018Q70.79375 499.53363 70.48125 500.4555Q70.18437 501.37738 69.55937 501.893Q68.95 502.393 67.99687 502.393Q66.7625 502.393 66.04375 501.50238Q65.2 500.43988 65.2 498.018ZM66.27812 498.018Q66.27812 500.12738 66.77812 500.8305Q67.27812 501.53363 67.99687 501.53363Q68.73125 501.53363 69.21562 500.8305Q69.71562 500.12738 69.71562 498.018Q69.71562 495.893 69.21562 495.2055Q68.73125 494.50238 67.98125 494.50238Q67.2625 494.50238 66.825 495.11176Q66.27812 495.893 66.27812 498.018ZM72.59062 502.25238L72.59062 493.65863L74.30937 493.65863L76.34062 499.73676Q76.62187 500.59613 76.74687 501.018Q76.8875 500.54926 77.2 499.643L79.2625 493.65863L80.79375 493.65863L80.79375 502.25238L79.7 502.25238L79.7 495.06488L77.2 502.25238L76.16875 502.25238L73.68437 494.93988L73.68437 502.25238L72.59062 502.25238ZM81.575 502.25238L81.575 493.65863L84.80937 493.65863Q85.79375 493.65863 86.3875 493.92426Q86.98125 494.18988 87.30937 494.73676Q87.65312 495.268 87.65312 495.86176Q87.65312 496.40863 87.35625 496.893Q87.05937 497.37738 86.45 497.67426Q87.23125 497.90863 87.6375 498.47113Q88.05937 499.018 88.05937 499.768Q88.05937 500.36176 87.80937 500.893Q87.55937 501.40863 87.18437 501.68988Q86.80937 501.97113 86.23125 502.11176Q85.66875 502.25238 84.85625 502.25238L81.575 502.25238ZM82.71562 497.268L84.575 497.268Q85.325 497.268 85.65312 497.17426Q86.09062 497.04926 86.30937 496.75238Q86.52812 496.43988 86.52812 495.98676Q86.52812 495.56488 86.325 495.23676Q86.12187 494.90863 85.73125 494.79926Q85.35625 494.67426 84.43437 494.67426L82.71562 494.67426L82.71562 497.268ZM82.71562 501.23676L84.85625 501.23676Q85.40312 501.23676 85.62187 501.18988Q86.02812 501.12738 86.27812 500.97113Q86.54375 500.79926 86.71562 500.48676Q86.8875 500.17426 86.8875 499.768Q86.8875 499.28363 86.6375 498.92426Q86.40312 498.56488 85.96562 498.42426Q85.52812 498.28363 84.7 498.28363L82.71562 498.28363L82.71562 501.23676Z" fill-rule="nonzero"/><path fill="#000000" d="M49.66875 422.2442L48.621876 422.32233Q48.48125 421.69733 48.23125 421.41608Q47.79375 420.96295 47.16875 420.96295Q46.66875 420.96295 46.278126 421.2442Q45.79375 421.6192 45.496876 422.32233Q45.215626 423.00983 45.2 424.29108Q45.575 423.71295 46.121876 423.4317Q46.684376 423.15045 47.29375 423.15045Q48.340626 423.15045 49.075 423.9317Q49.825 424.71295 49.825 425.9317Q49.825 426.7442 49.465626 427.44733Q49.121876 428.13483 48.5125 428.50983Q47.903126 428.8692 47.1375 428.8692Q45.809376 428.8692 44.98125 427.90045Q44.153126 426.9317 44.153126 424.71295Q44.153126 422.21295 45.075 421.08795Q45.871876 420.10358 47.23125 420.10358Q48.246876 420.10358 48.8875 420.6817Q49.54375 421.2442 49.66875 422.2442ZM45.371876 425.94733Q45.371876 426.4942 45.590626 426.9942Q45.825 427.47858 46.23125 427.7442Q46.653126 428.00983 47.121876 428.00983Q47.778126 428.00983 48.2625 427.47858Q48.746876 426.9317 48.746876 426.00983Q48.746876 425.1192 48.2625 424.60358Q47.79375 424.08795 47.075 424.08795Q46.35625 424.08795 45.85625 424.60358Q45.371876 425.1192 45.371876 425.94733ZM51.2 424.4942Q51.2 422.96295 51.5125 422.04108Q51.825 421.10358 52.434376 420.60358Q53.059376 420.10358 53.996876 420.10358Q54.684376 420.10358 55.2 420.38483Q55.73125 420.66608 56.075 421.19733Q56.41875 421.71295 56.60625 422.46295Q56.79375 423.21295 56.79375 424.4942Q56.79375 426.00983 56.48125 426.9317Q56.184376 427.85358 55.559376 428.3692Q54.95 428.8692 53.996876 428.8692Q52.7625 428.8692 52.04375 427.97858Q51.2 426.91608 51.2 424.4942ZM52.278126 424.4942Q52.278126 426.60358 52.778126 427.3067Q53.278126 428.00983 53.996876 428.00983Q54.73125 428.00983 55.215626 427.3067Q55.715626 426.60358 55.715626 424.4942Q55.715626 422.3692 55.215626 421.6817Q54.73125 420.97858 53.98125 420.97858Q53.2625 420.97858 52.825 421.58795Q52.278126 422.3692 52.278126 424.4942ZM58.2 424.4942Q58.2 422.96295 58.5125 422.04108Q58.825 421.10358 59.434376 420.60358Q60.059376 420.10358 60.996876 420.10358Q61.684376 420.10358 62.2 420.38483Q62.73125 420.66608 63.075 421.19733Q63.41875 421.71295 63.60625 422.46295Q63.79375 423.21295 63.79375 424.4942Q63.79375 426.00983 63.48125 426.9317Q63.184376 427.85358 62.559376 428.3692Q61.95 428.8692 60.996876 428.8692Q59.7625 428.8692 59.04375 427.97858Q58.2 426.91608 58.2 424.4942ZM59.278126 424.4942Q59.278126 426.60358 59.778126 427.3067Q60.278126 428.00983 60.996876 428.00983Q61.73125 428.00983 62.215626 427.3067Q62.715626 426.60358 62.715626 424.4942Q62.715626 422.3692 62.215626 421.6817Q61.73125 420.97858 60.98125 420.97858Q60.2625 420.97858 59.825 421.58795Q59.278126 422.3692 59.278126 424.4942ZM65.2 424.4942Q65.2 422.96295 65.5125 422.04108Q65.825 421.10358 66.43437 420.60358Q67.05937 420.10358 67.99687 420.10358Q68.68437 420.10358 69.2 420.38483Q69.73125 420.66608 70.075 421.19733Q70.41875 421.71295 70.60625 422.46295Q70.79375 423.21295 70.79375 424.4942Q70.79375 426.00983 70.48125 426.9317Q70.18437 427.85358 69.55937 428.3692Q68.95 428.8692 67.99687 428.8692Q66.7625 428.8692 66.04375 427.97858Q65.2 426.91608 65.2 424.4942ZM66.27812 424.4942Q66.27812 426.60358 66.77812 427.3067Q67.27812 428.00983 67.99687 428.00983Q68.73125 428.00983 69.21562 427.3067Q69.71562 426.60358 69.71562 424.4942Q69.71562 422.3692 69.21562 421.6817Q68.73125 420.97858 67.98125 420.97858Q67.2625 420.97858 66.825 421.58795Q66.27812 422.3692 66.27812 424.4942ZM72.59062 428.72858L72.59062 420.13483L74.30937 420.13483L76.34062 426.21295Q76.62187 427.07233 76.74687 427.4942Q76.8875 427.02545 77.2 426.1192L79.2625 420.13483L80.79375 420.13483L80.79375 428.72858L79.7 428.72858L79.7 421.54108L77.2 428.72858L76.16875 428.72858L73.68437 421.41608L73.68437 428.72858L72.59062 428.72858ZM81.575 428.72858L81.575 420.13483L84.80937 420.13483Q85.79375 420.13483 86.3875 420.40045Q86.98125 420.66608 87.30937 421.21295Q87.65312 421.7442 87.65312 422.33795Q87.65312 422.88483 87.35625 423.3692Q87.05937 423.85358 86.45 424.15045Q87.23125 424.38483 87.6375 424.94733Q88.05937 425.4942 88.05937 426.2442Q88.05937 426.83795 87.80937 427.3692Q87.55937 427.88483 87.18437 428.16608Q86.80937 428.44733 86.23125 428.58795Q85.66875 428.72858 84.85625 428.72858L81.575 428.72858ZM82.71562 423.7442L84.575 423.7442Q85.325 423.7442 85.65312 423.65045Q86.09062 423.52545 86.30937 423.22858Q86.52812 422.91608 86.52812 422.46295Q86.52812 422.04108 86.325 421.71295Q86.12187 421.38483 85.73125 421.27545Q85.35625 421.15045 84.43437 421.15045L82.71562 421.15045L82.71562 423.7442ZM82.71562 427.71295L84.85625 427.71295Q85.40312 427.71295 85.62187 427.66608Q86.02812 427.60358 86.27812 427.44733Q86.54375 427.27545 86.71562 426.96295Q86.8875 426.65045 86.8875 426.2442Q86.8875 425.75983 86.6375 425.40045Q86.40312 425.04108 85.96562 424.90045Q85.52812 424.75983 84.7 424.75983L82.71562 424.75983L82.71562 427.71295Z" fill-rule="nonzero"/><path fill="#000000" d="M45.825 350.54852Q45.16875 350.29852 44.840626 349.86102Q44.528126 349.4079 44.528126 348.79852Q44.528126 347.86102 45.2 347.2204Q45.8875 346.57977 46.996876 346.57977Q48.121876 346.57977 48.809376 347.23602Q49.496876 347.89227 49.496876 348.82977Q49.496876 349.42352 49.184376 349.86102Q48.871876 350.29852 48.23125 350.54852Q49.028126 350.79852 49.434376 351.37665Q49.840626 351.95477 49.840626 352.75165Q49.840626 353.8454 49.059376 354.5954Q48.29375 355.3454 47.0125 355.3454Q45.746876 355.3454 44.965626 354.5954Q44.184376 353.8454 44.184376 352.7204Q44.184376 351.87665 44.60625 351.31415Q45.04375 350.75165 45.825 350.54852ZM45.60625 348.75165Q45.60625 349.36102 45.996876 349.75165Q46.403126 350.14227 47.028126 350.14227Q47.6375 350.14227 48.028126 349.76727Q48.41875 349.37665 48.41875 348.81415Q48.41875 348.23602 48.0125 347.8454Q47.60625 347.43915 47.0125 347.43915Q46.403126 347.43915 45.996876 347.82977Q45.60625 348.2204 45.60625 348.75165ZM45.278126 352.7204Q45.278126 353.17352 45.48125 353.5954Q45.7 354.01727 46.121876 354.25165Q46.54375 354.48602 47.028126 354.48602Q47.778126 354.48602 48.2625 354.00165Q48.7625 353.51727 48.7625 352.76727Q48.7625 352.00165 48.2625 351.50165Q47.7625 351.00165 46.996876 351.00165Q46.246876 351.00165 45.7625 351.50165Q45.278126 351.98602 45.278126 352.7204ZM51.2 350.9704Q51.2 349.43915 51.5125 348.51727Q51.825 347.57977 52.434376 347.07977Q53.059376 346.57977 53.996876 346.57977Q54.684376 346.57977 55.2 346.86102Q55.73125 347.14227 56.075 347.67352Q56.41875 348.18915 56.60625 348.93915Q56.79375 349.68915 56.79375 350.9704Q56.79375 352.48602 56.48125 353.4079Q56.184376 354.32977 55.559376 354.8454Q54.95 355.3454 53.996876 355.3454Q52.7625 355.3454 52.04375 354.45477Q51.2 353.39227 51.2 350.9704ZM52.278126 350.9704Q52.278126 353.07977 52.778126 353.7829Q53.278126 354.48602 53.996876 354.48602Q54.73125 354.48602 55.215626 353.7829Q55.715626 353.07977 55.715626 350.9704Q55.715626 348.8454 55.215626 348.1579Q54.73125 347.45477 53.98125 347.45477Q53.2625 347.45477 52.825 348.06415Q52.278126 348.8454 52.278126 350.9704ZM58.2 350.9704Q58.2 349.43915 58.5125 348.51727Q58.825 347.57977 59.434376 347.07977Q60.059376 346.57977 60.996876 346.57977Q61.684376 346.57977 62.2 346.86102Q62.73125 347.14227 63.075 347.67352Q63.41875 348.18915 63.60625 348.93915Q63.79375 349.68915 63.79375 350.9704Q63.79375 352.48602 63.48125 353.4079Q63.184376 354.32977 62.559376 354.8454Q61.95 355.3454 60.996876 355.3454Q59.7625 355.3454 59.04375 354.45477Q58.2 353.39227 58.2 350.9704ZM59.278126 350.9704Q59.278126 353.07977 59.778126 353.7829Q60.278126 354.48602 60.996876 354.48602Q61.73125 354.48602 62.215626 353.7829Q62.715626 353.07977 62.715626 350.9704Q62.715626 348.8454 62.215626 348.1579Q61.73125 347.45477 60.98125 347.45477Q60.2625 347.45477 59.825 348.06415Q59.278126 348.8454 59.278126 350.9704ZM65.2 350.9704Q65.2 349.43915 65.5125 348.51727Q65.825 347.57977 66.43437 347.07977Q67.05937 346.57977 67.99687 346.57977Q68.68437 346.57977 69.2 346.86102Q69.73125 347.14227 70.075 347.67352Q70.41875 348.18915 70.60625 348.93915Q70.79375 349.68915 70.79375 350.9704Q70.79375 352.48602 70.48125 353.4079Q70.18437 354.32977 69.55937 354.8454Q68.95 355.3454 67.99687 355.3454Q66.7625 355.3454 66.04375 354.45477Q65.2 353.39227 65.2 350.9704ZM66.27812 350.9704Q66.27812 353.07977 66.77812 353.7829Q67.27812 354.48602 67.99687 354.48602Q68.73125 354.48602 69.21562 353.7829Q69.71562 353.07977 69.71562 350.9704Q69.71562 348.8454 69.21562 348.1579Q68.73125 347.45477 67.98125 347.45477Q67.2625 347.45477 66.825 348.06415Q66.27812 348.8454 66.27812 350.9704ZM72.59062 355.20477L72.59062 346.61102L74.30937 346.61102L76.34062 352.68915Q76.62187 353.54852 76.74687 353.9704Q76.8875 353.50165 77.2 352.5954L79.2625 346.61102L80.79375 346.61102L80.79375 355.20477L79.7 355.20477L79.7 348.01727L77.2 355.20477L76.16875 355.20477L73.68437 347.89227L73.68437 355.20477L72.59062 355.20477ZM81.575 355.20477L81.575 346.61102L84.80937 346.61102Q85.79375 346.61102 86.3875 346.87665Q86.98125 347.14227 87.30937 347.68915Q87.65312 348.2204 87.65312 348.81415Q87.65312 349.36102 87.35625 349.8454Q87.05937 350.32977 86.45 350.62665Q87.23125 350.86102 87.6375 351.42352Q88.05937 351.9704 88.05937 352.7204Q88.05937 353.31415 87.80937 353.8454Q87.55937 354.36102 87.18437 354.64227Q86.80937 354.92352 86.23125 355.06415Q85.66875 355.20477 84.85625 355.20477L81.575 355.20477ZM82.71562 350.2204L84.575 350.2204Q85.325 350.2204 85.65312 350.12665Q86.09062 350.00165 86.30937 349.70477Q86.52812 349.39227 86.52812 348.93915Q86.52812 348.51727 86.325 348.18915Q86.12187 347.86102 85.73125 347.75165Q85.35625 347.62665 84.43437 347.62665L82.71562 347.62665L82.71562 350.2204ZM82.71562 354.18915L84.85625 354.18915Q85.40312 354.18915 85.62187 354.14227Q86.02812 354.07977 86.27812 353.92352Q86.54375 353.75165 86.71562 353.43915Q86.8875 353.12665 86.8875 352.7204Q86.8875 352.23602 86.6375 351.87665Q86.40312 351.51727 85.96562 351.37665Q85.52812 351.23602 84.7 351.23602L82.71562 351.23602L82.71562 354.18915Z" fill-rule="nonzero"/><path fill="#000000" d="M41.16875 281.68094L40.121876 281.68094L40.121876 274.9622Q39.73125 275.32156 39.10625 275.69656Q38.496876 276.05594 38.0125 276.2278L38.0125 275.2122Q38.8875 274.7903 39.54375 274.2122Q40.215626 273.61844 40.496876 273.05594L41.16875 273.05594L41.16875 281.68094ZM44.2 277.44656Q44.2 275.9153 44.5125 274.99344Q44.825 274.05594 45.434376 273.55594Q46.059376 273.05594 46.996876 273.05594Q47.684376 273.05594 48.2 273.3372Q48.73125 273.61844 49.075 274.1497Q49.41875 274.6653 49.60625 275.4153Q49.79375 276.1653 49.79375 277.44656Q49.79375 278.9622 49.48125 279.88406Q49.184376 280.80594 48.559376 281.32156Q47.95 281.82156 46.996876 281.82156Q45.7625 281.82156 45.04375 280.93094Q44.2 279.86844 44.2 277.44656ZM45.278126 277.44656Q45.278126 279.55594 45.778126 280.25906Q46.278126 280.9622 46.996876 280.9622Q47.73125 280.9622 48.215626 280.25906Q48.715626 279.55594 48.715626 277.44656Q48.715626 275.32156 48.215626 274.63406Q47.73125 273.93094 46.98125 273.93094Q46.2625 273.93094 45.825 274.5403Q45.278126 275.32156 45.278126 277.44656ZM51.2 277.44656Q51.2 275.9153 51.5125 274.99344Q51.825 274.05594 52.434376 273.55594Q53.059376 273.05594 53.996876 273.05594Q54.684376 273.05594 55.2 273.3372Q55.73125 273.61844 56.075 274.1497Q56.41875 274.6653 56.60625 275.4153Q56.79375 276.1653 56.79375 277.44656Q56.79375 278.9622 56.48125 279.88406Q56.184376 280.80594 55.559376 281.32156Q54.95 281.82156 53.996876 281.82156Q52.7625 281.82156 52.04375 280.93094Q51.2 279.86844 51.2 277.44656ZM52.278126 277.44656Q52.278126 279.55594 52.778126 280.25906Q53.278126 280.9622 53.996876 280.9622Q54.73125 280.9622 55.215626 280.25906Q55.715626 279.55594 55.715626 277.44656Q55.715626 275.32156 55.215626 274.63406Q54.73125 273.93094 53.98125 273.93094Q53.2625 273.93094 52.825 274.5403Q52.278126 275.32156 52.278126 277.44656ZM58.2 277.44656Q58.2 275.9153 58.5125 274.99344Q58.825 274.05594 59.434376 273.55594Q60.059376 273.05594 60.996876 273.05594Q61.684376 273.05594 62.2 273.3372Q62.73125 273.61844 63.075 274.1497Q63.41875 274.6653 63.60625 275.4153Q63.79375 276.1653 63.79375 277.44656Q63.79375 278.9622 63.48125 279.88406Q63.184376 280.80594 62.559376 281.32156Q61.95 281.82156 60.996876 281.82156Q59.7625 281.82156 59.04375 280.93094Q58.2 279.86844 58.2 277.44656ZM59.278126 277.44656Q59.278126 279.55594 59.778126 280.25906Q60.278126 280.9622 60.996876 280.9622Q61.73125 280.9622 62.215626 280.25906Q62.715626 279.55594 62.715626 277.44656Q62.715626 275.32156 62.215626 274.63406Q61.73125 273.93094 60.98125 273.93094Q60.2625 273.93094 59.825 274.5403Q59.278126 275.32156 59.278126 277.44656ZM65.2 277.44656Q65.2 275.9153 65.5125 274.99344Q65.825 274.05594 66.43437 273.55594Q67.05937 273.05594 67.99687 273.05594Q68.68437 273.05594 69.2 273.3372Q69.73125 273.61844 70.075 274.1497Q70.41875 274.6653 70.60625 275.4153Q70.79375 276.1653 70.79375 277.44656Q70.79375 278.9622 70.48125 279.88406Q70.18437 280.80594 69.55937 281.32156Q68.95 281.82156 67.99687 281.82156Q66.7625 281.82156 66.04375 280.93094Q65.2 279.86844 65.2 277.44656ZM66.27812 277.44656Q66.27812 279.55594 66.77812 280.25906Q67.27812 280.9622 67.99687 280.9622Q68.73125 280.9622 69.21562 280.25906Q69.71562 279.55594 69.71562 277.44656Q69.71562 275.32156 69.21562 274.63406Q68.73125 273.93094 67.98125 273.93094Q67.2625 273.93094 66.825 274.5403Q66.27812 275.32156 66.27812 277.44656ZM72.59062 281.68094L72.59062 273.0872L74.30937 273.0872L76.34062 279.1653Q76.62187 280.0247 76.74687 280.44656Q76.8875 279.9778 77.2 279.07156L79.2625 273.0872L80.79375 273.0872L80.79375 281.68094L79.7 281.68094L79.7 274.49344L77.2 281.68094L76.16875 281.68094L73.68437 274.36844L73.68437 281.68094L72.59062 281.68094ZM81.575 281.68094L81.575 273.0872L84.80937 273.0872Q85.79375 273.0872 86.3875 273.3528Q86.98125 273.61844 87.30937 274.1653Q87.65312 274.69656 87.65312 275.2903Q87.65312 275.8372 87.35625 276.32156Q87.05937 276.80594 86.45 277.1028Q87.23125 277.3372 87.6375 277.8997Q88.05937 278.44656 88.05937 279.19656Q88.05937 279.7903 87.80937 280.32156Q87.55937 280.8372 87.18437 281.11844Q86.80937 281.3997 86.23125 281.5403Q85.66875 281.68094 84.85625 281.68094L81.575 281.68094ZM82.71562 276.69656L84.575 276.69656Q85.325 276.69656 85.65312 276.6028Q86.09062 276.4778 86.30937 276.18094Q86.52812 275.86844 86.52812 275.4153Q86.52812 274.99344 86.325 274.6653Q86.12187 274.3372 85.73125 274.2278Q85.35625 274.1028 84.43437 274.1028L82.71562 274.1028L82.71562 276.69656ZM82.71562 280.6653L84.85625 280.6653Q85.40312 280.6653 85.62187 280.61844Q86.02812 280.55594 86.27812 280.3997Q86.54375 280.2278 86.71562 279.9153Q86.8875 279.6028 86.8875 279.19656Q86.8875 278.7122 86.6375 278.3528Q86.40312 277.99344 85.96562 277.8528Q85.52812 277.7122 84.7 277.7122L82.71562 277.7122L82.71562 280.6653Z" fill-rule="nonzero"/><path fill="#000000" d="M41.16875 208.15715L40.121876 208.15715L40.121876 201.4384Q39.73125 201.79778 39.10625 202.17278Q38.496876 202.53215 38.0125 202.70403L38.0125 201.6884Q38.8875 201.26653 39.54375 200.6884Q40.215626 200.09465 40.496876 199.53215L41.16875 199.53215L41.16875 208.15715ZM49.746876 207.14153L49.746876 208.15715L44.059376 208.15715Q44.059376 207.78215 44.184376 207.42278Q44.403126 206.84465 44.871876 206.28215Q45.35625 205.71965 46.2625 204.98528Q47.66875 203.82903 48.153126 203.15715Q48.653126 202.48528 48.653126 201.89153Q48.653126 201.26653 48.2 200.84465Q47.746876 200.40715 47.028126 200.40715Q46.2625 200.40715 45.809376 200.86028Q45.35625 201.3134 45.340626 202.1259L44.2625 202.01653Q44.371876 200.79778 45.090626 200.17278Q45.825 199.53215 47.059376 199.53215Q48.29375 199.53215 49.0125 200.21965Q49.73125 200.90715 49.73125 201.92278Q49.73125 202.4384 49.5125 202.9384Q49.309376 203.42278 48.809376 203.98528Q48.325 204.53215 47.2 205.48528Q46.246876 206.28215 45.965626 206.57903Q45.7 206.86028 45.528126 207.14153L49.746876 207.14153ZM51.2 203.92278Q51.2 202.39153 51.5125 201.46965Q51.825 200.53215 52.434376 200.03215Q53.059376 199.53215 53.996876 199.53215Q54.684376 199.53215 55.2 199.8134Q55.73125 200.09465 56.075 200.6259Q56.41875 201.14153 56.60625 201.89153Q56.79375 202.64153 56.79375 203.92278Q56.79375 205.4384 56.48125 206.36028Q56.184376 207.28215 55.559376 207.79778Q54.95 208.29778 53.996876 208.29778Q52.7625 208.29778 52.04375 207.40715Q51.2 206.34465 51.2 203.92278ZM52.278126 203.92278Q52.278126 206.03215 52.778126 206.73528Q53.278126 207.4384 53.996876 207.4384Q54.73125 207.4384 55.215626 206.73528Q55.715626 206.03215 55.715626 203.92278Q55.715626 201.79778 55.215626 201.11028Q54.73125 200.40715 53.98125 200.40715Q53.2625 200.40715 52.825 201.01653Q52.278126 201.79778 52.278126 203.92278ZM58.2 203.92278Q58.2 202.39153 58.5125 201.46965Q58.825 200.53215 59.434376 200.03215Q60.059376 199.53215 60.996876 199.53215Q61.684376 199.53215 62.2 199.8134Q62.73125 200.09465 63.075 200.6259Q63.41875 201.14153 63.60625 201.89153Q63.79375 202.64153 63.79375 203.92278Q63.79375 205.4384 63.48125 206.36028Q63.184376 207.28215 62.559376 207.79778Q61.95 208.29778 60.996876 208.29778Q59.7625 208.29778 59.04375 207.40715Q58.2 206.34465 58.2 203.92278ZM59.278126 203.92278Q59.278126 206.03215 59.778126 206.73528Q60.278126 207.4384 60.996876 207.4384Q61.73125 207.4384 62.215626 206.73528Q62.715626 206.03215 62.715626 203.92278Q62.715626 201.79778 62.215626 201.11028Q61.73125 200.40715 60.98125 200.40715Q60.2625 200.40715 59.825 201.01653Q59.278126 201.79778 59.278126 203.92278ZM65.2 203.92278Q65.2 202.39153 65.5125 201.46965Q65.825 200.53215 66.43437 200.03215Q67.05937 199.53215 67.99687 199.53215Q68.68437 199.53215 69.2 199.8134Q69.73125 200.09465 70.075 200.6259Q70.41875 201.14153 70.60625 201.89153Q70.79375 202.64153 70.79375 203.92278Q70.79375 205.4384 70.48125 206.36028Q70.18437 207.28215 69.55937 207.79778Q68.95 208.29778 67.99687 208.29778Q66.7625 208.29778 66.04375 207.40715Q65.2 206.34465 65.2 203.92278ZM66.27812 203.92278Q66.27812 206.03215 66.77812 206.73528Q67.27812 207.4384 67.99687 207.4384Q68.73125 207.4384 69.21562 206.73528Q69.71562 206.03215 69.71562 203.92278Q69.71562 201.79778 69.21562 201.11028Q68.73125 200.40715 67.98125 200.40715Q67.2625 200.40715 66.825 201.01653Q66.27812 201.79778 66.27812 203.92278ZM72.59062 208.15715L72.59062 199.5634L74.30937 199.5634L76.34062 205.64153Q76.62187 206.5009 76.74687 206.92278Q76.8875 206.45403 77.2 205.54778L79.2625 199.5634L80.79375 199.5634L80.79375 208.15715L79.7 208.15715L79.7 200.96965L77.2 208.15715L76.16875 208.15715L73.68437 200.84465L73.68437 208.15715L72.59062 208.15715ZM81.575 208.15715L81.575 199.5634L84.80937 199.5634Q85.79375 199.5634 86.3875 199.82903Q86.98125 200.09465 87.30937 200.64153Q87.65312 201.17278 87.65312 201.76653Q87.65312 202.3134 87.35625 202.79778Q87.05937 203.28215 86.45 203.57903Q87.23125 203.8134 87.6375 204.3759Q88.05937 204.92278 88.05937 205.67278Q88.05937 206.26653 87.80937 206.79778Q87.55937 207.3134 87.18437 207.59465Q86.80937 207.8759 86.23125 208.01653Q85.66875 208.15715 84.85625 208.15715L81.575 208.15715ZM82.71562 203.17278L84.575 203.17278Q85.325 203.17278 85.65312 203.07903Q86.09062 202.95403 86.30937 202.65715Q86.52812 202.34465 86.52812 201.89153Q86.52812 201.46965 86.325 201.14153Q86.12187 200.8134 85.73125 200.70403Q85.35625 200.57903 84.43437 200.57903L82.71562 200.57903L82.71562 203.17278ZM82.71562 207.14153L84.85625 207.14153Q85.40312 207.14153 85.62187 207.09465Q86.02812 207.03215 86.27812 206.8759Q86.54375 206.70403 86.71562 206.39153Q86.8875 206.07903 86.8875 205.67278Q86.8875 205.1884 86.6375 204.82903Q86.40312 204.46965 85.96562 204.32903Q85.52812 204.1884 84.7 204.1884L82.71562 204.1884L82.71562 207.14153Z" fill-rule="nonzero"/><path fill="#000000" d="M41.16875 134.63333L40.121876 134.63333L40.121876 127.91458Q39.73125 128.27396 39.10625 128.64896Q38.496876 129.00833 38.0125 129.1802L38.0125 128.16458Q38.8875 127.74271 39.54375 127.16458Q40.215626 126.57083 40.496876 126.00833L41.16875 126.00833L41.16875 134.63333ZM47.575 134.63333L47.575 132.57083L43.85625 132.57083L43.85625 131.60208L47.778126 126.03958L48.6375 126.03958L48.6375 131.60208L49.79375 131.60208L49.79375 132.57083L48.6375 132.57083L48.6375 134.63333L47.575 134.63333ZM47.575 131.60208L47.575 127.74271L44.8875 131.60208L47.575 131.60208ZM51.2 130.39896Q51.2 128.8677 51.5125 127.94583Q51.825 127.00833 52.434376 126.50833Q53.059376 126.00833 53.996876 126.00833Q54.684376 126.00833 55.2 126.28958Q55.73125 126.57083 56.075 127.10208Q56.41875 127.61771 56.60625 128.3677Q56.79375 129.1177 56.79375 130.39896Q56.79375 131.91458 56.48125 132.83646Q56.184376 133.75833 55.559376 134.27396Q54.95 134.77396 53.996876 134.77396Q52.7625 134.77396 52.04375 133.88333Q51.2 132.82083 51.2 130.39896ZM52.278126 130.39896Q52.278126 132.50833 52.778126 133.21146Q53.278126 133.91458 53.996876 133.91458Q54.73125 133.91458 55.215626 133.21146Q55.715626 132.50833 55.715626 130.39896Q55.715626 128.27396 55.215626 127.58646Q54.73125 126.88333 53.98125 126.88333Q53.2625 126.88333 52.825 127.49271Q52.278126 128.27396 52.278126 130.39896ZM58.2 130.39896Q58.2 128.8677 58.5125 127.94583Q58.825 127.00833 59.434376 126.50833Q60.059376 126.00833 60.996876 126.00833Q61.684376 126.00833 62.2 126.28958Q62.73125 126.57083 63.075 127.10208Q63.41875 127.61771 63.60625 128.3677Q63.79375 129.1177 63.79375 130.39896Q63.79375 131.91458 63.48125 132.83646Q63.184376 133.75833 62.559376 134.27396Q61.95 134.77396 60.996876 134.77396Q59.7625 134.77396 59.04375 133.88333Q58.2 132.82083 58.2 130.39896ZM59.278126 130.39896Q59.278126 132.50833 59.778126 133.21146Q60.278126 133.91458 60.996876 133.91458Q61.73125 133.91458 62.215626 133.21146Q62.715626 132.50833 62.715626 130.39896Q62.715626 128.27396 62.215626 127.58646Q61.73125 126.88333 60.98125 126.88333Q60.2625 126.88333 59.825 127.49271Q59.278126 128.27396 59.278126 130.39896ZM65.2 130.39896Q65.2 128.8677 65.5125 127.94583Q65.825 127.00833 66.43437 126.50833Q67.05937 126.00833 67.99687 126.00833Q68.68437 126.00833 69.2 126.28958Q69.73125 126.57083 70.075 127.10208Q70.41875 127.61771 70.60625 128.3677Q70.79375 129.1177 70.79375 130.39896Q70.79375 131.91458 70.48125 132.83646Q70.18437 133.75833 69.55937 134.27396Q68.95 134.77396 67.99687 134.77396Q66.7625 134.77396 66.04375 133.88333Q65.2 132.82083 65.2 130.39896ZM66.27812 130.39896Q66.27812 132.50833 66.77812 133.21146Q67.27812 133.91458 67.99687 133.91458Q68.73125 133.91458 69.21562 133.21146Q69.71562 132.50833 69.71562 130.39896Q69.71562 128.27396 69.21562 127.58646Q68.73125 126.88333 67.98125 126.88333Q67.2625 126.88333 66.825 127.49271Q66.27812 128.27396 66.27812 130.39896ZM72.59062 134.63333L72.59062 126.03958L74.30937 126.03958L76.34062 132.1177Q76.62187 132.97708 76.74687 133.39896Q76.8875 132.9302 77.2 132.02396L79.2625 126.03958L80.79375 126.03958L80.79375 134.63333L79.7 134.63333L79.7 127.44583L77.2 134.63333L76.16875 134.63333L73.68437 127.32083L73.68437 134.63333L72.59062 134.63333ZM81.575 134.63333L81.575 126.03958L84.80937 126.03958Q85.79375 126.03958 86.3875 126.30521Q86.98125 126.57083 87.30937 127.11771Q87.65312 127.64896 87.65312 128.2427Q87.65312 128.78958 87.35625 129.27396Q87.05937 129.75833 86.45 130.0552Q87.23125 130.28958 87.6375 130.85208Q88.05937 131.39896 88.05937 132.14896Q88.05937 132.7427 87.80937 133.27396Q87.55937 133.78958 87.18437 134.07083Q86.80937 134.35208 86.23125 134.4927Q85.66875 134.63333 84.85625 134.63333L81.575 134.63333ZM82.71562 129.64896L84.575 129.64896Q85.325 129.64896 85.65312 129.5552Q86.09062 129.4302 86.30937 129.13333Q86.52812 128.82083 86.52812 128.3677Q86.52812 127.94583 86.325 127.61771Q86.12187 127.28958 85.73125 127.18021Q85.35625 127.05521 84.43437 127.05521L82.71562 127.05521L82.71562 129.64896ZM82.71562 133.6177L84.85625 133.6177Q85.40312 133.6177 85.62187 133.57083Q86.02812 133.50833 86.27812 133.35208Q86.54375 133.1802 86.71562 132.8677Q86.8875 132.5552 86.8875 132.14896Q86.8875 131.66458 86.6375 131.3052Q86.40312 130.94583 85.96562 130.8052Q85.52812 130.66458 84.7 130.66458L82.71562 130.66458L82.71562 133.6177Z" fill-rule="nonzero"/><path fill="#000000" d="M258.84244 662.3L257.79556 662.3L257.79556 655.58124Q257.40494 655.9406 256.77994 656.3156Q256.17056 656.675 255.68619 656.84686L255.68619 655.83124Q256.5612 655.40936 257.21744 654.83124Q257.8893 654.2375 258.17056 653.675L258.84244 653.675L258.84244 662.3ZM261.8737 658.0656Q261.8737 656.53436 262.1862 655.6125Q262.4987 654.675 263.10806 654.175Q263.73306 653.675 264.67056 653.675Q265.35806 653.675 265.8737 653.95624Q266.40494 654.2375 266.7487 654.76874Q267.09244 655.28436 267.27994 656.03436Q267.46744 656.78436 267.46744 658.0656Q267.46744 659.58124 267.15494 660.5031Q266.85806 661.425 266.23306 661.9406Q265.6237 662.4406 264.67056 662.4406Q263.4362 662.4406 262.71744 661.55Q261.8737 660.4875 261.8737 658.0656ZM262.9518 658.0656Q262.9518 660.175 263.4518 660.8781Q263.9518 661.58124 264.67056 661.58124Q265.40494 661.58124 265.8893 660.8781Q266.3893 660.175 266.3893 658.0656Q266.3893 655.9406 265.8893 655.2531Q265.40494 654.55 264.65494 654.55Q263.9362 654.55 263.4987 655.15936Q262.9518 655.9406 262.9518 658.0656Z" fill-rule="nonzero"/><path fill="#000000" d="M538.21 661.28436L538.21 662.3L532.5225 662.3Q532.5225 661.925 532.6475 661.5656Q532.8663 660.9875 533.335 660.425Q533.8194 659.8625 534.72565 659.1281Q536.1319 657.97186 536.6163 657.3Q537.1163 656.6281 537.1163 656.03436Q537.1163 655.40936 536.66315 654.9875Q536.21 654.55 535.4913 654.55Q534.72565 654.55 534.2725 655.0031Q533.8194 655.45624 533.8038 656.26874L532.72565 656.15936Q532.835 654.9406 533.5538 654.3156Q534.28815 653.675 535.5225 653.675Q536.7569 653.675 537.47565 654.3625Q538.1944 655.05 538.1944 656.0656Q538.1944 656.58124 537.97565 657.08124Q537.7725 657.5656 537.2725 658.1281Q536.78815 658.675 535.66315 659.6281Q534.71 660.425 534.4288 660.72186Q534.16315 661.0031 533.9913 661.28436L538.21 661.28436ZM539.66315 658.0656Q539.66315 656.53436 539.97565 655.6125Q540.28815 654.675 540.8975 654.175Q541.5225 653.675 542.46 653.675Q543.1475 653.675 543.66315 653.95624Q544.1944 654.2375 544.53815 654.76874Q544.8819 655.28436 545.0694 656.03436Q545.2569 656.78436 545.2569 658.0656Q545.2569 659.58124 544.9444 660.5031Q544.6475 661.425 544.0225 661.9406Q543.41315 662.4406 542.46 662.4406Q541.22565 662.4406 540.5069 661.55Q539.66315 660.4875 539.66315 658.0656ZM540.7413 658.0656Q540.7413 660.175 541.2413 660.8781Q541.7413 661.58124 542.46 661.58124Q543.1944 661.58124 543.6788 660.8781Q544.1788 660.175 544.1788 658.0656Q544.1788 655.9406 543.6788 655.2531Q543.1944 654.55 542.4444 654.55Q541.72565 654.55 541.28815 655.15936Q540.7413 655.9406 540.7413 658.0656Z" fill-rule="nonzero"/><path fill="#000000" d="M810.45264 660.03436L811.51514 659.89374Q811.687 660.78436 812.1245 661.1906Q812.562 661.58124 813.187 661.58124Q813.937 661.58124 814.45264 661.0656Q814.96826 660.55 814.96826 659.78436Q814.96826 659.0656 814.4839 658.59686Q814.01514 658.1125 813.28076 658.1125Q812.9839 658.1125 812.53076 658.2375L812.65576 657.3Q812.76514 657.3156 812.82764 657.3156Q813.4995 657.3156 814.03076 656.97186Q814.57764 656.6125 814.57764 655.8781Q814.57764 655.3 814.187 654.925Q813.7964 654.53436 813.1714 654.53436Q812.562 654.53436 812.14014 654.925Q811.7339 655.3156 811.6245 656.08124L810.562 655.89374Q810.7495 654.84686 811.437 654.26874Q812.1245 653.675 813.14014 653.675Q813.84326 653.675 814.437 653.9875Q815.03076 654.28436 815.34326 654.8Q815.65576 655.3156 815.65576 655.90936Q815.65576 656.45624 815.3589 656.925Q815.062 657.3781 814.4839 657.64374Q815.2339 657.8156 815.65576 658.3781Q816.07764 658.925 816.07764 659.76874Q816.07764 660.89374 815.2495 661.675Q814.437 662.45624 813.187 662.45624Q812.062 662.45624 811.312 661.78436Q810.562 661.09686 810.45264 660.03436ZM817.45264 658.0656Q817.45264 656.53436 817.76514 655.6125Q818.07764 654.675 818.687 654.175Q819.312 653.675 820.2495 653.675Q820.937 653.675 821.45264 653.95624Q821.9839 654.2375 822.32764 654.76874Q822.6714 655.28436 822.8589 656.03436Q823.0464 656.78436 823.0464 658.0656Q823.0464 659.58124 822.7339 660.5031Q822.437 661.425 821.812 661.9406Q821.20264 662.4406 820.2495 662.4406Q819.01514 662.4406 818.2964 661.55Q817.45264 660.4875 817.45264 658.0656ZM818.53076 658.0656Q818.53076 660.175 819.03076 660.8781Q819.53076 661.58124 820.2495 661.58124Q820.9839 661.58124 821.46826 660.8781Q821.96826 660.175 821.96826 658.0656Q821.96826 655.9406 821.46826 655.2531Q820.9839 654.55 820.2339 654.55Q819.51514 654.55 819.07764 655.15936Q818.53076 655.9406 818.53076 658.0656Z" fill-rule="nonzero"/><path fill="#000000" d="M1091.6171 662.3L1091.6171 660.2375L1087.8983 660.2375L1087.8983 659.26874L1091.8202 653.70624L1092.6796 653.70624L1092.6796 659.26874L1093.8358 659.26874L1093.8358 660.2375L1092.6796 660.2375L1092.6796 662.3L1091.6171 662.3ZM1091.6171 659.26874L1091.6171 655.40936L1088.9296 659.26874L1091.6171 659.26874ZM1095.2421 658.0656Q1095.2421 656.53436 1095.5546 655.6125Q1095.8671 654.675 1096.4764 654.175Q1097.1014 653.675 1098.039 653.675Q1098.7264 653.675 1099.2421 653.95624Q1099.7733 654.2375 1100.1171 654.76874Q1100.4608 655.28436 1100.6483 656.03436Q1100.8358 656.78436 1100.8358 658.0656Q1100.8358 659.58124 1100.5233 660.5031Q1100.2264 661.425 1099.6014 661.9406Q1098.9921 662.4406 1098.039 662.4406Q1096.8046 662.4406 1096.0858 661.55Q1095.2421 660.4875 1095.2421 658.0656ZM1096.3202 658.0656Q1096.3202 660.175 1096.8202 660.8781Q1097.3202 661.58124 1098.039 661.58124Q1098.7733 661.58124 1099.2577 660.8781Q1099.7577 660.175 1099.7577 658.0656Q1099.7577 655.9406 1099.2577 655.2531Q1098.7733 654.55 1098.0233 654.55Q1097.3046 654.55 1096.8671 655.15936Q1096.3202 655.9406 1096.3202 658.0656Z" fill-rule="nonzero"/><path stroke="#4285f4" stroke-width="4.0" stroke-linecap="butt" d="M523.0 92.166664L535.0 92.166664" fill-rule="nonzero"/><path fill="#1a1a1a" d="M543.9219 96.166664L543.9219 87.572914L546.8906 87.572914Q547.8906 87.572914 548.4219 87.697914Q549.15625 87.86979 549.6719 88.30729Q550.3594 88.885414 550.6875 89.791664Q551.03125 90.68229 551.03125 91.822914Q551.03125 92.80729 550.7969 93.55729Q550.5781 94.30729 550.21875 94.80729Q549.8594 95.30729 549.4219 95.58854Q549.0 95.86979 548.40625 96.02604Q547.8125 96.166664 547.03125 96.166664L543.9219 96.166664ZM545.0625 95.15104L546.8906 95.15104Q547.75 95.15104 548.2344 94.99479Q548.71875 94.83854 549.0 94.541664Q549.40625 94.15104 549.625 93.46354Q549.8594 92.77604 549.8594 91.80729Q549.8594 90.46354 549.40625 89.74479Q548.96875 89.010414 548.34375 88.760414Q547.875 88.58854 546.875 88.58854L545.0625 88.58854L545.0625 95.15104ZM552.78125 96.166664L552.78125 89.947914L553.7344 89.947914L553.7344 90.885414Q554.09375 90.229164 554.3906 90.02604Q554.7031 89.80729 555.0781 89.80729Q555.6094 89.80729 556.15625 90.135414L555.7969 91.11979Q555.40625 90.885414 555.03125 90.885414Q554.6719 90.885414 554.3906 91.104164Q554.125 91.30729 554.0156 91.68229Q553.8281 92.24479 553.8281 92.90104L553.8281 96.166664L552.78125 96.166664ZM560.8594 95.40104Q560.2656 95.90104 559.71875 96.104164Q559.1875 96.30729 558.5625 96.30729Q557.53125 96.30729 556.9844 95.80729Q556.4375 95.30729 556.4375 94.52604Q556.4375 94.072914 556.6406 93.697914Q556.84375 93.30729 557.1875 93.08854Q557.53125 92.854164 557.9531 92.74479Q558.25 92.65104 558.8906 92.572914Q560.15625 92.43229 560.7656 92.21354Q560.7656 91.99479 560.7656 91.947914Q560.7656 91.291664 560.46875 91.02604Q560.0625 90.68229 559.2656 90.68229Q558.53125 90.68229 558.1719 90.947914Q557.8125 91.197914 557.6406 91.854164L556.6094 91.71354Q556.75 91.05729 557.0781 90.65104Q557.40625 90.24479 558.0156 90.02604Q558.625 89.80729 559.4219 89.80729Q560.21875 89.80729 560.71875 89.99479Q561.21875 90.18229 561.4531 90.46354Q561.6875 90.74479 561.78125 91.18229Q561.8281 91.447914 561.8281 92.15104L561.8281 93.55729Q561.8281 95.02604 561.8906 95.416664Q561.96875 95.80729 562.1719 96.166664L561.0625 96.166664Q560.90625 95.83854 560.8594 95.40104ZM560.7656 93.041664Q560.1875 93.27604 559.0469 93.447914Q558.3906 93.541664 558.125 93.666664Q557.8594 93.77604 557.7031 93.99479Q557.5625 94.21354 557.5625 94.49479Q557.5625 94.916664 557.875 95.197914Q558.2031 95.479164 558.8125 95.479164Q559.4219 95.479164 559.8906 95.21354Q560.375 94.947914 560.59375 94.479164Q560.7656 94.11979 560.7656 93.43229L560.7656 93.041664ZM563.59375 96.68229L564.625 96.83854Q564.6875 97.30729 564.9844 97.52604Q565.375 97.822914 566.0469 97.822914Q566.78125 97.822914 567.1719 97.52604Q567.5781 97.229164 567.71875 96.71354Q567.8125 96.385414 567.7969 95.354164Q567.1094 96.166664 566.0781 96.166664Q564.7969 96.166664 564.09375 95.24479Q563.3906 94.30729 563.3906 93.02604Q563.3906 92.135414 563.7031 91.385414Q564.03125 90.61979 564.6406 90.21354Q565.25 89.80729 566.0781 89.80729Q567.1875 89.80729 567.90625 90.697914L567.90625 89.947914L568.875 89.947914L568.875 95.322914Q568.875 96.77604 568.5781 97.385414Q568.28125 97.99479 567.6406 98.33854Q567.0 98.697914 566.0625 98.697914Q564.9531 98.697914 564.2656 98.197914Q563.5781 97.697914 563.59375 96.68229ZM564.46875 92.947914Q564.46875 94.166664 564.9531 94.729164Q565.4375 95.291664 566.1719 95.291664Q566.90625 95.291664 567.3906 94.729164Q567.8906 94.166664 567.8906 92.979164Q567.8906 91.83854 567.375 91.260414Q566.875 90.68229 566.15625 90.68229Q565.4531 90.68229 564.9531 91.260414Q564.46875 91.822914 564.46875 92.947914ZM570.40625 93.05729Q570.40625 91.322914 571.3594 90.49479Q572.15625 89.80729 573.3125 89.80729Q574.59375 89.80729 575.40625 90.65104Q576.2344 91.479164 576.2344 92.96354Q576.2344 94.166664 575.875 94.854164Q575.5156 95.541664 574.8125 95.93229Q574.125 96.30729 573.3125 96.30729Q572.0156 96.30729 571.2031 95.479164Q570.40625 94.635414 570.40625 93.05729ZM571.4844 93.05729Q571.4844 94.24479 572.0 94.83854Q572.53125 95.43229 573.3125 95.43229Q574.1094 95.43229 574.625 94.83854Q575.1406 94.24479 575.1406 93.02604Q575.1406 91.86979 574.6094 91.27604Q574.09375 90.68229 573.3125 90.68229Q572.53125 90.68229 572.0 91.27604Q571.4844 91.854164 571.4844 93.05729ZM577.7969 96.166664L577.7969 89.947914L578.7344 89.947914L578.7344 90.822914Q579.4219 89.80729 580.71875 89.80729Q581.28125 89.80729 581.75 90.010414Q582.2344 90.21354 582.46875 90.541664Q582.7031 90.86979 582.7969 91.30729Q582.84375 91.604164 582.84375 92.33854L582.84375 96.166664L581.7969 96.166664L581.7969 92.385414Q581.7969 91.729164 581.6719 91.416664Q581.5469 91.104164 581.2344 90.916664Q580.9219 90.71354 580.5 90.71354Q579.8281 90.71354 579.3281 91.15104Q578.84375 91.572914 578.84375 92.760414L578.84375 96.166664L577.7969 96.166664ZM585.0469 96.166664L585.0469 90.760414L584.1094 90.760414L584.1094 89.947914L585.0469 89.947914L585.0469 89.27604Q585.0469 88.65104 585.15625 88.354164Q585.3125 87.93229 585.6875 87.68229Q586.0781 87.43229 586.7656 87.43229Q587.21875 87.43229 587.75 87.541664L587.59375 88.447914Q587.2656 88.40104 586.96875 88.40104Q586.4844 88.40104 586.28125 88.604164Q586.09375 88.80729 586.09375 89.36979L586.09375 89.947914L587.3125 89.947914L587.3125 90.760414L586.09375 90.760414L586.09375 96.166664L585.0469 96.166664ZM587.7656 96.166664L587.7656 87.572914L588.8281 87.572914L588.8281 96.166664L587.7656 96.166664ZM590.75 98.55729L590.625 97.572914Q590.96875 97.666664 591.2344 97.666664Q591.5781 97.666664 591.78125 97.541664Q592.0 97.43229 592.1406 97.229164Q592.2344 97.05729 592.46875 96.43229Q592.4844 96.354164 592.5625 96.18229L590.1875 89.947914L591.3281 89.947914L592.625 93.541664Q592.875 94.229164 593.0781 94.99479Q593.2656 94.260414 593.5156 93.572914L594.84375 89.947914L595.8906 89.947914L593.53125 96.27604Q593.1406 97.291664 592.9375 97.68229Q592.65625 98.21354 592.28125 98.447914Q591.9219 98.697914 591.4219 98.697914Q591.125 98.697914 590.75 98.55729Z" fill-rule="nonzero"/><path stroke="#ea4335" stroke-width="4.0" stroke-linecap="butt" d="M611.0 92.166664L623.0 92.166664" fill-rule="nonzero"/><path fill="#1a1a1a" d="M631.9375 96.166664L631.9375 87.572914L635.75 87.572914Q636.90625 87.572914 637.5 87.80729Q638.09375 88.041664 638.4531 88.635414Q638.8125 89.21354 638.8125 89.916664Q638.8125 90.83854 638.21875 91.46354Q637.625 92.08854 636.3906 92.260414Q636.84375 92.479164 637.0781 92.68229Q637.5781 93.135414 638.0156 93.822914L639.5156 96.166664L638.0781 96.166664L636.9531 94.385414Q636.4531 93.604164 636.125 93.197914Q635.8125 92.791664 635.5469 92.635414Q635.2969 92.46354 635.03125 92.385414Q634.84375 92.354164 634.40625 92.354164L633.0781 92.354164L633.0781 96.166664L631.9375 96.166664ZM633.0781 91.36979L635.53125 91.36979Q636.2969 91.36979 636.7344 91.21354Q637.1875 91.041664 637.40625 90.697914Q637.6406 90.33854 637.6406 89.916664Q637.6406 89.30729 637.1875 88.916664Q636.75 88.52604 635.7969 88.52604L633.0781 88.52604L633.0781 91.36979ZM645.0469 94.166664L646.1406 94.291664Q645.8906 95.24479 645.1875 95.77604Q644.4844 96.30729 643.40625 96.30729Q642.0469 96.30729 641.2344 95.46354Q640.4375 94.61979 640.4375 93.104164Q640.4375 91.541664 641.25 90.68229Q642.0625 89.80729 643.34375 89.80729Q644.59375 89.80729 645.375 90.65104Q646.1719 91.49479 646.1719 93.041664Q646.1719 93.135414 646.1719 93.322914L641.53125 93.322914Q641.59375 94.354164 642.1094 94.90104Q642.625 95.43229 643.40625 95.43229Q643.9844 95.43229 644.3906 95.135414Q644.8125 94.822914 645.0469 94.166664ZM641.59375 92.46354L645.0625 92.46354Q645.0 91.666664 644.6719 91.27604Q644.15625 90.666664 643.3594 90.666664Q642.625 90.666664 642.125 91.15104Q641.6406 91.635414 641.59375 92.46354ZM651.8281 96.166664L651.8281 95.385414Q651.2344 96.30729 650.09375 96.30729Q649.34375 96.30729 648.71875 95.90104Q648.09375 95.479164 647.75 94.74479Q647.40625 94.010414 647.40625 93.05729Q647.40625 92.135414 647.71875 91.36979Q648.03125 90.604164 648.65625 90.21354Q649.28125 89.80729 650.0469 89.80729Q650.6094 89.80729 651.0469 90.041664Q651.4844 90.27604 651.7656 90.65104L651.7656 87.572914L652.8125 87.572914L652.8125 96.166664L651.8281 96.166664ZM648.5 93.05729Q648.5 94.260414 649.0 94.854164Q649.5 95.43229 650.1875 95.43229Q650.875 95.43229 651.3594 94.86979Q651.84375 94.30729 651.84375 93.15104Q651.84375 91.86979 651.34375 91.27604Q650.8594 90.68229 650.1406 90.68229Q649.4375 90.68229 648.96875 91.260414Q648.5 91.822914 648.5 93.05729ZM654.7969 88.791664L654.7969 87.572914L655.8594 87.572914L655.8594 88.791664L654.7969 88.791664ZM654.7969 96.166664L654.7969 89.947914L655.8594 89.947914L655.8594 96.166664L654.7969 96.166664ZM657.375 94.30729L658.40625 94.15104Q658.5 94.77604 658.8906 95.104164Q659.2969 95.43229 660.03125 95.43229Q660.75 95.43229 661.09375 95.15104Q661.4531 94.854164 661.4531 94.447914Q661.4531 94.08854 661.1406 93.885414Q660.9219 93.74479 660.0625 93.52604Q658.90625 93.229164 658.4531 93.02604Q658.0156 92.80729 657.78125 92.43229Q657.5469 92.05729 657.5469 91.58854Q657.5469 91.18229 657.7344 90.822914Q657.9219 90.46354 658.25 90.229164Q658.5 90.05729 658.9219 89.93229Q659.34375 89.80729 659.84375 89.80729Q660.5625 89.80729 661.1094 90.02604Q661.6719 90.229164 661.9375 90.58854Q662.2031 90.947914 662.2969 91.541664L661.2656 91.68229Q661.2031 91.21354 660.8594 90.947914Q660.53125 90.666664 659.90625 90.666664Q659.1875 90.666664 658.875 90.916664Q658.5625 91.15104 658.5625 91.479164Q658.5625 91.68229 658.6875 91.83854Q658.8281 92.010414 659.09375 92.11979Q659.25 92.18229 660.03125 92.385414Q661.15625 92.697914 661.59375 92.885414Q662.03125 93.072914 662.28125 93.43229Q662.53125 93.791664 662.53125 94.33854Q662.53125 94.86979 662.21875 95.33854Q661.9219 95.791664 661.34375 96.05729Q660.7656 96.30729 660.03125 96.30729Q658.8125 96.30729 658.1719 95.80729Q657.5469 95.291664 657.375 94.30729Z" fill-rule="nonzero"/><path fill="#757575" d="M38.184376 55.7L38.184376 41.3875L41.04375 41.3875L44.41875 51.5125Q44.8875 52.934376 45.10625 53.6375Q45.35625 52.85625 45.871876 51.340626L49.29375 41.3875L51.840626 41.3875L51.840626 55.7L50.028126 55.7L50.028126 43.715626L45.85625 55.7L44.153126 55.7L40.0125 43.5125L40.0125 55.7L38.184376 55.7ZM62.121876 52.35625L63.934376 52.590626Q63.5125 54.16875 62.340626 55.059376Q61.184376 55.934376 59.371876 55.934376Q57.10625 55.934376 55.7625 54.54375Q54.434376 53.1375 54.434376 50.60625Q54.434376 47.98125 55.778126 46.54375Q57.121876 45.090626 59.278126 45.090626Q61.35625 45.090626 62.66875 46.5125Q63.996876 47.91875 63.996876 50.496876Q63.996876 50.653126 63.98125 50.965626L56.246876 50.965626Q56.340626 52.66875 57.215626 53.575Q58.090626 54.48125 59.3875 54.48125Q60.35625 54.48125 61.028126 53.98125Q61.715626 53.465626 62.121876 52.35625ZM56.340626 49.5125L62.1375 49.5125Q62.028126 48.215626 61.48125 47.559376Q60.6375 46.54375 59.29375 46.54375Q58.090626 46.54375 57.2625 47.35625Q56.434376 48.153126 56.340626 49.5125ZM66.0125 55.7L66.0125 45.325L67.59062 45.325L67.59062 46.778126Q68.075 46.028126 68.8875 45.559376Q69.7 45.090626 70.73125 45.090626Q71.8875 45.090626 72.62187 45.575Q73.35625 46.04375 73.66875 46.903126Q74.90312 45.090626 76.87187 45.090626Q78.41875 45.090626 79.24687 45.95Q80.075 46.809376 80.075 48.575L80.075 55.7L78.325 55.7L78.325 49.16875Q78.325 48.10625 78.15312 47.653126Q77.98125 47.184376 77.52812 46.903126Q77.09062 46.621876 76.48125 46.621876Q75.3875 46.621876 74.65312 47.35625Q73.93437 48.075 73.93437 49.66875L73.93437 55.7L72.18437 55.7L72.18437 48.965626Q72.18437 47.79375 71.74687 47.215626Q71.325 46.621876 70.34062 46.621876Q69.60625 46.621876 68.96562 47.0125Q68.34062 47.403126 68.05937 48.153126Q67.77812 48.903126 67.77812 50.325L67.77812 55.7L66.0125 55.7ZM81.37187 50.5125Q81.37187 47.6375 82.96562 46.246876Q84.30937 45.090626 86.23125 45.090626Q88.37187 45.090626 89.71562 46.496876Q91.075 47.903126 91.075 50.371876Q91.075 52.371876 90.48125 53.528126Q89.8875 54.66875 88.73125 55.309376Q87.59062 55.934376 86.23125 55.934376Q84.04375 55.934376 82.7 54.54375Q81.37187 53.1375 81.37187 50.5125ZM83.16875 50.5125Q83.16875 52.5125 84.02812 53.496876Q84.90312 54.48125 86.23125 54.48125Q87.54375 54.48125 88.40312 53.496876Q89.27812 52.496876 89.27812 50.45Q89.27812 48.528126 88.40312 47.54375Q87.52812 46.54375 86.23125 46.54375Q84.90312 46.54375 84.02812 47.54375Q83.16875 48.528126 83.16875 50.5125ZM92.99687 55.7L92.99687 45.325L94.575 45.325L94.575 46.903126Q95.18437 45.79375 95.7 45.45Q96.21562 45.090626 96.825 45.090626Q97.71562 45.090626 98.6375 45.653126L98.02812 47.29375Q97.3875 46.903126 96.74687 46.903126Q96.16875 46.903126 95.7 47.2625Q95.24687 47.60625 95.04375 48.215626Q94.7625 49.153126 94.7625 50.2625L94.7625 55.7L92.99687 55.7ZM99.93437 59.7L99.74687 58.04375Q100.325 58.2 100.74687 58.2Q101.34062 58.2 101.68437 57.996876Q102.04375 57.809376 102.2625 57.465626Q102.43437 57.2 102.80937 56.153126Q102.85625 55.996876 102.96562 55.715626L99.02812 45.325L100.91875 45.325L103.075 51.340626Q103.49687 52.48125 103.825 53.73125Q104.1375 52.528126 104.54375 51.371876L106.7625 45.325L108.52812 45.325L104.575 55.871876Q103.95 57.590626 103.59062 58.23125Q103.12187 59.10625 102.5125 59.496876Q101.91875 59.903126 101.075 59.903126Q100.55937 59.903126 99.93437 59.7ZM122.80937 55.7L122.80937 54.16875Q121.60625 55.934376 119.52812 55.934376Q118.60625 55.934376 117.80937 55.590626Q117.0125 55.23125 116.62187 54.7Q116.24687 54.16875 116.09062 53.3875Q115.98125 52.871876 115.98125 51.746876L115.98125 45.325L117.73125 45.325L117.73125 51.075Q117.73125 52.45 117.84062 52.934376Q118.0125 53.621876 118.54375 54.028126Q119.09062 54.41875 119.87187 54.41875Q120.66875 54.41875 121.35625 54.0125Q122.05937 53.60625 122.34062 52.91875Q122.6375 52.215626 122.6375 50.8875L122.6375 45.325L124.3875 45.325L124.3875 55.7L122.80937 55.7ZM125.30937 52.60625L127.05937 52.325Q127.2 53.371876 127.87187 53.934376Q128.54375 54.48125 129.74687 54.48125Q130.95 54.48125 131.52812 53.996876Q132.12187 53.496876 132.12187 52.840626Q132.12187 52.246876 131.60625 51.903126Q131.24687 51.66875 129.80937 51.309376Q127.87187 50.809376 127.12187 50.465626Q126.3875 50.10625 125.99687 49.48125Q125.60625 48.840626 125.60625 48.075Q125.60625 47.3875 125.91875 46.79375Q126.24687 46.2 126.79375 45.809376Q127.2 45.5125 127.90312 45.309376Q128.62187 45.090626 129.43437 45.090626Q130.65312 45.090626 131.575 45.45Q132.49687 45.79375 132.93437 46.403126Q133.37187 46.996876 133.54375 47.996876L131.825 48.23125Q131.7 47.434376 131.1375 46.996876Q130.575 46.54375 129.55937 46.54375Q128.34062 46.54375 127.825 46.95Q127.30937 47.340626 127.30937 47.871876Q127.30937 48.215626 127.52812 48.496876Q127.73125 48.778126 128.2 48.965626Q128.46562 49.059376 129.74687 49.403126Q131.62187 49.903126 132.35625 50.23125Q133.09062 50.54375 133.5125 51.153126Q133.93437 51.746876 133.93437 52.653126Q133.93437 53.528126 133.41875 54.309376Q132.90312 55.090626 131.93437 55.5125Q130.96562 55.934376 129.74687 55.934376Q127.73125 55.934376 126.66875 55.090626Q125.60625 54.246876 125.30937 52.60625ZM142.79375 54.41875Q141.80937 55.246876 140.90312 55.590626Q139.99687 55.934376 138.96562 55.934376Q137.2625 55.934376 136.34062 55.10625Q135.41875 54.2625 135.41875 52.965626Q135.41875 52.2 135.7625 51.575Q136.12187 50.95 136.68437 50.575Q137.24687 50.184376 137.95 49.98125Q138.46562 49.85625 139.5125 49.715626Q141.6375 49.465626 142.6375 49.121876Q142.65312 48.7625 142.65312 48.653126Q142.65312 47.590626 142.15312 47.1375Q141.48125 46.54375 140.15312 46.54375Q138.90312 46.54375 138.30937 46.98125Q137.73125 47.41875 137.45 48.528126L135.73125 48.29375Q135.96562 47.184376 136.49687 46.5125Q137.02812 45.825 138.04375 45.465626Q139.05937 45.090626 140.40312 45.090626Q141.73125 45.090626 142.55937 45.403126Q143.3875 45.715626 143.77812 46.2Q144.16875 46.66875 144.325 47.3875Q144.41875 47.840626 144.41875 49.0125L144.41875 51.35625Q144.41875 53.809376 144.52812 54.465626Q144.6375 55.10625 144.98125 55.7L143.1375 55.7Q142.87187 55.153126 142.79375 54.41875ZM142.6375 50.496876Q141.68437 50.8875 139.7625 51.153126Q138.68437 51.309376 138.23125 51.5125Q137.79375 51.7 137.54375 52.075Q137.29375 52.45 137.29375 52.91875Q137.29375 53.621876 137.825 54.090626Q138.35625 54.559376 139.3875 54.559376Q140.40312 54.559376 141.18437 54.121876Q141.98125 53.66875 142.35625 52.903126Q142.6375 52.29375 142.6375 51.1375L142.6375 50.496876ZM146.7 56.559376L148.40312 56.809376Q148.5125 57.60625 148.99687 57.965626Q149.65312 58.45 150.79375 58.45Q152.0125 58.45 152.66875 57.965626Q153.34062 57.48125 153.575 56.60625Q153.71562 56.059376 153.7 54.340626Q152.54375 55.7 150.825 55.7Q148.68437 55.7 147.5125 54.153126Q146.34062 52.60625 146.34062 50.45Q146.34062 48.965626 146.87187 47.715626Q147.41875 46.465626 148.43437 45.778126Q149.46562 45.090626 150.84062 45.090626Q152.66875 45.090626 153.87187 46.575L153.87187 45.325L155.48125 45.325L155.48125 54.29375Q155.48125 56.715626 154.98125 57.715626Q154.49687 58.73125 153.41875 59.309376Q152.35625 59.903126 150.79375 59.903126Q148.95 59.903126 147.79375 59.075Q146.65312 58.246876 146.7 56.559376ZM148.15312 50.325Q148.15312 52.371876 148.96562 53.309376Q149.77812 54.246876 150.99687 54.246876Q152.2 54.246876 153.0125 53.309376Q153.84062 52.371876 153.84062 50.3875Q153.84062 48.48125 152.99687 47.5125Q152.15312 46.54375 150.96562 46.54375Q149.79375 46.54375 148.96562 47.496876Q148.15312 48.45 148.15312 50.325ZM165.12187 52.35625L166.93437 52.590626Q166.5125 54.16875 165.34062 55.059376Q164.18437 55.934376 162.37187 55.934376Q160.10625 55.934376 158.7625 54.54375Q157.43437 53.1375 157.43437 50.60625Q157.43437 47.98125 158.77812 46.54375Q160.12187 45.090626 162.27812 45.090626Q164.35625 45.090626 165.66875 46.5125Q166.99687 47.91875 166.99687 50.496876Q166.99687 50.653126 166.98125 50.965626L159.24687 50.965626Q159.34062 52.66875 160.21562 53.575Q161.09062 54.48125 162.3875 54.48125Q163.35625 54.48125 164.02812 53.98125Q164.71562 53.465626 165.12187 52.35625ZM159.34062 49.5125L165.1375 49.5125Q165.02812 48.215626 164.48125 47.559376Q163.6375 46.54375 162.29375 46.54375Q161.09062 46.54375 160.2625 47.35625Q159.43437 48.153126 159.34062 49.5125ZM181.80937 55.7L181.80937 54.16875Q180.60625 55.934376 178.52812 55.934376Q177.60625 55.934376 176.80937 55.590626Q176.0125 55.23125 175.62187 54.7Q175.24687 54.16875 175.09062 53.3875Q174.98125 52.871876 174.98125 51.746876L174.98125 45.325L176.73125 45.325L176.73125 51.075Q176.73125 52.45 176.84062 52.934376Q177.0125 53.621876 177.54375 54.028126Q178.09062 54.41875 178.87187 54.41875Q179.66875 54.41875 180.35625 54.0125Q181.05937 53.60625 181.34062 52.91875Q181.6375 52.215626 181.6375 50.8875L181.6375 45.325L183.3875 45.325L183.3875 55.7L181.80937 55.7ZM185.0125 55.7L185.0125 45.325L186.60625 45.325L186.60625 46.809376Q187.74687 45.090626 189.90312 45.090626Q190.84062 45.090626 191.62187 45.434376Q192.41875 45.7625 192.80937 46.309376Q193.2 46.85625 193.35625 47.60625Q193.45 48.10625 193.45 49.325L193.45 55.7L191.68437 55.7L191.68437 49.3875Q191.68437 48.309376 191.48125 47.778126Q191.27812 47.246876 190.74687 46.934376Q190.23125 46.621876 189.52812 46.621876Q188.40312 46.621876 187.59062 47.340626Q186.77812 48.04375 186.77812 50.028126L186.77812 55.7L185.0125 55.7ZM201.74687 55.7L201.74687 54.3875Q200.7625 55.934376 198.84062 55.934376Q197.60625 55.934376 196.55937 55.246876Q195.52812 54.559376 194.95 53.340626Q194.3875 52.121876 194.3875 50.528126Q194.3875 48.965626 194.90312 47.7Q195.41875 46.434376 196.45 45.7625Q197.49687 45.090626 198.7625 45.090626Q199.7 45.090626 200.43437 45.496876Q201.16875 45.8875 201.6375 46.5125L201.6375 41.3875L203.37187 41.3875L203.37187 55.7L201.74687 55.7ZM196.18437 50.528126Q196.18437 52.5125 197.02812 53.496876Q197.87187 54.48125 199.0125 54.48125Q200.16875 54.48125 200.96562 53.54375Q201.77812 52.60625 201.77812 50.66875Q201.77812 48.54375 200.95 47.54375Q200.1375 46.54375 198.93437 46.54375Q197.7625 46.54375 196.96562 47.5125Q196.18437 48.465626 196.18437 50.528126ZM213.12187 52.35625L214.93437 52.590626Q214.5125 54.16875 213.34062 55.059376Q212.18437 55.934376 210.37187 55.934376Q208.10625 55.934376 206.7625 54.54375Q205.43437 53.1375 205.43437 50.60625Q205.43437 47.98125 206.77812 46.54375Q208.12187 45.090626 210.27812 45.090626Q212.35625 45.090626 213.66875 46.5125Q214.99687 47.91875 214.99687 50.496876Q214.99687 50.653126 214.98125 50.965626L207.24687 50.965626Q207.34062 52.66875 208.21562 53.575Q209.09062 54.48125 210.3875 54.48125Q211.35625 54.48125 212.02812 53.98125Q212.71562 53.465626 213.12187 52.35625ZM207.34062 49.5125L213.1375 49.5125Q213.02812 48.215626 212.48125 47.559376Q211.6375 46.54375 210.29375 46.54375Q209.09062 46.54375 208.2625 47.35625Q207.43437 48.153126 207.34062 49.5125ZM216.99687 55.7L216.99687 45.325L218.575 45.325L218.575 46.903126Q219.18437 45.79375 219.7 45.45Q220.21562 45.090626 220.825 45.090626Q221.71562 45.090626 222.6375 45.653126L222.02812 47.29375Q221.3875 46.903126 220.74687 46.903126Q220.16875 46.903126 219.7 47.2625Q219.24687 47.60625 219.04375 48.215626Q218.7625 49.153126 218.7625 50.2625L218.7625 55.7L216.99687 55.7ZM230.16875 55.7L230.16875 41.3875L235.54375 41.3875Q237.18437 41.3875 238.16875 41.825Q239.15312 42.246876 239.71562 43.153126Q240.27812 44.059376 240.27812 45.04375Q240.27812 45.965626 239.77812 46.778126Q239.29375 47.590626 238.27812 48.075Q239.575 48.465626 240.27812 49.3875Q240.98125 50.29375 240.98125 51.54375Q240.98125 52.559376 240.54375 53.41875Q240.12187 54.278126 239.49687 54.746876Q238.87187 55.215626 237.93437 55.465626Q236.99687 55.7 235.62187 55.7L230.16875 55.7ZM232.05937 47.403126L235.15312 47.403126Q236.41875 47.403126 236.96562 47.23125Q237.68437 47.0125 238.04375 46.528126Q238.41875 46.028126 238.41875 45.2625Q238.41875 44.559376 238.075 44.0125Q237.73125 43.465626 237.09062 43.278126Q236.46562 43.075 234.91875 43.075L232.05937 43.075L232.05937 47.403126ZM232.05937 54.0125L235.62187 54.0125Q236.54375 54.0125 236.91875 53.934376Q237.575 53.825 238.0125 53.559376Q238.45 53.278126 238.73125 52.7625Q239.0125 52.23125 239.0125 51.54375Q239.0125 50.746876 238.60625 50.153126Q238.2 49.559376 237.46562 49.325Q236.73125 49.090626 235.37187 49.090626L232.05937 49.090626L232.05937 54.0125ZM249.95 50.090626L249.95 48.403126L256.0125 48.3875L256.0125 53.7Q254.60625 54.825 253.12187 55.3875Q251.6375 55.95 250.075 55.95Q247.96562 55.95 246.24687 55.04375Q244.52812 54.1375 243.6375 52.434376Q242.7625 50.715626 242.7625 48.60625Q242.7625 46.5125 243.6375 44.715626Q244.5125 42.903126 246.15312 42.028126Q247.79375 41.1375 249.93437 41.1375Q251.48125 41.1375 252.73125 41.6375Q253.99687 42.1375 254.7 43.04375Q255.41875 43.934376 255.79375 45.3875L254.09062 45.85625Q253.7625 44.7625 253.27812 44.1375Q252.80937 43.5125 251.91875 43.1375Q251.02812 42.7625 249.95 42.7625Q248.6375 42.7625 247.68437 43.153126Q246.74687 43.54375 246.16875 44.2Q245.59062 44.840626 245.2625 45.60625Q244.71562 46.934376 244.71562 48.496876Q244.71562 50.403126 245.37187 51.7Q246.04375 52.98125 247.29375 53.60625Q248.55937 54.23125 249.96562 54.23125Q251.2 54.23125 252.37187 53.7625Q253.54375 53.29375 254.15312 52.746876L254.15312 50.090626L249.95 50.090626ZM258.60626 51.10625L260.3875 50.95Q260.5125 52.0125 260.96564 52.7Q261.4344 53.3875 262.40314 53.825Q263.3875 54.246876 264.6219 54.246876Q265.7 54.246876 266.52814 53.934376Q267.35626 53.60625 267.7625 53.04375Q268.16876 52.48125 268.16876 51.809376Q268.16876 51.1375 267.77814 50.6375Q267.3875 50.1375 266.4969 49.79375Q265.91876 49.559376 263.9344 49.090626Q261.96564 48.621876 261.1844 48.2Q260.15314 47.66875 259.65314 46.871876Q259.15314 46.075 259.15314 45.090626Q259.15314 43.996876 259.7625 43.059376Q260.3719 42.121876 261.5594 41.6375Q262.7469 41.1375 264.1844 41.1375Q265.77814 41.1375 266.9969 41.653126Q268.21564 42.16875 268.85626 43.16875Q269.5125 44.153126 269.5594 45.41875L267.7469 45.559376Q267.60626 44.2 266.7625 43.5125Q265.91876 42.809376 264.2625 42.809376Q262.54376 42.809376 261.7469 43.45Q260.96564 44.075 260.96564 44.95Q260.96564 45.73125 261.52814 46.23125Q262.075 46.73125 264.3875 47.246876Q266.7 47.7625 267.5594 48.153126Q268.8094 48.73125 269.40314 49.621876Q269.9969 50.496876 269.9969 51.653126Q269.9969 52.79375 269.34064 53.809376Q268.6844 54.825 267.45 55.3875Q266.23126 55.95 264.7 55.95Q262.7625 55.95 261.45 55.3875Q260.1375 54.809376 259.3875 53.66875Q258.6375 52.528126 258.60626 51.10625ZM270.66876 55.7L276.16876 41.3875L278.21564 41.3875L284.075 55.7L281.91876 55.7L280.2469 51.35625L274.2625 51.35625L272.6844 55.7L270.66876 55.7ZM274.8094 49.825L279.65314 49.825L278.16876 45.85625Q277.48126 44.04375 277.15314 42.8875Q276.8719 44.2625 276.3719 45.621876L274.8094 49.825ZM289.34064 55.7L283.79376 41.3875L285.84064 41.3875L289.5594 51.778126Q290.0125 53.028126 290.3094 54.121876Q290.6375 52.95 291.09064 51.778126L294.95 41.3875L296.8875 41.3875L291.27814 55.7L289.34064 55.7ZM298.27814 55.7L298.27814 41.3875L308.6375 41.3875L308.6375 43.075L300.1844 43.075L300.1844 47.45L308.09064 47.45L308.09064 49.1375L300.1844 49.1375L300.1844 54.0125L308.96564 54.0125L308.96564 55.7L298.27814 55.7Z" fill-rule="nonzero"/></svg>