<svg version="1.1" viewBox="0.0 0.0 1159.0 716.0" fill="none" stroke="none" stroke-linecap="square" stroke-miterlimit="10" width="1159" height="716" xmlns:xlink="http://www.w3.org/1999/xlink" xmlns="http://www.w3.org/2000/svg"><path fill="#ffffff" d="M0 0L1159.0 0L1159.0 716.0L0 716.0L0 0Z" fill-rule="nonzero"/><path stroke="#cccccc" stroke-width="1.0" stroke-linecap="butt" d="M256.5 128.5L256.5 628.5" fill-rule="nonzero"/><path stroke="#cccccc" stroke-width="1.0" stroke-linecap="butt" d="M527.5 128.5L527.5 628.5" fill-rule="nonzero"/><path stroke="#cccccc" stroke-width="1.0" stroke-linecap="butt" d="M798.5 128.5L798.5 628.5" fill-rule="nonzero"/><path stroke="#cccccc" stroke-width="1.0" stroke-linecap="butt" d="M1069.5 128.5L1069.5 628.5" fill-rule="nonzero"/><path stroke="#333333" stroke-width="1.0" stroke-linecap="butt" d="M93.5 628.5L1123.5 628.5" fill-rule="nonzero"/><path stroke="#cccccc" stroke-width="1.0" stroke-linecap="butt" d="M93.5 461.5L1123.5 461.5" fill-rule="nonzero"/><path stroke="#cccccc" stroke-width="1.0" stroke-linecap="butt" d="M93.5 295.5L1123.5 295.5" fill-rule="nonzero"/><path stroke="#cccccc" stroke-width="1.0" stroke-linecap="butt" d="M93.5 128.5L1123.5 128.5" fill-rule="nonzero"/><clipPath id="id_0"><path d="M93.8 128.53334L1123.2 128.53334L1123.2 628.2L93.8 628.2L93.8 128.53334Z" clip-rule="nonzero"/></clipPath><path stroke="#4285f4" stroke-width="2.0" stroke-linecap="butt" clip-path="url(#id_0)" d="M93.8 470.35425C93.8 470.35425 111.85965 470.3514 120.88947 470.3507C129.9193 470.35 138.94913 470.3508 147.97894 470.35004C157.00877 470.34924 166.03859 470.34674 175.06842 470.34607C184.09825 470.3454 193.12807 470.3459 202.1579 470.34595C211.18771 470.34598 220.21754 470.34476 229.24738 470.34634C238.27719 470.34793 247.30702 470.3554 256.33685 470.3555C265.36667 470.35556 274.39648 470.3569 283.42633 470.34674C292.45615 470.33658 301.48596 470.30273 310.51578 470.2945C319.54562 470.28625 328.57544 470.2965 337.60526 470.2972C346.6351 470.29794 355.66492 470.29858 364.69473 470.29886C373.72455 470.29913 382.7544 470.30185 391.7842 470.29886C400.81403 470.29587 409.84387 470.28183 418.8737 470.28085C427.9035 470.27988 436.93332 470.29095 445.96317 470.293C454.99298 470.29504 464.0228 470.29324 473.05264 470.29312C482.08246 470.29303 491.11227 470.29248 500.14212 470.2923C509.17194 470.29214 518.2018 470.2922 527.23157 470.29205C536.2614 470.29187 545.2912 470.33514 554.32104 470.29123C563.3509 470.24728 572.3807 470.08405 581.4105 470.02844C590.44037 469.97284 599.47015 469.96875 608.5 469.9576C617.52985 469.9465 626.55963 469.96164 635.5895 469.9617C644.6193 469.9618 653.6491 469.95728 662.67896 469.95804C671.7088 469.95877 680.7386 469.96616 689.76843 469.96622C698.7982 469.96625 707.82806 469.95804 716.8579 469.9583C725.8877 469.9586 734.91754 469.96683 743.9474 469.96786C752.9772 469.96887 762.007 469.96634 771.03687 469.96445C780.06665 469.96252 798.12634 469.9564 798.12634 469.9564" fill-rule="nonzero"/><path stroke="#ea4335" stroke-width="2.0" stroke-linecap="butt" clip-path="url(#id_0)" d="M93.8 401.02097C93.8 401.02097 111.85965 401.02094 120.88947 401.02097C129.9193 401.021 138.94913 401.0248 147.97894 401.0211C157.00877 401.01736 166.03859 401.0026 175.06842 400.9986C184.09825 400.99457 193.12807 400.99796 202.1579 400.99695C211.18771 400.99594 220.21754 400.99335 229.24738 400.99258C238.27719 400.99182 247.30702 400.99182 256.33685 400.9923C265.36667 400.9928 274.39648 400.99493 283.42633 400.99545C292.45615 400.99594 301.48596 400.99536 310.51578 400.9953C319.54562 400.99527 328.57544 400.99518 337.60526 400.99518C346.6351 400.99518 355.66492 404.37668 364.69473 400.9953C373.72455 397.61392 382.7544 386.9329 391.7842 380.70688C400.81403 374.4809 409.84387 369.03134 418.8737 363.6393C427.9035 358.24728 436.93332 353.4691 445.96317 348.35477C454.99298 343.24045 464.0228 337.95877 473.05264 332.95343C482.08246 327.94812 491.11227 322.9566 500.14212 318.32288C509.17194 313.68912 518.2018 309.43475 527.23157 305.151C536.2614 300.86725 545.2912 296.31055 554.32104 292.62042C563.3509 288.93027 572.3807 286.20718 581.4105 283.01022C590.44037 279.81326 599.47015 276.57205 608.5 273.43866C617.52985 270.3053 626.55963 267.23917 635.5895 264.21C644.6193 261.18082 653.6491 258.1377 662.67896 255.2636C671.7088 252.38951 680.7386 249.57597 689.76843 246.96545C698.7982 244.35492 707.82806 241.97816 716.8579 239.60043C725.8877 237.22269 734.91754 234.89304 743.9474 232.69904C752.9772 230.50505 762.007 228.43108 771.03687 226.43648C780.06665 224.44186 789.0965 222.49886 798.12634 220.73141C807.1561 218.96396 816.186 217.4384 825.21576 215.83177C834.2456 214.22514 843.27545 212.58295 852.30524 211.09163C861.3351 209.60031 870.3649 208.18806 879.3947 206.88388C888.42456 205.5797 897.4544 204.38052 906.4842 203.26653C915.51404 202.15251 924.5439 201.24211 933.57367 200.19984C942.6035 199.15758 951.63336 197.99274 960.66315 197.01295C969.693 196.03319 978.7228 195.21817 987.7526 194.32123C996.7825 193.42429 1005.81226 192.49947 1014.8421 191.63127C1023.87195 190.76306 1032.9017 160.76566 1041.9315 189.112C1050.9614 217.45834 1059.9912 327.66016 1069.021 361.70935C1078.0509 395.7585 1087.0807 388.12424 1096.1105 393.40707C1105.1404 398.6899 1123.2 393.40637 1123.2 393.40637" fill-rule="nonzero"/><path fill="#000000" fill-opacity="0.0" clip-path="url(#id_0)" d="M96.8 470.35425C96.8 472.0111 95.456856 473.35425 93.8 473.35425C92.14314 473.35425 90.8 472.0111 90.8 470.35425C90.8 468.6974 92.14314 467.35425 93.8 467.35425C95.456856 467.35425 96.8 468.6974 96.8 470.35425Z" fill-rule="nonzero"/><path fill="#000000" fill-opacity="0.0" clip-path="url(#id_0)" d="M123.88947 470.3507C123.88947 472.00757 122.546326 473.3507 120.88947 473.3507C119.23262 473.3507 117.88947 472.00757 117.88947 470.3507C117.88947 468.69385 119.23262 467.3507 120.88947 467.3507C122.546326 467.3507 123.88947 468.69385 123.88947 470.3507Z" fill-rule="nonzero"/><path fill="#000000" fill-opacity="0.0" clip-path="url(#id_0)" d="M150.97894 470.35004C150.97894 472.00687 149.6358 473.35004 147.97894 473.35004C146.3221 473.35004 144.97894 472.00687 144.97894 470.35004C144.97894 468.69318 146.3221 467.35004 147.97894 467.35004C149.6358 467.35004 150.97894 468.69318 150.97894 470.35004Z" fill-rule="nonzero"/><path fill="#000000" fill-opacity="0.0" clip-path="url(#id_0)" d="M178.06842 470.34607C178.06842 472.00293 176.72528 473.34607 175.06842 473.34607C173.41156 473.34607 172.06842 472.00293 172.06842 470.34607C172.06842 468.6892 173.41156 467.34607 175.06842 467.34607C176.72528 467.34607 178.06842 468.6892 178.06842 470.34607Z" fill-rule="nonzero"/><path fill="#000000" fill-opacity="0.0" clip-path="url(#id_0)" d="M205.1579 470.34595C205.1579 472.00278 203.81474 473.34595 202.1579 473.34595C200.50104 473.34595 199.1579 472.00278 199.1579 470.34595C199.1579 468.6891 200.50104 467.34595 202.1579 467.34595C203.81474 467.34595 205.1579 468.6891 205.1579 470.34595Z" fill-rule="nonzero"/><path fill="#000000" fill-opacity="0.0" clip-path="url(#id_0)" d="M232.24738 470.34634C232.24738 472.0032 230.90422 473.34634 229.24738 473.34634C227.59052 473.34634 226.24738 472.0032 226.24738 470.34634C226.24738 468.68948 227.59052 467.34634 229.24738 467.34634C230.90422 467.34634 232.24738 468.68948 232.24738 470.34634Z" fill-rule="nonzero"/><path fill="#000000" fill-opacity="0.0" clip-path="url(#id_0)" d="M259.33685 470.3555C259.33685 472.01233 257.99368 473.3555 256.33685 473.3555C254.68 473.3555 253.33684 472.01233 253.33684 470.3555C253.33684 468.69864 254.68 467.3555 256.33685 467.3555C257.99368 467.3555 259.33685 468.69864 259.33685 470.3555Z" fill-rule="nonzero"/><path fill="#000000" fill-opacity="0.0" clip-path="url(#id_0)" d="M286.42633 470.34674C286.42633 472.0036 285.08316 473.34674 283.42633 473.34674C281.76947 473.34674 280.42633 472.0036 280.42633 470.34674C280.42633 468.6899 281.76947 467.34674 283.42633 467.34674C285.08316 467.34674 286.42633 468.6899 286.42633 470.34674Z" fill-rule="nonzero"/><path fill="#000000" fill-opacity="0.0" clip-path="url(#id_0)" d="M313.51578 470.2945C313.51578 471.95135 312.17264 473.2945 310.51578 473.2945C308.85895 473.2945 307.51578 471.95135 307.51578 470.2945C307.51578 468.63763 308.85895 467.2945 310.51578 467.2945C312.17264 467.2945 313.51578 468.63763 313.51578 470.2945Z" fill-rule="nonzero"/><path fill="#000000" fill-opacity="0.0" clip-path="url(#id_0)" d="M340.60526 470.2972C340.60526 471.95407 339.26212 473.2972 337.60526 473.2972C335.9484 473.2972 334.60526 471.95407 334.60526 470.2972C334.60526 468.64038 335.9484 467.2972 337.60526 467.2972C339.26212 467.2972 340.60526 468.64038 340.60526 470.2972Z" fill-rule="nonzero"/><path fill="#000000" fill-opacity="0.0" clip-path="url(#id_0)" d="M367.69473 470.29886C367.69473 471.95572 366.3516 473.29886 364.69473 473.29886C363.03787 473.29886 361.69473 471.95572 361.69473 470.29886C361.69473 468.642 363.03787 467.29886 364.69473 467.29886C366.3516 467.29886 367.69473 468.642 367.69473 470.29886Z" fill-rule="nonzero"/><path fill="#000000" fill-opacity="0.0" clip-path="url(#id_0)" d="M394.7842 470.29886C394.7842 471.95572 393.44107 473.29886 391.7842 473.29886C390.12735 473.29886 388.7842 471.95572 388.7842 470.29886C388.7842 468.642 390.12735 467.29886 391.7842 467.29886C393.44107 467.29886 394.7842 468.642 394.7842 470.29886Z" fill-rule="nonzero"/><path fill="#000000" fill-opacity="0.0" clip-path="url(#id_0)" d="M421.8737 470.28085C421.8737 471.9377 420.53055 473.28085 418.8737 473.28085C417.21683 473.28085 415.8737 471.9377 415.8737 470.28085C415.8737 468.624 417.21683 467.28085 418.8737 467.28085C420.53055 467.28085 421.8737 468.624 421.8737 470.28085Z" fill-rule="nonzero"/><path fill="#000000" fill-opacity="0.0" clip-path="url(#id_0)" d="M448.96317 470.293C448.96317 471.94986 447.62003 473.293 445.96317 473.293C444.3063 473.293 442.96317 471.94986 442.96317 470.293C442.96317 468.63614 444.3063 467.293 445.96317 467.293C447.62003 467.293 448.96317 468.63614 448.96317 470.293Z" fill-rule="nonzero"/><path fill="#000000" fill-opacity="0.0" clip-path="url(#id_0)" d="M476.05264 470.29312C476.05264 471.94998 474.70947 473.29312 473.05264 473.29312C471.39578 473.29312 470.05264 471.94998 470.05264 470.29312C470.05264 468.63626 471.39578 467.29312 473.05264 467.29312C474.70947 467.29312 476.05264 468.63626 476.05264 470.29312Z" fill-rule="nonzero"/><path fill="#000000" fill-opacity="0.0" clip-path="url(#id_0)" d="M503.14212 470.2923C503.14212 471.94916 501.79895 473.2923 500.14212 473.2923C498.48526 473.2923 497.14212 471.94916 497.14212 470.2923C497.14212 468.63547 498.48526 467.2923 500.14212 467.2923C501.79895 467.2923 503.14212 468.63547 503.14212 470.2923Z" fill-rule="nonzero"/><path fill="#000000" fill-opacity="0.0" clip-path="url(#id_0)" d="M530.23157 470.29205C530.23157 471.94888 528.8884 473.29205 527.23157 473.29205C525.5747 473.29205 524.23157 471.94888 524.23157 470.29205C524.23157 468.6352 525.5747 467.29205 527.23157 467.29205C528.8884 467.29205 530.23157 468.6352 530.23157 470.29205Z" fill-rule="nonzero"/><path fill="#000000" fill-opacity="0.0" clip-path="url(#id_0)" d="M557.32104 470.29123C557.32104 471.94806 555.9779 473.29123 554.32104 473.29123C552.6642 473.29123 551.32104 471.94806 551.32104 470.29123C551.32104 468.63437 552.6642 467.29123 554.32104 467.29123C555.9779 467.29123 557.32104 468.63437 557.32104 470.29123Z" fill-rule="nonzero"/><path fill="#000000" fill-opacity="0.0" clip-path="url(#id_0)" d="M584.4105 470.02844C584.4105 471.68527 583.0674 473.02844 581.4105 473.02844C579.75366 473.02844 578.4105 471.68527 578.4105 470.02844C578.4105 468.37158 579.75366 467.02844 581.4105 467.02844C583.0674 467.02844 584.4105 468.37158 584.4105 470.02844Z" fill-rule="nonzero"/><path fill="#000000" fill-opacity="0.0" clip-path="url(#id_0)" d="M611.5 469.9576C611.5 471.61447 610.15686 472.9576 608.5 472.9576C606.84314 472.9576 605.5 471.61447 605.5 469.9576C605.5 468.30075 606.84314 466.9576 608.5 466.9576C610.15686 466.9576 611.5 468.30075 611.5 469.9576Z" fill-rule="nonzero"/><path fill="#000000" fill-opacity="0.0" clip-path="url(#id_0)" d="M638.5895 469.9617C638.5895 471.61856 637.24634 472.9617 635.5895 472.9617C633.9326 472.9617 632.5895 471.61856 632.5895 469.9617C632.5895 468.30487 633.9326 466.9617 635.5895 466.9617C637.24634 466.9617 638.5895 468.30487 638.5895 469.9617Z" fill-rule="nonzero"/><path fill="#000000" fill-opacity="0.0" clip-path="url(#id_0)" d="M665.67896 469.95804C665.67896 471.61487 664.3358 472.95804 662.67896 472.95804C661.0221 472.95804 659.67896 471.61487 659.67896 469.95804C659.67896 468.30118 661.0221 466.95804 662.67896 466.95804C664.3358 466.95804 665.67896 468.30118 665.67896 469.95804Z" fill-rule="nonzero"/><path fill="#000000" fill-opacity="0.0" clip-path="url(#id_0)" d="M692.76843 469.96622C692.76843 471.62308 691.4253 472.96622 689.76843 472.96622C688.1116 472.96622 686.76843 471.62308 686.76843 469.96622C686.76843 468.30936 688.1116 466.96622 689.76843 466.96622C691.4253 466.96622 692.76843 468.30936 692.76843 469.96622Z" fill-rule="nonzero"/><path fill="#000000" fill-opacity="0.0" clip-path="url(#id_0)" d="M719.8579 469.9583C719.8579 471.61514 718.5148 472.9583 716.8579 472.9583C715.20105 472.9583 713.8579 471.61514 713.8579 469.9583C713.8579 468.30145 715.20105 466.9583 716.8579 466.9583C718.5148 466.9583 719.8579 468.30145 719.8579 469.9583Z" fill-rule="nonzero"/><path fill="#000000" fill-opacity="0.0" clip-path="url(#id_0)" d="M746.9474 469.96786C746.9474 471.6247 745.60425 472.96786 743.9474 472.96786C742.2905 472.96786 740.9474 471.6247 740.9474 469.96786C740.9474 468.311 742.2905 466.96786 743.9474 466.96786C745.60425 466.96786 746.9474 468.311 746.9474 469.96786Z" fill-rule="nonzero"/><path fill="#000000" fill-opacity="0.0" clip-path="url(#id_0)" d="M774.03687 469.96445C774.03687 471.6213 772.6937 472.96445 771.03687 472.96445C769.38 472.96445 768.03687 471.6213 768.03687 469.96445C768.03687 468.3076 769.38 466.96445 771.03687 466.96445C772.6937 466.96445 774.03687 468.3076 774.03687 469.96445Z" fill-rule="nonzero"/><path fill="#000000" fill-opacity="0.0" clip-path="url(#id_0)" d="M801.12634 469.9564C801.12634 471.61325 799.78314 472.9564 798.12634 472.9564C796.4695 472.9564 795.12634 471.61325 795.12634 469.9564C795.12634 468.29953 796.4695 466.9564 798.12634 466.9564C799.78314 466.9564 801.12634 468.29953 801.12634 469.9564Z" fill-rule="nonzero"/><path fill="#000000" fill-opacity="0.0" clip-path="url(#id_0)" d="M96.8 401.02097C96.8 402.67783 95.456856 404.02097 93.8 404.02097C92.14314 404.02097 90.8 402.67783 90.8 401.02097C90.8 399.3641 92.14314 398.02097 93.8 398.02097C95.456856 398.02097 96.8 399.3641 96.8 401.02097Z" fill-rule="nonzero"/><path fill="#000000" fill-opacity="0.0" clip-path="url(#id_0)" d="M123.88947 401.02097C123.88947 402.67783 122.546326 404.02097 120.88947 404.02097C119.23262 404.02097 117.88947 402.67783 117.88947 401.02097C117.88947 399.3641 119.23262 398.02097 120.88947 398.02097C122.546326 398.02097 123.88947 399.3641 123.88947 401.02097Z" fill-rule="nonzero"/><path fill="#000000" fill-opacity="0.0" clip-path="url(#id_0)" d="M150.97894 401.0211C150.97894 402.67795 149.6358 404.0211 147.97894 404.0211C146.3221 404.0211 144.97894 402.67795 144.97894 401.0211C144.97894 399.36423 146.3221 398.0211 147.97894 398.0211C149.6358 398.0211 150.97894 399.36423 150.97894 401.0211Z" fill-rule="nonzero"/><path fill="#000000" fill-opacity="0.0" clip-path="url(#id_0)" d="M178.06842 400.9986C178.06842 402.65543 176.72528 403.9986 175.06842 403.9986C173.41156 403.9986 172.06842 402.65543 172.06842 400.9986C172.06842 399.34174 173.41156 397.9986 175.06842 397.9986C176.72528 397.9986 178.06842 399.34174 178.06842 400.9986Z" fill-rule="nonzero"/><path fill="#000000" fill-opacity="0.0" clip-path="url(#id_0)" d="M205.1579 400.99695C205.1579 402.6538 203.81474 403.99695 202.1579 403.99695C200.50104 403.99695 199.1579 402.6538 199.1579 400.99695C199.1579 399.3401 200.50104 397.99695 202.1579 397.99695C203.81474 397.99695 205.1579 399.3401 205.1579 400.99695Z" fill-rule="nonzero"/><path fill="#000000" fill-opacity="0.0" clip-path="url(#id_0)" d="M232.24738 400.99258C232.24738 402.64944 230.90422 403.99258 229.24738 403.99258C227.59052 403.99258 226.24738 402.64944 226.24738 400.99258C226.24738 399.33572 227.59052 397.99258 229.24738 397.99258C230.90422 397.99258 232.24738 399.33572 232.24738 400.99258Z" fill-rule="nonzero"/><path fill="#000000" fill-opacity="0.0" clip-path="url(#id_0)" d="M259.33685 400.9923C259.33685 402.64917 257.99368 403.9923 256.33685 403.9923C254.68 403.9923 253.33684 402.64917 253.33684 400.9923C253.33684 399.33545 254.68 397.9923 256.33685 397.9923C257.99368 397.9923 259.33685 399.33545 259.33685 400.9923Z" fill-rule="nonzero"/><path fill="#000000" fill-opacity="0.0" clip-path="url(#id_0)" d="M286.42633 400.99545C286.42633 402.6523 285.08316 403.99545 283.42633 403.99545C281.76947 403.99545 280.42633 402.6523 280.42633 400.99545C280.42633 399.3386 281.76947 397.99545 283.42633 397.99545C285.08316 397.99545 286.42633 399.3386 286.42633 400.99545Z" fill-rule="nonzero"/><path fill="#000000" fill-opacity="0.0" clip-path="url(#id_0)" d="M313.51578 400.9953C313.51578 402.65216 312.17264 403.9953 310.51578 403.9953C308.85895 403.9953 307.51578 402.65216 307.51578 400.9953C307.51578 399.33844 308.85895 397.9953 310.51578 397.9953C312.17264 397.9953 313.51578 399.33844 313.51578 400.9953Z" fill-rule="nonzero"/><path fill="#000000" fill-opacity="0.0" clip-path="url(#id_0)" d="M340.60526 400.99518C340.60526 402.65204 339.26212 403.99518 337.60526 403.99518C335.9484 403.99518 334.60526 402.65204 334.60526 400.99518C334.60526 399.33832 335.9484 397.99518 337.60526 397.99518C339.26212 397.99518 340.60526 399.33832 340.60526 400.99518Z" fill-rule="nonzero"/><path fill="#000000" fill-opacity="0.0" clip-path="url(#id_0)" d="M367.69473 400.9953C367.69473 402.65216 366.3516 403.9953 364.69473 403.9953C363.03787 403.9953 361.69473 402.65216 361.69473 400.9953C361.69473 399.33844 363.03787 397.9953 364.69473 397.9953C366.3516 397.9953 367.69473 399.33844 367.69473 400.9953Z" fill-rule="nonzero"/><path fill="#000000" fill-opacity="0.0" clip-path="url(#id_0)" d="M394.7842 380.70688C394.7842 382.36374 393.44107 383.70688 391.7842 383.70688C390.12735 383.70688 388.7842 382.36374 388.7842 380.70688C388.7842 379.05002 390.12735 377.70688 391.7842 377.70688C393.44107 377.70688 394.7842 379.05002 394.7842 380.70688Z" fill-rule="nonzero"/><path fill="#000000" fill-opacity="0.0" clip-path="url(#id_0)" d="M421.8737 363.6393C421.8737 365.29617 420.53055 366.6393 418.8737 366.6393C417.21683 366.6393 415.8737 365.29617 415.8737 363.6393C415.8737 361.98245 417.21683 360.6393 418.8737 360.6393C420.53055 360.6393 421.8737 361.98245 421.8737 363.6393Z" fill-rule="nonzero"/><path fill="#000000" fill-opacity="0.0" clip-path="url(#id_0)" d="M448.96317 348.35477C448.96317 350.01163 447.62003 351.35477 445.96317 351.35477C444.3063 351.35477 442.96317 350.01163 442.96317 348.35477C442.96317 346.6979 444.3063 345.35477 445.96317 345.35477C447.62003 345.35477 448.96317 346.6979 448.96317 348.35477Z" fill-rule="nonzero"/><path fill="#000000" fill-opacity="0.0" clip-path="url(#id_0)" d="M476.05264 332.95343C476.05264 334.6103 474.70947 335.95343 473.05264 335.95343C471.39578 335.95343 470.05264 334.6103 470.05264 332.95343C470.05264 331.29657 471.39578 329.95343 473.05264 329.95343C474.70947 329.95343 476.05264 331.29657 476.05264 332.95343Z" fill-rule="nonzero"/><path fill="#000000" fill-opacity="0.0" clip-path="url(#id_0)" d="M503.14212 318.32288C503.14212 319.9797 501.79895 321.32288 500.14212 321.32288C498.48526 321.32288 497.14212 319.9797 497.14212 318.32288C497.14212 316.66602 498.48526 315.32288 500.14212 315.32288C501.79895 315.32288 503.14212 316.66602 503.14212 318.32288Z" fill-rule="nonzero"/><path fill="#000000" fill-opacity="0.0" clip-path="url(#id_0)" d="M530.23157 305.151C530.23157 306.80786 528.8884 308.151 527.23157 308.151C525.5747 308.151 524.23157 306.80786 524.23157 305.151C524.23157 303.49414 525.5747 302.151 527.23157 302.151C528.8884 302.151 530.23157 303.49414 530.23157 305.151Z" fill-rule="nonzero"/><path fill="#000000" fill-opacity="0.0" clip-path="url(#id_0)" d="M557.32104 292.62042C557.32104 294.27725 555.9779 295.62042 554.32104 295.62042C552.6642 295.62042 551.32104 294.27725 551.32104 292.62042C551.32104 290.96356 552.6642 289.62042 554.32104 289.62042C555.9779 289.62042 557.32104 290.96356 557.32104 292.62042Z" fill-rule="nonzero"/><path fill="#000000" fill-opacity="0.0" clip-path="url(#id_0)" d="M584.4105 283.01022C584.4105 284.66708 583.0674 286.01022 581.4105 286.01022C579.75366 286.01022 578.4105 284.66708 578.4105 283.01022C578.4105 281.35336 579.75366 280.01022 581.4105 280.01022C583.0674 280.01022 584.4105 281.35336 584.4105 283.01022Z" fill-rule="nonzero"/><path fill="#000000" fill-opacity="0.0" clip-path="url(#id_0)" d="M611.5 273.43866C611.5 275.09552 610.15686 276.43866 608.5 276.43866C606.84314 276.43866 605.5 275.09552 605.5 273.43866C605.5 271.7818 606.84314 270.43866 608.5 270.43866C610.15686 270.43866 611.5 271.7818 611.5 273.43866Z" fill-rule="nonzero"/><path fill="#000000" fill-opacity="0.0" clip-path="url(#id_0)" d="M638.5895 264.21C638.5895 265.86682 637.24634 267.21 635.5895 267.21C633.9326 267.21 632.5895 265.86682 632.5895 264.21C632.5895 262.55313 633.9326 261.21 635.5895 261.21C637.24634 261.21 638.5895 262.55313 638.5895 264.21Z" fill-rule="nonzero"/><path fill="#000000" fill-opacity="0.0" clip-path="url(#id_0)" d="M665.67896 255.2636C665.67896 256.92044 664.3358 258.26358 662.67896 258.26358C661.0221 258.26358 659.67896 256.92044 659.67896 255.2636C659.67896 253.60674 661.0221 252.2636 662.67896 252.2636C664.3358 252.2636 665.67896 253.60674 665.67896 255.2636Z" fill-rule="nonzero"/><path fill="#000000" fill-opacity="0.0" clip-path="url(#id_0)" d="M692.76843 246.96545C692.76843 248.6223 691.4253 249.96545 689.76843 249.96545C688.1116 249.96545 686.76843 248.6223 686.76843 246.96545C686.76843 245.3086 688.1116 243.96545 689.76843 243.96545C691.4253 243.96545 692.76843 245.3086 692.76843 246.96545Z" fill-rule="nonzero"/><path fill="#000000" fill-opacity="0.0" clip-path="url(#id_0)" d="M719.8579 239.60043C719.8579 241.25728 718.5148 242.60043 716.8579 242.60043C715.20105 242.60043 713.8579 241.25728 713.8579 239.60043C713.8579 237.94357 715.20105 236.60043 716.8579 236.60043C718.5148 236.60043 719.8579 237.94357 719.8579 239.60043Z" fill-rule="nonzero"/><path fill="#000000" fill-opacity="0.0" clip-path="url(#id_0)" d="M746.9474 232.69904C746.9474 234.3559 745.60425 235.69904 743.9474 235.69904C742.2905 235.69904 740.9474 234.3559 740.9474 232.69904C740.9474 231.04219 742.2905 229.69904 743.9474 229.69904C745.60425 229.69904 746.9474 231.04219 746.9474 232.69904Z" fill-rule="nonzero"/><path fill="#000000" fill-opacity="0.0" clip-path="url(#id_0)" d="M774.03687 226.43648C774.03687 228.09332 772.6937 229.43648 771.03687 229.43648C769.38 229.43648 768.03687 228.09332 768.03687 226.43648C768.03687 224.77962 769.38 223.43648 771.03687 223.43648C772.6937 223.43648 774.03687 224.77962 774.03687 226.43648Z" fill-rule="nonzero"/><path fill="#000000" fill-opacity="0.0" clip-path="url(#id_0)" d="M801.12634 220.73141C801.12634 222.38826 799.78314 223.73141 798.12634 223.73141C796.4695 223.73141 795.12634 222.38826 795.12634 220.73141C795.12634 219.07455 796.4695 217.73141 798.12634 217.73141C799.78314 217.73141 801.12634 219.07455 801.12634 220.73141Z" fill-rule="nonzero"/><path fill="#000000" fill-opacity="0.0" clip-path="url(#id_0)" d="M828.21576 215.83177C828.21576 217.48862 826.8726 218.83177 825.21576 218.83177C823.55896 218.83177 822.21576 217.48862 822.21576 215.83177C822.21576 214.17491 823.55896 212.83177 825.21576 212.83177C826.8726 212.83177 828.21576 214.17491 828.21576 215.83177Z" fill-rule="nonzero"/><path fill="#000000" fill-opacity="0.0" clip-path="url(#id_0)" d="M855.30524 211.09163C855.30524 212.74847 853.9621 214.09163 852.30524 214.09163C850.64844 214.09163 849.30524 212.74847 849.30524 211.09163C849.30524 209.43477 850.64844 208.09163 852.30524 208.09163C853.9621 208.09163 855.30524 209.43477 855.30524 211.09163Z" fill-rule="nonzero"/><path fill="#000000" fill-opacity="0.0" clip-path="url(#id_0)" d="M882.3947 206.88388C882.3947 208.54074 881.0516 209.88388 879.3947 209.88388C877.73785 209.88388 876.3947 208.54074 876.3947 206.88388C876.3947 205.22702 877.73785 203.88388 879.3947 203.88388C881.0516 203.88388 882.3947 205.22702 882.3947 206.88388Z" fill-rule="nonzero"/><path fill="#000000" fill-opacity="0.0" clip-path="url(#id_0)" d="M909.4842 203.26653C909.4842 204.92337 908.14105 206.26653 906.4842 206.26653C904.82733 206.26653 903.4842 204.92337 903.4842 203.26653C903.4842 201.60966 904.82733 200.26653 906.4842 200.26653C908.14105 200.26653 909.4842 201.60966 909.4842 203.26653Z" fill-rule="nonzero"/><path fill="#000000" fill-opacity="0.0" clip-path="url(#id_0)" d="M936.57367 200.19984C936.57367 201.8567 935.2305 203.19984 933.57367 203.19984C931.9168 203.19984 930.57367 201.8567 930.57367 200.19984C930.57367 198.54298 931.9168 197.19984 933.57367 197.19984C935.2305 197.19984 936.57367 198.54298 936.57367 200.19984Z" fill-rule="nonzero"/><path fill="#000000" fill-opacity="0.0" clip-path="url(#id_0)" d="M963.66315 197.01295C963.66315 198.66982 962.32 200.01295 960.66315 200.01295C959.0063 200.01295 957.66315 198.66982 957.66315 197.01295C957.66315 195.35611 959.0063 194.01295 960.66315 194.01295C962.32 194.01295 963.66315 195.35611 963.66315 197.01295Z" fill-rule="nonzero"/><path fill="#000000" fill-opacity="0.0" clip-path="url(#id_0)" d="M990.7526 194.32123C990.7526 195.97809 989.4095 197.32123 987.7526 197.32123C986.09576 197.32123 984.7526 195.97809 984.7526 194.32123C984.7526 192.66437 986.09576 191.32123 987.7526 191.32123C989.4095 191.32123 990.7526 192.66437 990.7526 194.32123Z" fill-rule="nonzero"/><path fill="#000000" fill-opacity="0.0" clip-path="url(#id_0)" d="M1017.8421 191.63127C1017.8421 193.28812 1016.49896 194.63127 1014.8421 194.63127C1013.18524 194.63127 1011.8421 193.28812 1011.8421 191.63127C1011.8421 189.97441 1013.18524 188.63127 1014.8421 188.63127C1016.49896 188.63127 1017.8421 189.97441 1017.8421 191.63127Z" fill-rule="nonzero"/><path fill="#000000" fill-opacity="0.0" clip-path="url(#id_0)" d="M1044.9315 189.112C1044.9315 190.76884 1043.5884 192.112 1041.9315 192.112C1040.2748 192.112 1038.9315 190.76884 1038.9315 189.112C1038.9315 187.45514 1040.2748 186.112 1041.9315 186.112C1043.5884 186.112 1044.9315 187.45514 1044.9315 189.112Z" fill-rule="nonzero"/><path fill="#000000" fill-opacity="0.0" clip-path="url(#id_0)" d="M1072.021 361.70935C1072.021 363.36618 1070.6779 364.70935 1069.021 364.70935C1067.3643 364.70935 1066.021 363.36618 1066.021 361.70935C1066.021 360.0525 1067.3643 358.70935 1069.021 358.70935C1070.6779 358.70935 1072.021 360.0525 1072.021 361.70935Z" fill-rule="nonzero"/><path fill="#000000" fill-opacity="0.0" clip-path="url(#id_0)" d="M1099.1105 393.40707C1099.1105 395.06393 1097.7673 396.40707 1096.1105 396.40707C1094.4536 396.40707 1093.1105 395.06393 1093.1105 393.40707C1093.1105 391.7502 1094.4536 390.40707 1096.1105 390.40707C1097.7673 390.40707 1099.1105 391.7502 1099.1105 393.40707Z" fill-rule="nonzero"/><path fill="#000000" fill-opacity="0.0" clip-path="url(#id_0)" d="M1126.2 393.40637C1126.2 395.06323 1124.8568 396.40637 1123.2 396.40637C1121.5431 396.40637 1120.2 395.06323 1120.2 393.40637C1120.2 391.74954 1121.5431 390.40637 1123.2 390.40637C1124.8568 390.40637 1126.2 391.74954 1126.2 393.40637Z" fill-rule="nonzero"/><path fill="#000000" d="M583.6094 677.2L583.6094 669.6219L580.78125 669.6219L580.78125 668.60626L587.59375 668.60626L587.59375 669.6219L584.75 669.6219L584.75 677.2L583.6094 677.2ZM588.2969 669.825L588.2969 668.60626L589.3594 668.60626L589.3594 669.825L588.2969 669.825ZM588.2969 677.2L588.2969 670.98126L589.3594 670.98126L589.3594 677.2L588.2969 677.2ZM591.2969 677.2L591.2969 670.98126L592.2344 670.98126L592.2344 671.85626Q592.53125 671.3875 593.0156 671.1219Q593.5 670.84064 594.125 670.84064Q594.8125 670.84064 595.25 671.1219Q595.7031 671.40314 595.875 671.91876Q596.625 670.84064 597.7969 670.84064Q598.7344 670.84064 599.21875 671.35626Q599.71875 671.85626 599.71875 672.9344L599.71875 677.2L598.6719 677.2L598.6719 673.27814Q598.6719 672.65314 598.5625 672.3719Q598.46875 672.09064 598.2031 671.91876Q597.9375 671.7469 597.5625 671.7469Q596.90625 671.7469 596.46875 672.1844Q596.0469 672.6219 596.0469 673.59064L596.0469 677.2L594.9844 677.2L594.9844 673.15314Q594.9844 672.45 594.71875 672.10626Q594.46875 671.7469 593.8906 671.7469Q593.4375 671.7469 593.0625 671.98126Q592.6875 672.21564 592.5156 672.66876Q592.34375 673.1219 592.34375 673.96564L592.34375 677.2L591.2969 677.2ZM606.5469 675.2L607.6406 675.325Q607.3906 676.27814 606.6875 676.8094Q605.9844 677.34064 604.90625 677.34064Q603.5469 677.34064 602.7344 676.4969Q601.9375 675.65314 601.9375 674.1375Q601.9375 672.575 602.75 671.71564Q603.5625 670.84064 604.84375 670.84064Q606.09375 670.84064 606.875 671.6844Q607.6719 672.52814 607.6719 674.075Q607.6719 674.16876 607.6719 674.35626L603.03125 674.35626Q603.09375 675.3875 603.6094 675.9344Q604.125 676.46564 604.90625 676.46564Q605.4844 676.46564 605.8906 676.16876Q606.3125 675.85626 606.5469 675.2ZM603.09375 673.4969L606.5625 673.4969Q606.5 672.7 606.1719 672.3094Q605.65625 671.7 604.8594 671.7Q604.125 671.7 603.625 672.1844Q603.1406 672.66876 603.09375 673.4969ZM611.3125 679.73126Q610.4375 678.6219 609.8281 677.15314Q609.2344 675.66876 609.2344 674.09064Q609.2344 672.7 609.6719 671.41876Q610.2031 669.9344 611.3125 668.46564L612.0625 668.46564Q611.3594 669.6844 611.125 670.2Q610.7656 671.0125 610.5625 671.8875Q610.3125 672.98126 610.3125 674.09064Q610.3125 676.91876 612.0625 679.73126L611.3125 679.73126ZM612.875 675.34064L613.90625 675.1844Q614.0 675.8094 614.3906 676.1375Q614.7969 676.46564 615.53125 676.46564Q616.25 676.46564 616.59375 676.1844Q616.9531 675.8875 616.9531 675.48126Q616.9531 675.1219 616.6406 674.91876Q616.4219 674.77814 615.5625 674.5594Q614.40625 674.2625 613.9531 674.0594Q613.5156 673.84064 613.28125 673.46564Q613.0469 673.09064 613.0469 672.6219Q613.0469 672.21564 613.2344 671.85626Q613.4219 671.4969 613.75 671.2625Q614.0 671.09064 614.4219 670.96564Q614.84375 670.84064 615.34375 670.84064Q616.0625 670.84064 616.6094 671.0594Q617.1719 671.2625 617.4375 671.6219Q617.7031 671.98126 617.7969 672.575L616.7656 672.71564Q616.7031 672.2469 616.3594 671.98126Q616.03125 671.7 615.40625 671.7Q614.6875 671.7 614.375 671.95Q614.0625 672.1844 614.0625 672.5125Q614.0625 672.71564 614.1875 672.8719Q614.3281 673.04376 614.59375 673.15314Q614.75 673.21564 615.53125 673.41876Q616.65625 673.73126 617.09375 673.91876Q617.53125 674.10626 617.78125 674.46564Q618.03125 674.825 618.03125 675.3719Q618.03125 675.90314 617.71875 676.3719Q617.4219 676.825 616.84375 677.09064Q616.2656 677.34064 615.53125 677.34064Q614.3125 677.34064 613.6719 676.84064Q613.0469 676.325 612.875 675.34064ZM624.5469 675.2L625.6406 675.325Q625.3906 676.27814 624.6875 676.8094Q623.9844 677.34064 622.90625 677.34064Q621.5469 677.34064 620.7344 676.4969Q619.9375 675.65314 619.9375 674.1375Q619.9375 672.575 620.75 671.71564Q621.5625 670.84064 622.84375 670.84064Q624.09375 670.84064 624.875 671.6844Q625.6719 672.52814 625.6719 674.075Q625.6719 674.16876 625.6719 674.35626L621.03125 674.35626Q621.09375 675.3875 621.6094 675.9344Q622.125 676.46564 622.90625 676.46564Q623.4844 676.46564 623.8906 676.16876Q624.3125 675.85626 624.5469 675.2ZM621.09375 673.4969L624.5625 673.4969Q624.5 672.7 624.1719 672.3094Q623.65625 671.7 622.8594 671.7Q622.125 671.7 621.625 672.1844Q621.1406 672.66876 621.09375 673.4969ZM631.3594 674.91876L632.3906 675.0594Q632.21875 676.1219 631.5156 676.73126Q630.8125 677.34064 629.7969 677.34064Q628.5156 677.34064 627.7344 676.5125Q626.96875 675.66876 626.96875 674.10626Q626.96875 673.10626 627.2969 672.35626Q627.6406 671.59064 628.3125 671.21564Q629.0 670.84064 629.8125 670.84064Q630.8125 670.84064 631.4531 671.35626Q632.1094 671.85626 632.2969 672.8094L631.2656 672.96564Q631.125 672.34064 630.75 672.02814Q630.375 671.7 629.84375 671.7Q629.0469 671.7 628.5469 672.27814Q628.0469 672.84064 628.0469 674.075Q628.0469 675.34064 628.53125 675.90314Q629.0156 676.46564 629.78125 676.46564Q630.40625 676.46564 630.8125 676.09064Q631.2344 675.71564 631.3594 674.91876ZM633.9844 679.73126L633.2344 679.73126Q634.9844 676.91876 634.9844 674.09064Q634.9844 672.9969 634.7344 671.90314Q634.53125 671.02814 634.1719 670.21564Q633.9375 669.7 633.2344 668.46564L633.9844 668.46564Q635.0781 669.9344 635.6094 671.41876Q636.0625 672.7 636.0625 674.09064Q636.0625 675.66876 635.4531 677.15314Q634.84375 678.6219 633.9844 679.73126Z" fill-rule="nonzero"/><path fill="#000000" d="M64.3 627.96564Q64.3 626.4344 64.6125 625.5125Q64.925 624.575 65.53438 624.075Q66.15938 623.575 67.09688 623.575Q67.78438 623.575 68.3 623.85626Q68.83125 624.1375 69.175 624.66876Q69.51875 625.1844 69.70625 625.9344Q69.89375 626.6844 69.89375 627.96564Q69.89375 629.48126 69.58125 630.40314Q69.28438 631.325 68.65938 631.84064Q68.05 632.34064 67.09688 632.34064Q65.8625 632.34064 65.14375 631.45Q64.3 630.3875 64.3 627.96564ZM65.37813 627.96564Q65.37813 630.075 65.87813 630.77814Q66.37813 631.48126 67.09688 631.48126Q67.83125 631.48126 68.31563 630.77814Q68.81563 630.075 68.81563 627.96564Q68.81563 625.84064 68.31563 625.15314Q67.83125 624.45 67.08125 624.45Q66.3625 624.45 65.925 625.0594Q65.37813 625.84064 65.37813 627.96564ZM71.69063 632.2L71.69063 623.60626L73.40938 623.60626L75.44063 629.6844Q75.72188 630.54376 75.84688 630.96564Q75.9875 630.4969 76.3 629.59064L78.3625 623.60626L79.89375 623.60626L79.89375 632.2L78.8 632.2L78.8 625.0125L76.3 632.2L75.26875 632.2L72.78438 624.8875L72.78438 632.2L71.69063 632.2ZM80.675 632.2L80.675 623.60626L83.90938 623.60626Q84.89375 623.60626 85.4875 623.8719Q86.08125 624.1375 86.40938 624.6844Q86.75313 625.21564 86.75313 625.8094Q86.75313 626.35626 86.45625 626.84064Q86.15938 627.325 85.55 627.6219Q86.33125 627.85626 86.7375 628.41876Q87.15938 628.96564 87.15938 629.71564Q87.15938 630.3094 86.90938 630.84064Q86.65938 631.35626 86.28438 631.6375Q85.90938 631.91876 85.33125 632.0594Q84.76875 632.2 83.95625 632.2L80.675 632.2ZM81.81563 627.21564L83.675 627.21564Q84.425 627.21564 84.75313 627.1219Q85.19063 626.9969 85.40938 626.7Q85.62813 626.3875 85.62813 625.9344Q85.62813 625.5125 85.425 625.1844Q85.22188 624.85626 84.83125 624.7469Q84.45625 624.6219 83.53438 624.6219L81.81563 624.6219L81.81563 627.21564ZM81.81563 631.1844L83.95625 631.1844Q84.50313 631.1844 84.72188 631.1375Q85.12813 631.075 85.37813 630.91876Q85.64375 630.7469 85.81563 630.4344Q85.9875 630.1219 85.9875 629.71564Q85.9875 629.23126 85.7375 628.8719Q85.50313 628.5125 85.06563 628.3719Q84.62813 628.23126 83.8 628.23126L81.81563 628.23126L81.81563 631.1844Z" fill-rule="nonzero"/><path fill="#000000" d="M43.3 463.39444L44.409374 463.3007Q44.534374 464.1132 44.971874 464.51944Q45.425 464.9257 46.065624 464.9257Q46.815624 464.9257 47.346874 464.34756Q47.878124 463.76944 47.878124 462.83194Q47.878124 461.9257 47.3625 461.41006Q46.8625 460.8788 46.034374 460.8788Q45.534374 460.8788 45.1125 461.1132Q44.70625 461.34756 44.471874 461.70694L43.4875 461.58194L44.315624 457.1757L48.596874 457.1757L48.596874 458.1757L45.159374 458.1757L44.70625 460.4882Q45.471874 459.9413 46.315624 459.9413Q47.440624 459.9413 48.20625 460.72256Q48.9875 461.5038 48.9875 462.7382Q48.9875 463.89444 48.315624 464.7538Q47.4875 465.78506 46.065624 465.78506Q44.89375 465.78506 44.14375 465.1288Q43.409374 464.47256 43.3 463.39444ZM50.3 461.41006Q50.3 459.8788 50.6125 458.95694Q50.925 458.01944 51.534374 457.51944Q52.159374 457.01944 53.096874 457.01944Q53.784374 457.01944 54.3 457.3007Q54.83125 457.58194 55.175 458.1132Q55.51875 458.6288 55.70625 459.3788Q55.89375 460.1288 55.89375 461.41006Q55.89375 462.9257 55.58125 463.84756Q55.284374 464.76944 54.659374 465.28506Q54.05 465.78506 53.096874 465.78506Q51.8625 465.78506 51.14375 464.89444Q50.3 463.83194 50.3 461.41006ZM51.378124 461.41006Q51.378124 463.51944 51.878124 464.22256Q52.378124 464.9257 53.096874 464.9257Q53.83125 464.9257 54.315624 464.22256Q54.815624 463.51944 54.815624 461.41006Q54.815624 459.28506 54.315624 458.59756Q53.83125 457.89444 53.08125 457.89444Q52.3625 457.89444 51.925 458.5038Q51.378124 459.28506 51.378124 461.41006ZM57.3 461.41006Q57.3 459.8788 57.6125 458.95694Q57.925 458.01944 58.534374 457.51944Q59.159374 457.01944 60.096874 457.01944Q60.784374 457.01944 61.3 457.3007Q61.83125 457.58194 62.175 458.1132Q62.51875 458.6288 62.70625 459.3788Q62.89375 460.1288 62.89375 461.41006Q62.89375 462.9257 62.58125 463.84756Q62.284374 464.76944 61.659374 465.28506Q61.05 465.78506 60.096874 465.78506Q58.8625 465.78506 58.14375 464.89444Q57.3 463.83194 57.3 461.41006ZM58.378124 461.41006Q58.378124 463.51944 58.878124 464.22256Q59.378124 464.9257 60.096874 464.9257Q60.83125 464.9257 61.315624 464.22256Q61.815624 463.51944 61.815624 461.41006Q61.815624 459.28506 61.315624 458.59756Q60.83125 457.89444 60.08125 457.89444Q59.3625 457.89444 58.925 458.5038Q58.378124 459.28506 58.378124 461.41006ZM64.3 461.41006Q64.3 459.8788 64.6125 458.95694Q64.925 458.01944 65.53438 457.51944Q66.15938 457.01944 67.09688 457.01944Q67.78438 457.01944 68.3 457.3007Q68.83125 457.58194 69.175 458.1132Q69.51875 458.6288 69.70625 459.3788Q69.89375 460.1288 69.89375 461.41006Q69.89375 462.9257 69.58125 463.84756Q69.28438 464.76944 68.65938 465.28506Q68.05 465.78506 67.09688 465.78506Q65.8625 465.78506 65.14375 464.89444Q64.3 463.83194 64.3 461.41006ZM65.37813 461.41006Q65.37813 463.51944 65.87813 464.22256Q66.37813 464.9257 67.09688 464.9257Q67.83125 464.9257 68.31563 464.22256Q68.81563 463.51944 68.81563 461.41006Q68.81563 459.28506 68.31563 458.59756Q67.83125 457.89444 67.08125 457.89444Q66.3625 457.89444 65.925 458.5038Q65.37813 459.28506 65.37813 461.41006ZM71.69063 465.64444L71.69063 457.0507L73.40938 457.0507L75.44063 463.1288Q75.72188 463.9882 75.84688 464.41006Q75.9875 463.9413 76.3 463.03506L78.3625 457.0507L79.89375 457.0507L79.89375 465.64444L78.8 465.64444L78.8 458.45694L76.3 465.64444L75.26875 465.64444L72.78438 458.33194L72.78438 465.64444L71.69063 465.64444ZM80.675 465.64444L80.675 457.0507L83.90938 457.0507Q84.89375 457.0507 85.4875 457.3163Q86.08125 457.58194 86.40938 458.1288Q86.75313 458.66006 86.75313 459.2538Q86.75313 459.8007 86.45625 460.28506Q86.15938 460.76944 85.55 461.0663Q86.33125 461.3007 86.7375 461.8632Q87.15938 462.41006 87.15938 463.16006Q87.15938 463.7538 86.90938 464.28506Q86.65938 464.8007 86.28438 465.08194Q85.90938 465.3632 85.33125 465.5038Q84.76875 465.64444 83.95625 465.64444L80.675 465.64444ZM81.81563 460.66006L83.675 460.66006Q84.425 460.66006 84.75313 460.5663Q85.19063 460.4413 85.40938 460.14444Q85.62813 459.83194 85.62813 459.3788Q85.62813 458.95694 85.425 458.6288Q85.22188 458.3007 84.83125 458.1913Q84.45625 458.0663 83.53438 458.0663L81.81563 458.0663L81.81563 460.66006ZM81.81563 464.6288L83.95625 464.6288Q84.50313 464.6288 84.72188 464.58194Q85.12813 464.51944 85.37813 464.3632Q85.64375 464.1913 85.81563 463.8788Q85.9875 463.5663 85.9875 463.16006Q85.9875 462.6757 85.7375 462.3163Q85.50313 461.95694 85.06563 461.8163Q84.62813 461.6757 83.8 461.6757L81.81563 461.6757L81.81563 464.6288Z" fill-rule="nonzero"/><path fill="#000000" d="M40.26875 299.0889L39.221874 299.0889L39.221874 292.37015Q38.83125 292.72952 38.20625 293.10452Q37.596874 293.4639 37.1125 293.63577L37.1125 292.62015Q37.9875 292.19827 38.64375 291.62015Q39.315624 291.0264 39.596874 290.4639L40.26875 290.4639L40.26875 299.0889ZM43.3 294.85452Q43.3 293.32327 43.6125 292.4014Q43.925 291.4639 44.534374 290.9639Q45.159374 290.4639 46.096874 290.4639Q46.784374 290.4639 47.3 290.74515Q47.83125 291.0264 48.175 291.55765Q48.51875 292.07327 48.70625 292.82327Q48.89375 293.57327 48.89375 294.85452Q48.89375 296.37015 48.58125 297.29202Q48.284374 298.2139 47.659374 298.72952Q47.05 299.22952 46.096874 299.22952Q44.8625 299.22952 44.14375 298.3389Q43.3 297.2764 43.3 294.85452ZM44.378124 294.85452Q44.378124 296.9639 44.878124 297.66702Q45.378124 298.37015 46.096874 298.37015Q46.83125 298.37015 47.315624 297.66702Q47.815624 296.9639 47.815624 294.85452Q47.815624 292.72952 47.315624 292.04202Q46.83125 291.3389 46.08125 291.3389Q45.3625 291.3389 44.925 291.94827Q44.378124 292.72952 44.378124 294.85452ZM50.3 294.85452Q50.3 293.32327 50.6125 292.4014Q50.925 291.4639 51.534374 290.9639Q52.159374 290.4639 53.096874 290.4639Q53.784374 290.4639 54.3 290.74515Q54.83125 291.0264 55.175 291.55765Q55.51875 292.07327 55.70625 292.82327Q55.89375 293.57327 55.89375 294.85452Q55.89375 296.37015 55.58125 297.29202Q55.284374 298.2139 54.659374 298.72952Q54.05 299.22952 53.096874 299.22952Q51.8625 299.22952 51.14375 298.3389Q50.3 297.2764 50.3 294.85452ZM51.378124 294.85452Q51.378124 296.9639 51.878124 297.66702Q52.378124 298.37015 53.096874 298.37015Q53.83125 298.37015 54.315624 297.66702Q54.815624 296.9639 54.815624 294.85452Q54.815624 292.72952 54.315624 292.04202Q53.83125 291.3389 53.08125 291.3389Q52.3625 291.3389 51.925 291.94827Q51.378124 292.72952 51.378124 294.85452ZM57.3 294.85452Q57.3 293.32327 57.6125 292.4014Q57.925 291.4639 58.534374 290.9639Q59.159374 290.4639 60.096874 290.4639Q60.784374 290.4639 61.3 290.74515Q61.83125 291.0264 62.175 291.55765Q62.51875 292.07327 62.70625 292.82327Q62.89375 293.57327 62.89375 294.85452Q62.89375 296.37015 62.58125 297.29202Q62.284374 298.2139 61.659374 298.72952Q61.05 299.22952 60.096874 299.22952Q58.8625 299.22952 58.14375 298.3389Q57.3 297.2764 57.3 294.85452ZM58.378124 294.85452Q58.378124 296.9639 58.878124 297.66702Q59.378124 298.37015 60.096874 298.37015Q60.83125 298.37015 61.315624 297.66702Q61.815624 296.9639 61.815624 294.85452Q61.815624 292.72952 61.315624 292.04202Q60.83125 291.3389 60.08125 291.3389Q59.3625 291.3389 58.925 291.94827Q58.378124 292.72952 58.378124 294.85452ZM64.3 294.85452Q64.3 293.32327 64.6125 292.4014Q64.925 291.4639 65.53438 290.9639Q66.15938 290.4639 67.09688 290.4639Q67.78438 290.4639 68.3 290.74515Q68.83125 291.0264 69.175 291.55765Q69.51875 292.07327 69.70625 292.82327Q69.89375 293.57327 69.89375 294.85452Q69.89375 296.37015 69.58125 297.29202Q69.28438 298.2139 68.65938 298.72952Q68.05 299.22952 67.09688 299.22952Q65.8625 299.22952 65.14375 298.3389Q64.3 297.2764 64.3 294.85452ZM65.37813 294.85452Q65.37813 296.9639 65.87813 297.66702Q66.37813 298.37015 67.09688 298.37015Q67.83125 298.37015 68.31563 297.66702Q68.81563 296.9639 68.81563 294.85452Q68.81563 292.72952 68.31563 292.04202Q67.83125 291.3389 67.08125 291.3389Q66.3625 291.3389 65.925 291.94827Q65.37813 292.72952 65.37813 294.85452ZM71.69063 299.0889L71.69063 290.49515L73.40938 290.49515L75.44063 296.57327Q75.72188 297.43265 75.84688 297.85452Q75.9875 297.38577 76.3 296.47952L78.3625 290.49515L79.89375 290.49515L79.89375 299.0889L78.8 299.0889L78.8 291.9014L76.3 299.0889L75.26875 299.0889L72.78438 291.7764L72.78438 299.0889L71.69063 299.0889ZM80.675 299.0889L80.675 290.49515L83.90938 290.49515Q84.89375 290.49515 85.4875 290.76077Q86.08125 291.0264 86.40938 291.57327Q86.75313 292.10452 86.75313 292.69827Q86.75313 293.24515 86.45625 293.72952Q86.15938 294.2139 85.55 294.51077Q86.33125 294.74515 86.7375 295.30765Q87.15938 295.85452 87.15938 296.60452Q87.15938 297.19827 86.90938 297.72952Q86.65938 298.24515 86.28438 298.5264Q85.90938 298.80765 85.33125 298.94827Q84.76875 299.0889 83.95625 299.0889L80.675 299.0889ZM81.81563 294.10452L83.675 294.10452Q84.425 294.10452 84.75313 294.01077Q85.19063 293.88577 85.40938 293.5889Q85.62813 293.2764 85.62813 292.82327Q85.62813 292.4014 85.425 292.07327Q85.22188 291.74515 84.83125 291.63577Q84.45625 291.51077 83.53438 291.51077L81.81563 291.51077L81.81563 294.10452ZM81.81563 298.07327L83.95625 298.07327Q84.50313 298.07327 84.72188 298.0264Q85.12813 297.9639 85.37813 297.80765Q85.64375 297.63577 85.81563 297.32327Q85.9875 297.01077 85.9875 296.60452Q85.9875 296.12015 85.7375 295.76077Q85.50313 295.4014 85.06563 295.26077Q84.62813 295.12015 83.8 295.12015L81.81563 295.12015L81.81563 298.07327Z" fill-rule="nonzero"/><path fill="#000000" d="M40.26875 132.53334L39.221874 132.53334L39.221874 125.81459Q38.83125 126.173965 38.20625 126.548965Q37.596874 126.90834 37.1125 127.080215L37.1125 126.06459Q37.9875 125.642715 38.64375 125.06459Q39.315624 124.47084 39.596874 123.90834L40.26875 123.90834L40.26875 132.53334ZM43.3 130.28334L44.409374 130.18959Q44.534374 131.00209 44.971874 131.40834Q45.425 131.81459 46.065624 131.81459Q46.815624 131.81459 47.346874 131.23647Q47.878124 130.65834 47.878124 129.72084Q47.878124 128.81459 47.3625 128.29897Q46.8625 127.767715 46.034374 127.767715Q45.534374 127.767715 45.1125 128.00209Q44.70625 128.23647 44.471874 128.59584L43.4875 128.47084L44.315624 124.06459L48.596874 124.06459L48.596874 125.06459L45.159374 125.06459L44.70625 127.37709Q45.471874 126.830215 46.315624 126.830215Q47.440624 126.830215 48.20625 127.611465Q48.9875 128.39272 48.9875 129.62709Q48.9875 130.78334 48.315624 131.64272Q47.4875 132.67397 46.065624 132.67397Q44.89375 132.67397 44.14375 132.01772Q43.409374 131.36147 43.3 130.28334ZM50.3 128.29897Q50.3 126.767715 50.6125 125.84584Q50.925 124.90834 51.534374 124.40834Q52.159374 123.90834 53.096874 123.90834Q53.784374 123.90834 54.3 124.18959Q54.83125 124.47084 55.175 125.00209Q55.51875 125.517715 55.70625 126.267715Q55.89375 127.017715 55.89375 128.29897Q55.89375 129.81459 55.58125 130.73647Q55.284374 131.65834 54.659374 132.17397Q54.05 132.67397 53.096874 132.67397Q51.8625 132.67397 51.14375 131.78334Q50.3 130.72084 50.3 128.29897ZM51.378124 128.29897Q51.378124 130.40834 51.878124 131.11147Q52.378124 131.81459 53.096874 131.81459Q53.83125 131.81459 54.315624 131.11147Q54.815624 130.40834 54.815624 128.29897Q54.815624 126.173965 54.315624 125.486465Q53.83125 124.78334 53.08125 124.78334Q52.3625 124.78334 51.925 125.392715Q51.378124 126.173965 51.378124 128.29897ZM57.3 128.29897Q57.3 126.767715 57.6125 125.84584Q57.925 124.90834 58.534374 124.40834Q59.159374 123.90834 60.096874 123.90834Q60.784374 123.90834 61.3 124.18959Q61.83125 124.47084 62.175 125.00209Q62.51875 125.517715 62.70625 126.267715Q62.89375 127.017715 62.89375 128.29897Q62.89375 129.81459 62.58125 130.73647Q62.284374 131.65834 61.659374 132.17397Q61.05 132.67397 60.096874 132.67397Q58.8625 132.67397 58.14375 131.78334Q57.3 130.72084 57.3 128.29897ZM58.378124 128.29897Q58.378124 130.40834 58.878124 131.11147Q59.378124 131.81459 60.096874 131.81459Q60.83125 131.81459 61.315624 131.11147Q61.815624 130.40834 61.815624 128.29897Q61.815624 126.173965 61.315624 125.486465Q60.83125 124.78334 60.08125 124.78334Q59.3625 124.78334 58.925 125.392715Q58.378124 126.173965 58.378124 128.29897ZM64.3 128.29897Q64.3 126.767715 64.6125 125.84584Q64.925 124.90834 65.53438 124.40834Q66.15938 123.90834 67.09688 123.90834Q67.78438 123.90834 68.3 124.18959Q68.83125 124.47084 69.175 125.00209Q69.51875 125.517715 69.70625 126.267715Q69.89375 127.017715 69.89375 128.29897Q69.89375 129.81459 69.58125 130.73647Q69.28438 131.65834 68.65938 132.17397Q68.05 132.67397 67.09688 132.67397Q65.8625 132.67397 65.14375 131.78334Q64.3 130.72084 64.3 128.29897ZM65.37813 128.29897Q65.37813 130.40834 65.87813 131.11147Q66.37813 131.81459 67.09688 131.81459Q67.83125 131.81459 68.31563 131.11147Q68.81563 130.40834 68.81563 128.29897Q68.81563 126.173965 68.31563 125.486465Q67.83125 124.78334 67.08125 124.78334Q66.3625 124.78334 65.925 125.392715Q65.37813 126.173965 65.37813 128.29897ZM71.69063 132.53334L71.69063 123.93959L73.40938 123.93959L75.44063 130.01772Q75.72188 130.87709 75.84688 131.29897Q75.9875 130.83022 76.3 129.92397L78.3625 123.93959L79.89375 123.93959L79.89375 132.53334L78.8 132.53334L78.8 125.34584L76.3 132.53334L75.26875 132.53334L72.78438 125.22084L72.78438 132.53334L71.69063 132.53334ZM80.675 132.53334L80.675 123.93959L83.90938 123.93959Q84.89375 123.93959 85.4875 124.205215Q86.08125 124.47084 86.40938 125.017715Q86.75313 125.548965 86.75313 126.142715Q86.75313 126.68959 86.45625 127.173965Q86.15938 127.65834 85.55 127.955215Q86.33125 128.18959 86.7375 128.75209Q87.15938 129.29897 87.15938 130.04897Q87.15938 130.64272 86.90938 131.17397Q86.65938 131.68959 86.28438 131.97084Q85.90938 132.25209 85.33125 132.39272Q84.76875 132.53334 83.95625 132.53334L80.675 132.53334ZM81.81563 127.548965L83.675 127.548965Q84.425 127.548965 84.75313 127.455215Q85.19063 127.330215 85.40938 127.03334Q85.62813 126.72084 85.62813 126.267715Q85.62813 125.84584 85.425 125.517715Q85.22188 125.18959 84.83125 125.080215Q84.45625 124.955215 83.53438 124.955215L81.81563 124.955215L81.81563 127.548965ZM81.81563 131.51772L83.95625 131.51772Q84.50313 131.51772 84.72188 131.47084Q85.12813 131.40834 85.37813 131.25209Q85.64375 131.08022 85.81563 130.76772Q85.9875 130.45522 85.9875 130.04897Q85.9875 129.56459 85.7375 129.20522Q85.50313 128.84584 85.06563 128.70522Q84.62813 128.56459 83.8 128.56459L81.81563 128.56459L81.81563 131.51772Z" fill-rule="nonzero"/><path fill="#000000" d="M253.80559 645.2L252.75871 645.2L252.75871 638.48126Q252.36809 638.84064 251.74309 639.21564Q251.13371 639.575 250.64934 639.7469L250.64934 638.73126Q251.52434 638.3094 252.18059 637.73126Q252.85246 637.1375 253.13371 636.575L253.80559 636.575L253.80559 645.2ZM256.83685 640.96564Q256.83685 639.4344 257.14935 638.5125Q257.46185 637.575 258.07123 637.075Q258.69623 636.575 259.63373 636.575Q260.32123 636.575 260.83685 636.85626Q261.3681 637.1375 261.71185 637.66876Q262.0556 638.1844 262.2431 638.9344Q262.4306 639.6844 262.4306 640.96564Q262.4306 642.48126 262.1181 643.40314Q261.82123 644.325 261.19623 644.84064Q260.58685 645.34064 259.63373 645.34064Q258.39935 645.34064 257.6806 644.45Q256.83685 643.3875 256.83685 640.96564ZM257.91498 640.96564Q257.91498 643.075 258.41498 643.77814Q258.91498 644.48126 259.63373 644.48126Q260.3681 644.48126 260.85248 643.77814Q261.35248 643.075 261.35248 640.96564Q261.35248 638.84064 260.85248 638.15314Q260.3681 637.45 259.6181 637.45Q258.89935 637.45 258.46185 638.0594Q257.91498 638.84064 257.91498 640.96564Z" fill-rule="nonzero"/><path fill="#000000" d="M526.27844 644.1844L526.27844 645.2L520.59094 645.2Q520.59094 644.825 520.71594 644.46564Q520.9347 643.8875 521.40344 643.325Q521.8878 642.7625 522.79407 642.02814Q524.2003 640.8719 524.6847 640.2Q525.1847 639.52814 525.1847 638.9344Q525.1847 638.3094 524.73157 637.8875Q524.27844 637.45 523.5597 637.45Q522.79407 637.45 522.34094 637.90314Q521.8878 638.35626 521.8722 639.16876L520.79407 639.0594Q520.90344 637.84064 521.6222 637.21564Q522.35657 636.575 523.59094 636.575Q524.8253 636.575 525.54407 637.2625Q526.2628 637.95 526.2628 638.96564Q526.2628 639.48126 526.04407 639.98126Q525.84094 640.46564 525.34094 641.02814Q524.85657 641.575 523.73157 642.52814Q522.77844 643.325 522.4972 643.6219Q522.23157 643.90314 522.0597 644.1844L526.27844 644.1844ZM527.73157 640.96564Q527.73157 639.4344 528.04407 638.5125Q528.35657 637.575 528.96594 637.075Q529.59094 636.575 530.52844 636.575Q531.21594 636.575 531.73157 636.85626Q532.2628 637.1375 532.60657 637.66876Q532.9503 638.1844 533.1378 638.9344Q533.3253 639.6844 533.3253 640.96564Q533.3253 642.48126 533.0128 643.40314Q532.71594 644.325 532.09094 644.84064Q531.48157 645.34064 530.52844 645.34064Q529.29407 645.34064 528.5753 644.45Q527.73157 643.3875 527.73157 640.96564ZM528.8097 640.96564Q528.8097 643.075 529.3097 643.77814Q529.8097 644.48126 530.52844 644.48126Q531.2628 644.48126 531.7472 643.77814Q532.2472 643.075 532.2472 640.96564Q532.2472 638.84064 531.7472 638.15314Q531.2628 637.45 530.5128 637.45Q529.79407 637.45 529.35657 638.0594Q528.8097 638.84064 528.8097 640.96564Z" fill-rule="nonzero"/><path fill="#000000" d="M791.62634 642.9344L792.68884 642.79376Q792.8607 643.6844 793.2982 644.09064Q793.7357 644.48126 794.3607 644.48126Q795.1107 644.48126 795.62634 643.96564Q796.14197 643.45 796.14197 642.6844Q796.14197 641.96564 795.6576 641.4969Q795.18884 641.0125 794.45447 641.0125Q794.1576 641.0125 793.70447 641.1375L793.82947 640.2Q793.93884 640.21564 794.00134 640.21564Q794.6732 640.21564 795.20447 639.8719Q795.75134 639.5125 795.75134 638.77814Q795.75134 638.2 795.3607 637.825Q794.9701 637.4344 794.3451 637.4344Q793.7357 637.4344 793.31384 637.825Q792.9076 638.21564 792.7982 638.98126L791.7357 638.79376Q791.9232 637.7469 792.6107 637.16876Q793.2982 636.575 794.31384 636.575Q795.01697 636.575 795.6107 636.8875Q796.20447 637.1844 796.51697 637.7Q796.82947 638.21564 796.82947 638.8094Q796.82947 639.35626 796.5326 639.825Q796.2357 640.27814 795.6576 640.54376Q796.4076 640.71564 796.82947 641.27814Q797.25134 641.825 797.25134 642.66876Q797.25134 643.79376 796.4232 644.575Q795.6107 645.35626 794.3607 645.35626Q793.2357 645.35626 792.4857 644.6844Q791.7357 643.9969 791.62634 642.9344ZM798.62634 640.96564Q798.62634 639.4344 798.93884 638.5125Q799.25134 637.575 799.8607 637.075Q800.4857 636.575 801.4232 636.575Q802.1107 636.575 802.62634 636.85626Q803.1576 637.1375 803.50134 637.66876Q803.8451 638.1844 804.0326 638.9344Q804.2201 639.6844 804.2201 640.96564Q804.2201 642.48126 803.9076 643.40314Q803.6107 644.325 802.9857 644.84064Q802.37634 645.34064 801.4232 645.34064Q800.18884 645.34064 799.4701 644.45Q798.62634 643.3875 798.62634 640.96564ZM799.70447 640.96564Q799.70447 643.075 800.20447 643.77814Q800.70447 644.48126 801.4232 644.48126Q802.1576 644.48126 802.64197 643.77814Q803.14197 643.075 803.14197 640.96564Q803.14197 638.84064 802.64197 638.15314Q802.1576 637.45 801.4076 637.45Q800.68884 637.45 800.25134 638.0594Q799.70447 638.84064 799.70447 640.96564Z" fill-rule="nonzero"/><path fill="#000000" d="M1065.896 645.2L1065.896 643.1375L1062.1772 643.1375L1062.1772 642.16876L1066.0991 636.60626L1066.9585 636.60626L1066.9585 642.16876L1068.1147 642.16876L1068.1147 643.1375L1066.9585 643.1375L1066.9585 645.2L1065.896 645.2ZM1065.896 642.16876L1065.896 638.3094L1063.2085 642.16876L1065.896 642.16876ZM1069.521 640.96564Q1069.521 639.4344 1069.8335 638.5125Q1070.146 637.575 1070.7554 637.075Q1071.3804 636.575 1072.3179 636.575Q1073.0054 636.575 1073.521 636.85626Q1074.0522 637.1375 1074.396 637.66876Q1074.7397 638.1844 1074.9272 638.9344Q1075.1147 639.6844 1075.1147 640.96564Q1075.1147 642.48126 1074.8022 643.40314Q1074.5054 644.325 1073.8804 644.84064Q1073.271 645.34064 1072.3179 645.34064Q1071.0835 645.34064 1070.3647 644.45Q1069.521 643.3875 1069.521 640.96564ZM1070.5991 640.96564Q1070.5991 643.075 1071.0991 643.77814Q1071.5991 644.48126 1072.3179 644.48126Q1073.0522 644.48126 1073.5366 643.77814Q1074.0366 643.075 1074.0366 640.96564Q1074.0366 638.84064 1073.5366 638.15314Q1073.0522 637.45 1072.3022 637.45Q1071.5835 637.45 1071.146 638.0594Q1070.5991 638.84064 1070.5991 640.96564Z" fill-rule="nonzero"/><path stroke="#4285f4" stroke-width="4.0" stroke-linecap="butt" d="M509.0 90.666664L521.0 90.666664" fill-rule="nonzero"/><path fill="#1a1a1a" d="M529.9219 94.666664L529.9219 86.072914L532.8906 86.072914Q533.8906 86.072914 534.4219 86.197914Q535.15625 86.36979 535.6719 86.80729Q536.3594 87.385414 536.6875 88.291664Q537.03125 89.18229 537.03125 90.322914Q537.03125 91.30729 536.7969 92.05729Q536.5781 92.80729 536.21875 93.30729Q535.8594 93.80729 535.4219 94.08854Q535.0 94.36979 534.40625 94.52604Q533.8125 94.666664 533.03125 94.666664L529.9219 94.666664ZM531.0625 93.65104L532.8906 93.65104Q533.75 93.65104 534.2344 93.49479Q534.71875 93.33854 535.0 93.041664Q535.40625 92.65104 535.625 91.96354Q535.8594 91.27604 535.8594 90.30729Q535.8594 88.96354 535.40625 88.24479Q534.96875 87.510414 534.34375 87.260414Q533.875 87.08854 532.875 87.08854L531.0625 87.08854L531.0625 93.65104ZM538.78125 94.666664L538.78125 88.447914L539.7344 88.447914L539.7344 89.385414Q540.09375 88.729164 540.3906 88.52604Q540.7031 88.30729 541.0781 88.30729Q541.6094 88.30729 542.15625 88.635414L541.7969 89.61979Q541.40625 89.385414 541.03125 89.385414Q540.6719 89.385414 540.3906 89.604164Q540.125 89.80729 540.0156 90.18229Q539.8281 90.74479 539.8281 91.40104L539.8281 94.666664L538.78125 94.666664ZM546.8594 93.90104Q546.2656 94.40104 545.71875 94.604164Q545.1875 94.80729 544.5625 94.80729Q543.53125 94.80729 542.9844 94.30729Q542.4375 93.80729 542.4375 93.02604Q542.4375 92.572914 542.6406 92.197914Q542.84375 91.80729 543.1875 91.58854Q543.53125 91.354164 543.9531 91.24479Q544.25 91.15104 544.8906 91.072914Q546.15625 90.93229 546.7656 90.71354Q546.7656 90.49479 546.7656 90.447914Q546.7656 89.791664 546.46875 89.52604Q546.0625 89.18229 545.2656 89.18229Q544.53125 89.18229 544.1719 89.447914Q543.8125 89.697914 543.6406 90.354164L542.6094 90.21354Q542.75 89.55729 543.0781 89.15104Q543.40625 88.74479 544.0156 88.52604Q544.625 88.30729 545.4219 88.30729Q546.21875 88.30729 546.71875 88.49479Q547.21875 88.68229 547.4531 88.96354Q547.6875 89.24479 547.78125 89.68229Q547.8281 89.947914 547.8281 90.65104L547.8281 92.05729Q547.8281 93.52604 547.8906 93.916664Q547.96875 94.30729 548.1719 94.666664L547.0625 94.666664Q546.90625 94.33854 546.8594 93.90104ZM546.7656 91.541664Q546.1875 91.77604 545.0469 91.947914Q544.3906 92.041664 544.125 92.166664Q543.8594 92.27604 543.7031 92.49479Q543.5625 92.71354 543.5625 92.99479Q543.5625 93.416664 543.875 93.697914Q544.2031 93.979164 544.8125 93.979164Q545.4219 93.979164 545.8906 93.71354Q546.375 93.447914 546.59375 92.979164Q546.7656 92.61979 546.7656 91.93229L546.7656 91.541664ZM549.59375 95.18229L550.625 95.33854Q550.6875 95.80729 550.9844 96.02604Q551.375 96.322914 552.0469 96.322914Q552.78125 96.322914 553.1719 96.02604Q553.5781 95.729164 553.71875 95.21354Q553.8125 94.885414 553.7969 93.854164Q553.1094 94.666664 552.0781 94.666664Q550.7969 94.666664 550.09375 93.74479Q549.3906 92.80729 549.3906 91.52604Q549.3906 90.635414 549.7031 89.885414Q550.03125 89.11979 550.6406 88.71354Q551.25 88.30729 552.0781 88.30729Q553.1875 88.30729 553.90625 89.197914L553.90625 88.447914L554.875 88.447914L554.875 93.822914Q554.875 95.27604 554.5781 95.885414Q554.28125 96.49479 553.6406 96.83854Q553.0 97.197914 552.0625 97.197914Q550.9531 97.197914 550.2656 96.697914Q549.5781 96.197914 549.59375 95.18229ZM550.46875 91.447914Q550.46875 92.666664 550.9531 93.229164Q551.4375 93.791664 552.1719 93.791664Q552.90625 93.791664 553.3906 93.229164Q553.8906 92.666664 553.8906 91.479164Q553.8906 90.33854 553.375 89.760414Q552.875 89.18229 552.15625 89.18229Q551.4531 89.18229 550.9531 89.760414Q550.46875 90.322914 550.46875 91.447914ZM556.40625 91.55729Q556.40625 89.822914 557.3594 88.99479Q558.15625 88.30729 559.3125 88.30729Q560.59375 88.30729 561.40625 89.15104Q562.2344 89.979164 562.2344 91.46354Q562.2344 92.666664 561.875 93.354164Q561.5156 94.041664 560.8125 94.43229Q560.125 94.80729 559.3125 94.80729Q558.0156 94.80729 557.2031 93.979164Q556.40625 93.135414 556.40625 91.55729ZM557.4844 91.55729Q557.4844 92.74479 558.0 93.33854Q558.53125 93.93229 559.3125 93.93229Q560.1094 93.93229 560.625 93.33854Q561.1406 92.74479 561.1406 91.52604Q561.1406 90.36979 560.6094 89.77604Q560.09375 89.18229 559.3125 89.18229Q558.53125 89.18229 558.0 89.77604Q557.4844 90.354164 557.4844 91.55729ZM563.7969 94.666664L563.7969 88.447914L564.7344 88.447914L564.7344 89.322914Q565.4219 88.30729 566.71875 88.30729Q567.28125 88.30729 567.75 88.510414Q568.2344 88.71354 568.46875 89.041664Q568.7031 89.36979 568.7969 89.80729Q568.84375 90.104164 568.84375 90.83854L568.84375 94.666664L567.7969 94.666664L567.7969 90.885414Q567.7969 90.229164 567.6719 89.916664Q567.5469 89.604164 567.2344 89.416664Q566.9219 89.21354 566.5 89.21354Q565.8281 89.21354 565.3281 89.65104Q564.84375 90.072914 564.84375 91.260414L564.84375 94.666664L563.7969 94.666664ZM571.0469 94.666664L571.0469 89.260414L570.1094 89.260414L570.1094 88.447914L571.0469 88.447914L571.0469 87.77604Q571.0469 87.15104 571.15625 86.854164Q571.3125 86.43229 571.6875 86.18229Q572.0781 85.93229 572.7656 85.93229Q573.21875 85.93229 573.75 86.041664L573.59375 86.947914Q573.2656 86.90104 572.96875 86.90104Q572.4844 86.90104 572.28125 87.104164Q572.09375 87.30729 572.09375 87.86979L572.09375 88.447914L573.3125 88.447914L573.3125 89.260414L572.09375 89.260414L572.09375 94.666664L571.0469 94.666664ZM573.7656 94.666664L573.7656 86.072914L574.8281 86.072914L574.8281 94.666664L573.7656 94.666664ZM576.75 97.05729L576.625 96.072914Q576.96875 96.166664 577.2344 96.166664Q577.5781 96.166664 577.78125 96.041664Q578.0 95.93229 578.1406 95.729164Q578.2344 95.55729 578.46875 94.93229Q578.4844 94.854164 578.5625 94.68229L576.1875 88.447914L577.3281 88.447914L578.625 92.041664Q578.875 92.729164 579.0781 93.49479Q579.2656 92.760414 579.5156 92.072914L580.84375 88.447914L581.8906 88.447914L579.53125 94.77604Q579.1406 95.791664 578.9375 96.18229Q578.65625 96.71354 578.28125 96.947914Q577.9219 97.197914 577.4219 97.197914Q577.125 97.197914 576.75 97.05729Z" fill-rule="nonzero"/><path stroke="#ea4335" stroke-width="4.0" stroke-linecap="butt" d="M597.0 90.666664L609.0 90.666664" fill-rule="nonzero"/><path fill="#1a1a1a" d="M617.9375 94.666664L617.9375 86.072914L621.75 86.072914Q622.90625 86.072914 623.5 86.30729Q624.09375 86.541664 624.4531 87.135414Q624.8125 87.71354 624.8125 88.416664Q624.8125 89.33854 624.21875 89.96354Q623.625 90.58854 622.3906 90.760414Q622.84375 90.979164 623.0781 91.18229Q623.5781 91.635414 624.0156 92.322914L625.5156 94.666664L624.0781 94.666664L622.9531 92.885414Q622.4531 92.104164 622.125 91.697914Q621.8125 91.291664 621.5469 91.135414Q621.2969 90.96354 621.03125 90.885414Q620.84375 90.854164 620.40625 90.854164L619.0781 90.854164L619.0781 94.666664L617.9375 94.666664ZM619.0781 89.86979L621.53125 89.86979Q622.2969 89.86979 622.7344 89.71354Q623.1875 89.541664 623.40625 89.197914Q623.6406 88.83854 623.6406 88.416664Q623.6406 87.80729 623.1875 87.416664Q622.75 87.02604 621.7969 87.02604L619.0781 87.02604L619.0781 89.86979ZM631.0469 92.666664L632.1406 92.791664Q631.8906 93.74479 631.1875 94.27604Q630.4844 94.80729 629.40625 94.80729Q628.0469 94.80729 627.2344 93.96354Q626.4375 93.11979 626.4375 91.604164Q626.4375 90.041664 627.25 89.18229Q628.0625 88.30729 629.34375 88.30729Q630.59375 88.30729 631.375 89.15104Q632.1719 89.99479 632.1719 91.541664Q632.1719 91.635414 632.1719 91.822914L627.53125 91.822914Q627.59375 92.854164 628.1094 93.40104Q628.625 93.93229 629.40625 93.93229Q629.9844 93.93229 630.3906 93.635414Q630.8125 93.322914 631.0469 92.666664ZM627.59375 90.96354L631.0625 90.96354Q631.0 90.166664 630.6719 89.77604Q630.15625 89.166664 629.3594 89.166664Q628.625 89.166664 628.125 89.65104Q627.6406 90.135414 627.59375 90.96354ZM637.8281 94.666664L637.8281 93.885414Q637.2344 94.80729 636.09375 94.80729Q635.34375 94.80729 634.71875 94.40104Q634.09375 93.979164 633.75 93.24479Q633.40625 92.510414 633.40625 91.55729Q633.40625 90.635414 633.71875 89.86979Q634.03125 89.104164 634.65625 88.71354Q635.28125 88.30729 636.0469 88.30729Q636.6094 88.30729 637.0469 88.541664Q637.4844 88.77604 637.7656 89.15104L637.7656 86.072914L638.8125 86.072914L638.8125 94.666664L637.8281 94.666664ZM634.5 91.55729Q634.5 92.760414 635.0 93.354164Q635.5 93.93229 636.1875 93.93229Q636.875 93.93229 637.3594 93.36979Q637.84375 92.80729 637.84375 91.65104Q637.84375 90.36979 637.34375 89.77604Q636.8594 89.18229 636.1406 89.18229Q635.4375 89.18229 634.96875 89.760414Q634.5 90.322914 634.5 91.55729ZM640.7969 87.291664L640.7969 86.072914L641.8594 86.072914L641.8594 87.291664L640.7969 87.291664ZM640.7969 94.666664L640.7969 88.447914L641.8594 88.447914L641.8594 94.666664L640.7969 94.666664ZM643.375 92.80729L644.40625 92.65104Q644.5 93.27604 644.8906 93.604164Q645.2969 93.93229 646.03125 93.93229Q646.75 93.93229 647.09375 93.65104Q647.4531 93.354164 647.4531 92.947914Q647.4531 92.58854 647.1406 92.385414Q646.9219 92.24479 646.0625 92.02604Q644.90625 91.729164 644.4531 91.52604Q644.0156 91.30729 643.78125 90.93229Q643.5469 90.55729 643.5469 90.08854Q643.5469 89.68229 643.7344 89.322914Q643.9219 88.96354 644.25 88.729164Q644.5 88.55729 644.9219 88.43229Q645.34375 88.30729 645.84375 88.30729Q646.5625 88.30729 647.1094 88.52604Q647.6719 88.729164 647.9375 89.08854Q648.2031 89.447914 648.2969 90.041664L647.2656 90.18229Q647.2031 89.71354 646.8594 89.447914Q646.53125 89.166664 645.90625 89.166664Q645.1875 89.166664 644.875 89.416664Q644.5625 89.65104 644.5625 89.979164Q644.5625 90.18229 644.6875 90.33854Q644.8281 90.510414 645.09375 90.61979Q645.25 90.68229 646.03125 90.885414Q647.15625 91.197914 647.59375 91.385414Q648.03125 91.572914 648.28125 91.93229Q648.53125 92.291664 648.53125 92.83854Q648.53125 93.36979 648.21875 93.83854Q647.9219 94.291664 647.34375 94.55729Q646.7656 94.80729 646.03125 94.80729Q644.8125 94.80729 644.1719 94.30729Q643.5469 93.791664 643.375 92.80729Z" fill-rule="nonzero"/><path fill="#757575" d="M37.284374 54.8L37.284374 40.4875L40.14375 40.4875L43.51875 50.6125Q43.9875 52.034374 44.20625 52.7375Q44.45625 51.95625 44.971874 50.440624L48.39375 40.4875L50.940624 40.4875L50.940624 54.8L49.128124 54.8L49.128124 42.815624L44.95625 54.8L43.253124 54.8L39.1125 42.6125L39.1125 54.8L37.284374 54.8ZM61.221874 51.45625L63.034374 51.690624Q62.6125 53.26875 61.440624 54.159374Q60.284374 55.034374 58.471874 55.034374Q56.20625 55.034374 54.8625 53.64375Q53.534374 52.2375 53.534374 49.70625Q53.534374 47.08125 54.878124 45.64375Q56.221874 44.190624 58.378124 44.190624Q60.45625 44.190624 61.76875 45.6125Q63.096874 47.01875 63.096874 49.596874Q63.096874 49.753124 63.08125 50.065624L55.346874 50.065624Q55.440624 51.76875 56.315624 52.675Q57.190624 53.58125 58.4875 53.58125Q59.45625 53.58125 60.128124 53.08125Q60.815624 52.565624 61.221874 51.45625ZM55.440624 48.6125L61.2375 48.6125Q61.128124 47.315624 60.58125 46.659374Q59.7375 45.64375 58.39375 45.64375Q57.190624 45.64375 56.3625 46.45625Q55.534374 47.253124 55.440624 48.6125ZM65.1125 54.8L65.1125 44.425L66.69063 44.425L66.69063 45.878124Q67.175 45.128124 67.9875 44.659374Q68.8 44.190624 69.83125 44.190624Q70.9875 44.190624 71.72188 44.675Q72.45625 45.14375 72.76875 46.003124Q74.00313 44.190624 75.97188 44.190624Q77.51875 44.190624 78.34688 45.05Q79.175 45.909374 79.175 47.675L79.175 54.8L77.425 54.8L77.425 48.26875Q77.425 47.20625 77.25313 46.753124Q77.08125 46.284374 76.62813 46.003124Q76.19063 45.721874 75.58125 45.721874Q74.4875 45.721874 73.75313 46.45625Q73.03438 47.175 73.03438 48.76875L73.03438 54.8L71.28438 54.8L71.28438 48.065624Q71.28438 46.89375 70.84688 46.315624Q70.425 45.721874 69.44063 45.721874Q68.70625 45.721874 68.06563 46.1125Q67.44063 46.503124 67.15938 47.253124Q66.87813 48.003124 66.87813 49.425L66.87813 54.8L65.1125 54.8ZM80.47188 49.6125Q80.47188 46.7375 82.06563 45.346874Q83.40938 44.190624 85.33125 44.190624Q87.47188 44.190624 88.81563 45.596874Q90.175 47.003124 90.175 49.471874Q90.175 51.471874 89.58125 52.628124Q88.9875 53.76875 87.83125 54.409374Q86.69063 55.034374 85.33125 55.034374Q83.14375 55.034374 81.8 53.64375Q80.47188 52.2375 80.47188 49.6125ZM82.26875 49.6125Q82.26875 51.6125 83.12813 52.596874Q84.00313 53.58125 85.33125 53.58125Q86.64375 53.58125 87.50313 52.596874Q88.37813 51.596874 88.37813 49.55Q88.37813 47.628124 87.50313 46.64375Q86.62813 45.64375 85.33125 45.64375Q84.00313 45.64375 83.12813 46.64375Q82.26875 47.628124 82.26875 49.6125ZM92.09688 54.8L92.09688 44.425L93.675 44.425L93.675 46.003124Q94.28438 44.89375 94.8 44.55Q95.31563 44.190624 95.925 44.190624Q96.81563 44.190624 97.7375 44.753124L97.12813 46.39375Q96.4875 46.003124 95.84688 46.003124Q95.26875 46.003124 94.8 46.3625Q94.34688 46.70625 94.14375 47.315624Q93.8625 48.253124 93.8625 49.3625L93.8625 54.8L92.09688 54.8ZM99.03438 58.8L98.84688 57.14375Q99.425 57.3 99.84688 57.3Q100.44063 57.3 100.78438 57.096874Q101.14375 56.909374 101.3625 56.565624Q101.53438 56.3 101.90938 55.253124Q101.95625 55.096874 102.06563 54.815624L98.12813 44.425L100.01875 44.425L102.175 50.440624Q102.59688 51.58125 102.925 52.83125Q103.2375 51.628124 103.64375 50.471874L105.8625 44.425L107.62813 44.425L103.675 54.971874Q103.05 56.690624 102.69063 57.33125Q102.22188 58.20625 101.6125 58.596874Q101.01875 59.003124 100.175 59.003124Q99.65938 59.003124 99.03438 58.8ZM121.90938 54.8L121.90938 53.26875Q120.70625 55.034374 118.62813 55.034374Q117.70625 55.034374 116.90938 54.690624Q116.1125 54.33125 115.72188 53.8Q115.34688 53.26875 115.19063 52.4875Q115.08125 51.971874 115.08125 50.846874L115.08125 44.425L116.83125 44.425L116.83125 50.175Q116.83125 51.55 116.94063 52.034374Q117.1125 52.721874 117.64375 53.128124Q118.19063 53.51875 118.97188 53.51875Q119.76875 53.51875 120.45625 53.1125Q121.15938 52.70625 121.44063 52.01875Q121.7375 51.315624 121.7375 49.9875L121.7375 44.425L123.4875 44.425L123.4875 54.8L121.90938 54.8ZM124.40938 51.70625L126.15938 51.425Q126.3 52.471874 126.97188 53.034374Q127.64375 53.58125 128.84688 53.58125Q130.05 53.58125 130.62813 53.096874Q131.22188 52.596874 131.22188 51.940624Q131.22188 51.346874 130.70625 51.003124Q130.34688 50.76875 128.90938 50.409374Q126.97188 49.909374 126.22188 49.565624Q125.4875 49.20625 125.09688 48.58125Q124.70625 47.940624 124.70625 47.175Q124.70625 46.4875 125.01875 45.89375Q125.34688 45.3 125.89375 44.909374Q126.3 44.6125 127.00313 44.409374Q127.72188 44.190624 128.53438 44.190624Q129.75313 44.190624 130.675 44.55Q131.59688 44.89375 132.03438 45.503124Q132.47188 46.096874 132.64375 47.096874L130.925 47.33125Q130.8 46.534374 130.2375 46.096874Q129.675 45.64375 128.65938 45.64375Q127.44063 45.64375 126.925 46.05Q126.40938 46.440624 126.40938 46.971874Q126.40938 47.315624 126.62813 47.596874Q126.83125 47.878124 127.3 48.065624Q127.56563 48.159374 128.84688 48.503124Q130.72188 49.003124 131.45625 49.33125Q132.19063 49.64375 132.6125 50.253124Q133.03438 50.846874 133.03438 51.753124Q133.03438 52.628124 132.51875 53.409374Q132.00313 54.190624 131.03438 54.6125Q130.06563 55.034374 128.84688 55.034374Q126.83125 55.034374 125.76875 54.190624Q124.70625 53.346874 124.40938 51.70625ZM141.89375 53.51875Q140.90938 54.346874 140.00313 54.690624Q139.09688 55.034374 138.06563 55.034374Q136.3625 55.034374 135.44063 54.20625Q134.51875 53.3625 134.51875 52.065624Q134.51875 51.3 134.8625 50.675Q135.22188 50.05 135.78438 49.675Q136.34688 49.284374 137.05 49.08125Q137.56563 48.95625 138.6125 48.815624Q140.7375 48.565624 141.7375 48.221874Q141.75313 47.8625 141.75313 47.753124Q141.75313 46.690624 141.25313 46.2375Q140.58125 45.64375 139.25313 45.64375Q138.00313 45.64375 137.40938 46.08125Q136.83125 46.51875 136.55 47.628124L134.83125 47.39375Q135.06563 46.284374 135.59688 45.6125Q136.12813 44.925 137.14375 44.565624Q138.15938 44.190624 139.50313 44.190624Q140.83125 44.190624 141.65938 44.503124Q142.4875 44.815624 142.87813 45.3Q143.26875 45.76875 143.425 46.4875Q143.51875 46.940624 143.51875 48.1125L143.51875 50.45625Q143.51875 52.909374 143.62813 53.565624Q143.7375 54.20625 144.08125 54.8L142.2375 54.8Q141.97188 54.253124 141.89375 53.51875ZM141.7375 49.596874Q140.78438 49.9875 138.8625 50.253124Q137.78438 50.409374 137.33125 50.6125Q136.89375 50.8 136.64375 51.175Q136.39375 51.55 136.39375 52.01875Q136.39375 52.721874 136.925 53.190624Q137.45625 53.659374 138.4875 53.659374Q139.50313 53.659374 140.28438 53.221874Q141.08125 52.76875 141.45625 52.003124Q141.7375 51.39375 141.7375 50.2375L141.7375 49.596874ZM145.8 55.659374L147.50313 55.909374Q147.6125 56.70625 148.09688 57.065624Q148.75313 57.55 149.89375 57.55Q151.1125 57.55 151.76875 57.065624Q152.44063 56.58125 152.675 55.70625Q152.81563 55.159374 152.8 53.440624Q151.64375 54.8 149.925 54.8Q147.78438 54.8 146.6125 53.253124Q145.44063 51.70625 145.44063 49.55Q145.44063 48.065624 145.97188 46.815624Q146.51875 45.565624 147.53438 44.878124Q148.56563 44.190624 149.94063 44.190624Q151.76875 44.190624 152.97188 45.675L152.97188 44.425L154.58125 44.425L154.58125 53.39375Q154.58125 55.815624 154.08125 56.815624Q153.59688 57.83125 152.51875 58.409374Q151.45625 59.003124 149.89375 59.003124Q148.05 59.003124 146.89375 58.175Q145.75313 57.346874 145.8 55.659374ZM147.25313 49.425Q147.25313 51.471874 148.06563 52.409374Q148.87813 53.346874 150.09688 53.346874Q151.3 53.346874 152.1125 52.409374Q152.94063 51.471874 152.94063 49.4875Q152.94063 47.58125 152.09688 46.6125Q151.25313 45.64375 150.06563 45.64375Q148.89375 45.64375 148.06563 46.596874Q147.25313 47.55 147.25313 49.425ZM164.22188 51.45625L166.03438 51.690624Q165.6125 53.26875 164.44063 54.159374Q163.28438 55.034374 161.47188 55.034374Q159.20625 55.034374 157.8625 53.64375Q156.53438 52.2375 156.53438 49.70625Q156.53438 47.08125 157.87813 45.64375Q159.22188 44.190624 161.37813 44.190624Q163.45625 44.190624 164.76875 45.6125Q166.09688 47.01875 166.09688 49.596874Q166.09688 49.753124 166.08125 50.065624L158.34688 50.065624Q158.44063 51.76875 159.31563 52.675Q160.19063 53.58125 161.4875 53.58125Q162.45625 53.58125 163.12813 53.08125Q163.81563 52.565624 164.22188 51.45625ZM158.44063 48.6125L164.2375 48.6125Q164.12813 47.315624 163.58125 46.659374Q162.7375 45.64375 161.39375 45.64375Q160.19063 45.64375 159.3625 46.45625Q158.53438 47.253124 158.44063 48.6125ZM180.90938 54.8L180.90938 53.26875Q179.70625 55.034374 177.62813 55.034374Q176.70625 55.034374 175.90938 54.690624Q175.1125 54.33125 174.72188 53.8Q174.34688 53.26875 174.19063 52.4875Q174.08125 51.971874 174.08125 50.846874L174.08125 44.425L175.83125 44.425L175.83125 50.175Q175.83125 51.55 175.94063 52.034374Q176.1125 52.721874 176.64375 53.128124Q177.19063 53.51875 177.97188 53.51875Q178.76875 53.51875 179.45625 53.1125Q180.15938 52.70625 180.44063 52.01875Q180.7375 51.315624 180.7375 49.9875L180.7375 44.425L182.4875 44.425L182.4875 54.8L180.90938 54.8ZM184.1125 54.8L184.1125 44.425L185.70625 44.425L185.70625 45.909374Q186.84688 44.190624 189.00313 44.190624Q189.94063 44.190624 190.72188 44.534374Q191.51875 44.8625 191.90938 45.409374Q192.3 45.95625 192.45625 46.70625Q192.55 47.20625 192.55 48.425L192.55 54.8L190.78438 54.8L190.78438 48.4875Q190.78438 47.409374 190.58125 46.878124Q190.37813 46.346874 189.84688 46.034374Q189.33125 45.721874 188.62813 45.721874Q187.50313 45.721874 186.69063 46.440624Q185.87813 47.14375 185.87813 49.128124L185.87813 54.8L184.1125 54.8ZM200.84688 54.8L200.84688 53.4875Q199.8625 55.034374 197.94063 55.034374Q196.70625 55.034374 195.65938 54.346874Q194.62813 53.659374 194.05 52.440624Q193.4875 51.221874 193.4875 49.628124Q193.4875 48.065624 194.00313 46.8Q194.51875 45.534374 195.55 44.8625Q196.59688 44.190624 197.8625 44.190624Q198.8 44.190624 199.53438 44.596874Q200.26875 44.9875 200.7375 45.6125L200.7375 40.4875L202.47188 40.4875L202.47188 54.8L200.84688 54.8ZM195.28438 49.628124Q195.28438 51.6125 196.12813 52.596874Q196.97188 53.58125 198.1125 53.58125Q199.26875 53.58125 200.06563 52.64375Q200.87813 51.70625 200.87813 49.76875Q200.87813 47.64375 200.05 46.64375Q199.2375 45.64375 198.03438 45.64375Q196.8625 45.64375 196.06563 46.6125Q195.28438 47.565624 195.28438 49.628124ZM212.22188 51.45625L214.03438 51.690624Q213.6125 53.26875 212.44063 54.159374Q211.28438 55.034374 209.47188 55.034374Q207.20625 55.034374 205.8625 53.64375Q204.53438 52.2375 204.53438 49.70625Q204.53438 47.08125 205.87813 45.64375Q207.22188 44.190624 209.37813 44.190624Q211.45625 44.190624 212.76875 45.6125Q214.09688 47.01875 214.09688 49.596874Q214.09688 49.753124 214.08125 50.065624L206.34688 50.065624Q206.44063 51.76875 207.31563 52.675Q208.19063 53.58125 209.4875 53.58125Q210.45625 53.58125 211.12813 53.08125Q211.81563 52.565624 212.22188 51.45625ZM206.44063 48.6125L212.2375 48.6125Q212.12813 47.315624 211.58125 46.659374Q210.7375 45.64375 209.39375 45.64375Q208.19063 45.64375 207.3625 46.45625Q206.53438 47.253124 206.44063 48.6125ZM216.09688 54.8L216.09688 44.425L217.675 44.425L217.675 46.003124Q218.28438 44.89375 218.8 44.55Q219.31563 44.190624 219.925 44.190624Q220.81563 44.190624 221.7375 44.753124L221.12813 46.39375Q220.4875 46.003124 219.84688 46.003124Q219.26875 46.003124 218.8 46.3625Q218.34688 46.70625 218.14375 47.315624Q217.8625 48.253124 217.8625 49.3625L217.8625 54.8L216.09688 54.8ZM229.26875 54.8L229.26875 40.4875L234.64375 40.4875Q236.28438 40.4875 237.26875 40.925Q238.25313 41.346874 238.81563 42.253124Q239.37813 43.159374 239.37813 44.14375Q239.37813 45.065624 238.87813 45.878124Q238.39375 46.690624 237.37813 47.175Q238.675 47.565624 239.37813 48.4875Q240.08125 49.39375 240.08125 50.64375Q240.08125 51.659374 239.64375 52.51875Q239.22188 53.378124 238.59688 53.846874Q237.97188 54.315624 237.03438 54.565624Q236.09688 54.8 234.72188 54.8L229.26875 54.8ZM231.15938 46.503124L234.25313 46.503124Q235.51875 46.503124 236.06563 46.33125Q236.78438 46.1125 237.14375 45.628124Q237.51875 45.128124 237.51875 44.3625Q237.51875 43.659374 237.175 43.1125Q236.83125 42.565624 236.19063 42.378124Q235.56563 42.175 234.01875 42.175L231.15938 42.175L231.15938 46.503124ZM231.15938 53.1125L234.72188 53.1125Q235.64375 53.1125 236.01875 53.034374Q236.675 52.925 237.1125 52.659374Q237.55 52.378124 237.83125 51.8625Q238.1125 51.33125 238.1125 50.64375Q238.1125 49.846874 237.70625 49.253124Q237.3 48.659374 236.56563 48.425Q235.83125 48.190624 234.47188 48.190624L231.15938 48.190624L231.15938 53.1125ZM249.05 49.190624L249.05 47.503124L255.1125 47.4875L255.1125 52.8Q253.70625 53.925 252.22188 54.4875Q250.7375 55.05 249.175 55.05Q247.06563 55.05 245.34688 54.14375Q243.62813 53.2375 242.7375 51.534374Q241.8625 49.815624 241.8625 47.70625Q241.8625 45.6125 242.7375 43.815624Q243.6125 42.003124 245.25313 41.128124Q246.89375 40.2375 249.03438 40.2375Q250.58125 40.2375 251.83125 40.7375Q253.09688 41.2375 253.8 42.14375Q254.51875 43.034374 254.89375 44.4875L253.19063 44.95625Q252.8625 43.8625 252.37813 43.2375Q251.90938 42.6125 251.01875 42.2375Q250.12813 41.8625 249.05 41.8625Q247.7375 41.8625 246.78438 42.253124Q245.84688 42.64375 245.26875 43.3Q244.69063 43.940624 244.3625 44.70625Q243.81563 46.034374 243.81563 47.596874Q243.81563 49.503124 244.47188 50.8Q245.14375 52.08125 246.39375 52.70625Q247.65938 53.33125 249.06563 53.33125Q250.3 53.33125 251.47188 52.8625Q252.64375 52.39375 253.25313 51.846874L253.25313 49.190624L249.05 49.190624ZM257.70624 50.20625L259.4875 50.05Q259.6125 51.1125 260.0656 51.8Q260.53436 52.4875 261.5031 52.925Q262.4875 53.346874 263.72186 53.346874Q264.8 53.346874 265.6281 53.034374Q266.45624 52.70625 266.8625 52.14375Q267.26874 51.58125 267.26874 50.909374Q267.26874 50.2375 266.8781 49.7375Q266.4875 49.2375 265.59686 48.89375Q265.01874 48.659374 263.03436 48.190624Q261.0656 47.721874 260.28436 47.3Q259.2531 46.76875 258.7531 45.971874Q258.2531 45.175 258.2531 44.190624Q258.2531 43.096874 258.8625 42.159374Q259.47186 41.221874 260.65936 40.7375Q261.84686 40.2375 263.28436 40.2375Q264.8781 40.2375 266.09686 40.753124Q267.3156 41.26875 267.95624 42.26875Q268.6125 43.253124 268.65936 44.51875L266.84686 44.659374Q266.70624 43.3 265.8625 42.6125Q265.01874 41.909374 263.3625 41.909374Q261.64374 41.909374 260.84686 42.55Q260.0656 43.175 260.0656 44.05Q260.0656 44.83125 260.6281 45.33125Q261.175 45.83125 263.4875 46.346874Q265.8 46.8625 266.65936 47.253124Q267.90936 47.83125 268.5031 48.721874Q269.09686 49.596874 269.09686 50.753124Q269.09686 51.89375 268.4406 52.909374Q267.78436 53.925 266.55 54.4875Q265.33124 55.05 263.8 55.05Q261.8625 55.05 260.55 54.4875Q259.2375 53.909374 258.4875 52.76875Q257.7375 51.628124 257.70624 50.20625ZM269.76874 54.8L275.26874 40.4875L277.3156 40.4875L283.175 54.8L281.01874 54.8L279.34686 50.45625L273.3625 50.45625L271.78436 54.8L269.76874 54.8ZM273.90936 48.925L278.7531 48.925L277.26874 44.95625Q276.58124 43.14375 276.2531 41.9875Q275.97186 43.3625 275.47186 44.721874L273.90936 48.925ZM288.4406 54.8L282.89374 40.4875L284.9406 40.4875L288.65936 50.878124Q289.1125 52.128124 289.40936 53.221874Q289.7375 52.05 290.1906 50.878124L294.05 40.4875L295.9875 40.4875L290.3781 54.8L288.4406 54.8ZM297.3781 54.8L297.3781 40.4875L307.7375 40.4875L307.7375 42.175L299.28436 42.175L299.28436 46.55L307.1906 46.55L307.1906 48.2375L299.28436 48.2375L299.28436 53.1125L308.0656 53.1125L308.0656 54.8L297.3781 54.8Z" fill-rule="nonzero"/></svg>